<svg xmlns="http://www.w3.org/2000/svg" viewBox="0 0 263.69 154.46"><defs><style>.cls-1{fill:#575751;}.cls-2{fill:#bead93;}.cls-3{fill:#5b9549;}.cls-4{fill:#cbe1b1;}.cls-5{fill:#accf7d;}.cls-6{fill:#deebcb;}.cls-7{fill:#528543;}.cls-8{fill:#f7d535;}.cls-9{fill:#3a7646;}.cls-10{fill:#1d1d1b;}.cls-11{fill:none;stroke:#bf2a18;stroke-linecap:round;stroke-linejoin:round;}</style></defs><g id="Calque_2" data-name="Calque 2"><g id="competences"><path class="cls-1" d="M33.12,9.34l.44-1a3.22,3.22,0,0,0,1.84.58c.77,0,1.08-.25,1.08-.59,0-1-3.25-.33-3.25-2.41,0-1,.77-1.74,2.36-1.74a3.73,3.73,0,0,1,1.94.49l-.4,1a3.24,3.24,0,0,0-1.55-.44c-.77,0-1.06.29-1.06.64,0,1,3.25.32,3.25,2.38,0,.93-.78,1.73-2.38,1.73A4,4,0,0,1,33.12,9.34Z"/><path class="cls-1" d="M38.25,7.74a2.23,2.23,0,0,1,2.4-2.22,2,2,0,0,1,1.93,1.1l-1,.52a1.07,1.07,0,0,0-1-.59,1.1,1.1,0,0,0-1.12,1.19,1.1,1.1,0,0,0,1.12,1.19,1.07,1.07,0,0,0,1-.59l1,.52A2,2,0,0,1,40.65,10,2.22,2.22,0,0,1,38.25,7.74Z"/><path class="cls-1" d="M47.43,8.09H44.18A1.15,1.15,0,0,0,45.41,9a1.45,1.45,0,0,0,1.08-.41l.66.72a2.27,2.27,0,0,1-1.77.69,2.23,2.23,0,0,1-2.46-2.21,2.2,2.2,0,0,1,2.3-2.22,2.13,2.13,0,0,1,2.24,2.23C47.46,7.85,47.44,8,47.43,8.09Zm-3.27-.73h2.12a1.08,1.08,0,0,0-2.12,0ZM45.44,5h-1l1.08-1.15h1.34Z"/><path class="cls-1" d="M52.69,7.43V9.89H51.44V7.62c0-.7-.32-1-.87-1s-1,.37-1,1.16V9.89H48.29V5.59h1.19v.5a1.89,1.89,0,0,1,1.43-.57A1.69,1.69,0,0,1,52.69,7.43Z"/><path class="cls-1" d="M57.63,7.43V9.89H56.46V9.35a1.41,1.41,0,0,1-1.31.6c-1,0-1.61-.56-1.61-1.3s.54-1.29,1.85-1.29h1c0-.53-.32-.85-1-.85a2.11,2.11,0,0,0-1.24.4L53.7,6a3.35,3.35,0,0,1,1.85-.52C56.87,5.52,57.63,6.13,57.63,7.43Zm-1.25,1.1V8.09h-.86c-.58,0-.76.22-.76.5s.26.52.7.52A.92.92,0,0,0,56.38,8.53Z"/><path class="cls-1" d="M61.43,5.52V6.67h-.28A1.06,1.06,0,0,0,60,7.86v2H58.76V5.59H60v.56A1.74,1.74,0,0,1,61.43,5.52Z"/><path class="cls-1" d="M62,4.29a.71.71,0,0,1,.77-.69.7.7,0,0,1,.78.67.78.78,0,0,1-1.55,0Zm.15,1.3h1.25v4.3H62.17Z"/><path class="cls-1" d="M64.16,9.49l.42-.9a2.93,2.93,0,0,0,1.5.42c.57,0,.79-.15.79-.39,0-.71-2.6,0-2.6-1.71,0-.81.73-1.39,2-1.39a3.5,3.5,0,0,1,1.65.38l-.41.89a2.49,2.49,0,0,0-1.24-.32c-.56,0-.8.17-.8.4,0,.73,2.6,0,2.6,1.71,0,.8-.75,1.37-2,1.37A3.76,3.76,0,0,1,64.16,9.49Z"/><path class="cls-1" d="M72.63,7.43V9.89H71.47V9.35a1.42,1.42,0,0,1-1.31.6c-1,0-1.61-.56-1.61-1.3s.53-1.29,1.84-1.29h1c0-.53-.32-.85-1-.85a2.1,2.1,0,0,0-1.23.4L68.71,6a3.35,3.35,0,0,1,1.85-.52C71.87,5.52,72.63,6.13,72.63,7.43Zm-1.24,1.1V8.09h-.86c-.58,0-.77.22-.77.5s.27.52.71.52A.93.93,0,0,0,71.39,8.53Z"/><path class="cls-1" d="M76.54,9.68a1.82,1.82,0,0,1-1,.27,1.41,1.41,0,0,1-1.6-1.54V6.64h-.67v-1h.67v-1h1.24v1h1.07v1H75.16V8.39A.5.5,0,0,0,75.7,9a.85.85,0,0,0,.5-.16Z"/><path class="cls-1" d="M77.09,4.29a.71.71,0,0,1,.78-.69.69.69,0,0,1,.77.67.78.78,0,0,1-1.55,0Zm.15,1.3h1.25v4.3H77.24Z"/><path class="cls-1" d="M79.33,7.74A2.37,2.37,0,1,1,81.7,10,2.22,2.22,0,0,1,79.33,7.74Zm3.46,0a1.1,1.1,0,1,0-2.19,0,1.1,1.1,0,1,0,2.19,0Z"/><path class="cls-1" d="M89.29,7.43V9.89H88V7.62c0-.7-.32-1-.87-1s-1,.37-1,1.16V9.89H84.89V5.59h1.19v.5a1.89,1.89,0,0,1,1.43-.57A1.69,1.69,0,0,1,89.29,7.43Z"/><path class="cls-1" d="M33.51,29.1V26H34.8v3.09c0,1.06.47,1.5,1.25,1.5s1.25-.44,1.25-1.5V26h1.28V29.1A2.32,2.32,0,0,1,36,31.65,2.31,2.31,0,0,1,33.51,29.1Z"/><path class="cls-1" d="M44.17,29.1v2.46H42.92V29.29c0-.7-.32-1-.87-1s-1,.37-1,1.16v2.13H39.77v-4.3H41v.5a1.89,1.89,0,0,1,1.43-.57A1.69,1.69,0,0,1,44.17,29.1Z"/><path class="cls-1" d="M45.15,26a.71.71,0,0,1,.77-.69.7.7,0,0,1,.78.67.78.78,0,0,1-1.55,0Zm.15,1.3h1.25v4.3H45.3Z"/><path class="cls-1" d="M50.48,31.35a1.79,1.79,0,0,1-1,.27,1.42,1.42,0,0,1-1.61-1.54V28.31H47.2v-1h.66v-1h1.25v1h1.07v1H49.11v1.75a.5.5,0,0,0,.53.57.82.82,0,0,0,.51-.16Z"/><path class="cls-1" d="M55.38,27.26l-2,4.56a1.76,1.76,0,0,1-1.78,1.35,1.9,1.9,0,0,1-1.2-.39l.46-.89a1.09,1.09,0,0,0,.7.28c.35,0,.54-.16.71-.54v0l-1.86-4.33h1.28L53,30.18l1.22-2.92Z"/><path class="cls-1" d="M38.41,49.66c0,1.25-.94,2-2.43,2H34.85v1.54H33.56v-5.6H36C37.47,47.63,38.41,48.41,38.41,49.66Zm-1.31,0c0-.61-.4-1-1.19-1H34.85v1.94h1.06C36.7,50.63,37.1,50.27,37.1,49.66Z"/><path class="cls-1" d="M41.91,48.86V50h-.28a1.06,1.06,0,0,0-1.14,1.2v2H39.24v-4.3h1.2v.56A1.73,1.73,0,0,1,41.91,48.86Z"/><path class="cls-1" d="M46.81,51.43H43.56a1.14,1.14,0,0,0,1.23.86,1.47,1.47,0,0,0,1.08-.41l.66.72a2.27,2.27,0,0,1-1.78.69,2.23,2.23,0,0,1-2.45-2.21,2.19,2.19,0,0,1,2.3-2.22,2.13,2.13,0,0,1,2.23,2.23C46.83,51.19,46.82,51.33,46.81,51.43Zm-3.27-.73h2.12a1.08,1.08,0,0,0-2.12,0Z"/><path class="cls-1" d="M54.94,50.77v2.46H53.69V51c0-.7-.31-1-.82-1s-.95.36-.95,1.13v2.16H50.67V51c0-.7-.29-1-.81-1s-.94.36-.94,1.13v2.16H47.67v-4.3h1.19v.49a1.73,1.73,0,0,1,1.35-.56,1.61,1.61,0,0,1,1.42.71,1.93,1.93,0,0,1,1.55-.71A1.67,1.67,0,0,1,54.94,50.77Z"/><path class="cls-1" d="M55.91,47.63a.71.71,0,0,1,.77-.69.7.7,0,0,1,.78.67.78.78,0,0,1-1.55,0Zm.15,1.3h1.25v4.3H56.06Z"/><path class="cls-1" d="M62.66,51.43H59.4a1.14,1.14,0,0,0,1.23.86,1.44,1.44,0,0,0,1.08-.41l.67.72a2.27,2.27,0,0,1-1.78.69,2.23,2.23,0,0,1-2.45-2.21,2.19,2.19,0,0,1,2.29-2.22,2.13,2.13,0,0,1,2.24,2.23C62.68,51.19,62.67,51.33,62.66,51.43Zm-2.49-3.06-1.45-1.15h1.35l1.08,1.15Zm-.78,2.33h2.12a1,1,0,0,0-1.06-.89A1,1,0,0,0,59.39,50.7Z"/><path class="cls-1" d="M66.19,48.86V50h-.28a1.06,1.06,0,0,0-1.15,1.2v2H63.52v-4.3h1.19v.56A1.74,1.74,0,0,1,66.19,48.86Z"/><path class="cls-1" d="M71.08,51.43H67.83a1.14,1.14,0,0,0,1.23.86,1.47,1.47,0,0,0,1.08-.41l.66.72a2.27,2.27,0,0,1-1.77.69,2.23,2.23,0,0,1-2.46-2.21,2.2,2.2,0,0,1,2.3-2.22,2.13,2.13,0,0,1,2.24,2.23C71.11,51.19,71.09,51.33,71.08,51.43Zm-3.27-.73h2.12a1.08,1.08,0,0,0-2.12,0Z"/><path class="cls-1" d="M73.94,50.43a3.08,3.08,0,0,1,5.34-1.9l-.83.76A1.81,1.81,0,0,0,77,48.64a1.79,1.79,0,0,0,0,3.58,1.79,1.79,0,0,0,1.41-.66l.83.77a3.08,3.08,0,0,1-5.34-1.9Z"/><path class="cls-1" d="M79.68,50.43A3.08,3.08,0,0,1,85,48.53l-.83.76a1.78,1.78,0,0,0-1.4-.65,1.79,1.79,0,0,0,0,3.58,1.76,1.76,0,0,0,1.4-.66l.83.77a3.08,3.08,0,0,1-5.34-1.9Z"/><path class="cls-1" d="M38.41,71.33c0,1.25-.94,2-2.43,2H34.85V74.9H33.56V69.3H36C37.47,69.3,38.41,70.08,38.41,71.33Zm-1.31,0c0-.61-.4-1-1.19-1H34.85V72.3h1.06C36.7,72.3,37.1,71.94,37.1,71.33Z"/><path class="cls-1" d="M43.72,72.44V74.9H42.47V72.63c0-.7-.32-1-.87-1s-1,.37-1,1.16V74.9H39.32V69h1.25v2.08a1.9,1.9,0,0,1,1.37-.52A1.69,1.69,0,0,1,43.72,72.44Z"/><path class="cls-1" d="M44.58,72.75A2.37,2.37,0,1,1,47,75,2.22,2.22,0,0,1,44.58,72.75Zm3.46,0a1.1,1.1,0,1,0-2.2,0,1.1,1.1,0,1,0,2.2,0Z"/><path class="cls-1" d="M52.91,74.69a1.71,1.71,0,0,1-1,.27,1.42,1.42,0,0,1-1.61-1.54V71.65h-.66v-1h.66v-1h1.25v1h1.07v1H51.54V73.4a.5.5,0,0,0,.53.57.82.82,0,0,0,.51-.16Z"/><path class="cls-1" d="M53.16,72.75A2.37,2.37,0,1,1,55.53,75,2.22,2.22,0,0,1,53.16,72.75Zm3.47,0a1.1,1.1,0,1,0-1.1,1.19A1.09,1.09,0,0,0,56.63,72.75Z"/><path class="cls-1" d="M58.31,74.5l.41-.9a3,3,0,0,0,1.5.42c.57,0,.79-.15.79-.39,0-.71-2.6,0-2.6-1.7,0-.82.74-1.4,2-1.4a3.57,3.57,0,0,1,1.66.38l-.42.89a2.47,2.47,0,0,0-1.24-.32c-.56,0-.8.17-.8.4,0,.73,2.6,0,2.6,1.72,0,.8-.74,1.36-2,1.36A3.72,3.72,0,0,1,58.31,74.5Z"/><path class="cls-1" d="M67.37,72.44V74.9H66.12V72.63c0-.7-.32-1-.87-1s-1,.37-1,1.16V74.9H63V69h1.25v2.08a1.86,1.86,0,0,1,1.37-.52A1.69,1.69,0,0,1,67.37,72.44Z"/><path class="cls-1" d="M68.23,72.75A2.37,2.37,0,1,1,70.59,75,2.21,2.21,0,0,1,68.23,72.75Zm3.46,0a1.1,1.1,0,1,0-1.1,1.19A1.08,1.08,0,0,0,71.69,72.75Z"/><path class="cls-1" d="M78.47,72.75A2.08,2.08,0,0,1,76.33,75a1.65,1.65,0,0,1-1.3-.52v2H73.79V70.6H75v.49a1.68,1.68,0,0,1,1.35-.56A2.09,2.09,0,0,1,78.47,72.75Zm-1.26,0a1.1,1.1,0,1,0-1.1,1.19A1.08,1.08,0,0,0,77.21,72.75Z"/><path class="cls-1" d="M81.31,72.1a3.08,3.08,0,0,1,5.34-1.9l-.83.77a1.79,1.79,0,0,0-1.41-.66,1.79,1.79,0,1,0,0,3.58,1.79,1.79,0,0,0,1.41-.66l.83.77a2.91,2.91,0,0,1-2.31,1A2.87,2.87,0,0,1,81.31,72.1Z"/><path class="cls-1" d="M87.05,72.1a3.08,3.08,0,0,1,5.34-1.9l-.83.77a1.79,1.79,0,0,0-1.41-.66,1.79,1.79,0,0,0,0,3.58,1.79,1.79,0,0,0,1.41-.66l.83.77a3.08,3.08,0,0,1-5.34-1.9Z"/><path class="cls-1" d="M33.56,91h1.29v5.6H33.56Z"/><path class="cls-1" d="M36.09,90.64h1.25v5.93H36.09Z"/><path class="cls-1" d="M38.5,90.64h1.25v5.93H38.5Z"/><path class="cls-1" d="M45.24,92.27v4.3H44.06v-.51a1.77,1.77,0,0,1-1.34.57,1.71,1.71,0,0,1-1.84-1.93V92.27h1.25v2.25c0,.71.32,1,.87,1s1-.36,1-1.15V92.27Z"/><path class="cls-1" d="M46,96.17l.41-.9a3,3,0,0,0,1.5.42c.57,0,.79-.15.79-.39,0-.7-2.6,0-2.6-1.7,0-.82.74-1.4,2-1.4a3.57,3.57,0,0,1,1.66.38l-.42.89a2.47,2.47,0,0,0-1.24-.32c-.56,0-.8.17-.8.4,0,.73,2.6,0,2.6,1.72,0,.8-.74,1.36-2,1.36A3.72,3.72,0,0,1,46,96.17Z"/><path class="cls-1" d="M53.43,96.36a1.77,1.77,0,0,1-1,.27,1.42,1.42,0,0,1-1.61-1.54V93.32h-.66v-1h.66v-1h1.25v1h1.07v1H52.05v1.76a.5.5,0,0,0,.54.56.79.79,0,0,0,.5-.16Z"/><path class="cls-1" d="M56.8,92.2v1.16l-.28,0a1.06,1.06,0,0,0-1.14,1.2v2H54.13v-4.3h1.19v.57A1.74,1.74,0,0,1,56.8,92.2Z"/><path class="cls-1" d="M61.33,94.12v2.45H60.16V96a1.39,1.39,0,0,1-1.31.6c-1,0-1.61-.56-1.61-1.3S57.78,94,59.09,94h1c0-.53-.32-.84-1-.84a2.07,2.07,0,0,0-1.24.4l-.45-.88a3.39,3.39,0,0,1,1.86-.52C60.57,92.2,61.33,92.81,61.33,94.12Zm-1.25,1.09v-.44h-.85c-.59,0-.77.22-.77.5s.26.52.7.52A.91.91,0,0,0,60.08,95.21Z"/><path class="cls-1" d="M65.23,96.36a1.71,1.71,0,0,1-1,.27,1.42,1.42,0,0,1-1.61-1.54V93.32H62v-1h.66v-1h1.25v1h1.07v1H63.86v1.76a.5.5,0,0,0,.53.56.82.82,0,0,0,.51-.16Z"/><path class="cls-1" d="M65.48,94.42a2.37,2.37,0,1,1,2.37,2.21A2.22,2.22,0,0,1,65.48,94.42Zm3.47,0a1.1,1.1,0,1,0-1.1,1.19A1.09,1.09,0,0,0,69,94.42Z"/><path class="cls-1" d="M73.71,92.2v1.16l-.28,0a1.06,1.06,0,0,0-1.14,1.2v2H71v-4.3h1.2v.57A1.71,1.71,0,0,1,73.71,92.2Z"/><path class="cls-1" d="M76.49,93.77a3.08,3.08,0,0,1,5.34-1.9l-.83.77A1.78,1.78,0,0,0,79.59,92a1.79,1.79,0,0,0,0,3.58A1.78,1.78,0,0,0,81,94.9l.83.77a3.08,3.08,0,0,1-5.34-1.9Z"/><path class="cls-1" d="M82.24,93.77a2.87,2.87,0,0,1,3-2.89,2.9,2.9,0,0,1,2.31,1l-.83.77A1.79,1.79,0,0,0,85.34,92a1.79,1.79,0,0,0,0,3.58,1.79,1.79,0,0,0,1.41-.66l.83.77a2.91,2.91,0,0,1-2.31,1A2.87,2.87,0,0,1,82.24,93.77Z"/><path class="cls-1" d="M37.34,115.35h1.18v2.27a3.8,3.8,0,0,1-2.26.72,2.9,2.9,0,1,1,0-5.79,2.94,2.94,0,0,1,2.34,1l-.83.76a1.88,1.88,0,0,0-1.44-.63,1.79,1.79,0,1,0,0,3.58,2,2,0,0,0,1-.24Z"/><path class="cls-1" d="M43.44,115.79v2.45H42.27v-.53a1.41,1.41,0,0,1-1.31.59c-1,0-1.6-.55-1.6-1.3s.53-1.29,1.84-1.29h1c0-.53-.31-.84-1-.84a2.09,2.09,0,0,0-1.24.4l-.44-.88a3.33,3.33,0,0,1,1.85-.52C42.68,113.87,43.44,114.48,43.44,115.79Zm-1.25,1.09v-.44h-.85c-.59,0-.77.22-.77.51s.26.52.71.52A.92.92,0,0,0,42.19,116.88Z"/><path class="cls-1" d="M51.84,115.78v2.46H50.59V116c0-.7-.31-1-.81-1s-1,.36-1,1.13v2.16H47.58V116c0-.7-.3-1-.82-1s-.94.36-.94,1.13v2.16H44.57v-4.3h1.19v.49a1.77,1.77,0,0,1,1.35-.56,1.62,1.62,0,0,1,1.42.71,1.93,1.93,0,0,1,1.55-.71A1.67,1.67,0,0,1,51.84,115.78Z"/><path class="cls-1" d="M57.2,116.44H54a1.14,1.14,0,0,0,1.23.87,1.48,1.48,0,0,0,1.08-.42l.66.72a2.27,2.27,0,0,1-1.77.69,2.23,2.23,0,0,1-2.46-2.21,2.2,2.2,0,0,1,2.3-2.22,2.14,2.14,0,0,1,2.24,2.24C57.23,116.2,57.21,116.34,57.2,116.44Zm-3.27-.73h2.12a1.08,1.08,0,0,0-2.12,0Z"/><path class="cls-1" d="M63.24,118.24v-3.36l-1.64,2.77H61L59.36,115v3.29H58.15v-5.6h1.07l2.09,3.48,2.07-3.48h1.06l0,5.6Z"/><path class="cls-1" d="M69.51,115.79v2.45H68.34v-.53a1.41,1.41,0,0,1-1.31.59c-1,0-1.61-.55-1.61-1.3s.54-1.29,1.85-1.29h1c0-.53-.32-.84-1-.84a2,2,0,0,0-1.24.4l-.45-.88a3.35,3.35,0,0,1,1.85-.52C68.75,113.87,69.51,114.48,69.51,115.79Zm-1.25,1.09v-.44H67.4c-.58,0-.76.22-.76.51s.26.52.7.52A.94.94,0,0,0,68.26,116.88Z"/><path class="cls-1" d="M72.48,116.55l-.6.6v1.09H70.64v-5.93h1.24v3.36l1.83-1.73h1.48l-1.79,1.82,1.95,2.48H73.84Z"/><path class="cls-1" d="M79.92,116.44H76.67a1.14,1.14,0,0,0,1.23.87,1.48,1.48,0,0,0,1.08-.42l.66.72a2.27,2.27,0,0,1-1.77.69,2.23,2.23,0,0,1-2.46-2.21,2.2,2.2,0,0,1,2.3-2.22A2.14,2.14,0,0,1,80,116.11C80,116.2,79.93,116.34,79.92,116.44Zm-3.27-.73h2.12a1.08,1.08,0,0,0-2.12,0Z"/><path class="cls-1" d="M83.45,113.87V115l-.28,0a1.06,1.06,0,0,0-1.14,1.2v2H80.78v-4.3H82v.57A1.74,1.74,0,0,1,83.45,113.87Z"/><path class="cls-1" d="M38.69,138.38c0,1-.77,1.53-2.24,1.53H33.56v-5.6h2.73c1.4,0,2.12.59,2.12,1.46a1.35,1.35,0,0,1-.74,1.23A1.38,1.38,0,0,1,38.69,138.38Zm-3.85-3.09v1.32h1.29c.63,0,1-.22,1-.66s-.35-.66-1-.66Zm2.55,3c0-.47-.36-.7-1-.7H34.84v1.39h1.51C37,138.94,37.39,138.73,37.39,138.25Z"/><path class="cls-1" d="M39.59,134h1.24v5.93H39.59Z"/><path class="cls-1" d="M46.19,138.11H42.93a1.15,1.15,0,0,0,1.23.87,1.45,1.45,0,0,0,1.08-.42l.67.72a2.51,2.51,0,0,1-4.23-1.52A2.18,2.18,0,0,1,44,135.55a2.13,2.13,0,0,1,2.24,2.23C46.21,137.87,46.19,138,46.19,138.11Zm-3.27-.72H45a1.07,1.07,0,0,0-2.11,0Z"/><path class="cls-1" d="M51.44,137.45v2.46H50.19v-2.27c0-.69-.32-1-.87-1s-1,.36-1,1.15v2.13H47v-4.3h1.2v.5a1.88,1.88,0,0,1,1.42-.56A1.68,1.68,0,0,1,51.44,137.45Z"/><path class="cls-1" d="M57,134v5.93H55.81v-.49a1.67,1.67,0,0,1-1.34.56,2.22,2.22,0,0,1,0-4.43,1.62,1.62,0,0,1,1.28.52V134Zm-1.22,3.78a1.1,1.1,0,1,0-1.1,1.19A1.09,1.09,0,0,0,55.78,137.76Z"/><path class="cls-1" d="M62.34,138.11H59.09a1.15,1.15,0,0,0,1.23.87,1.45,1.45,0,0,0,1.08-.42l.66.72a2.21,2.21,0,0,1-1.77.7,2.24,2.24,0,0,1-2.46-2.22,2.19,2.19,0,0,1,2.3-2.21,2.13,2.13,0,0,1,2.24,2.23C62.37,137.87,62.35,138,62.34,138.11Zm-3.27-.72h2.12a1,1,0,0,0-1-.9A1,1,0,0,0,59.07,137.39Z"/><path class="cls-1" d="M65.87,135.55v1.15l-.28,0a1.06,1.06,0,0,0-1.14,1.2v2H63.2v-4.3h1.19v.57A1.74,1.74,0,0,1,65.87,135.55Z"/><path class="cls-1" d="M33.48,150.72a6.75,6.75,0,0,1,1-3.74h1.19a7.7,7.7,0,0,0,0,7.48H34.48A6.78,6.78,0,0,1,33.48,150.72Z"/><path class="cls-1" d="M43.59,150.45v2.46H42.34v-2.27c0-.69-.31-1-.81-1s-1,.36-1,1.12v2.16H39.33v-2.27c0-.69-.3-1-.82-1s-.94.36-.94,1.12v2.16H36.32v-4.3h1.2v.5a1.71,1.71,0,0,1,1.35-.56,1.59,1.59,0,0,1,1.41.7,2,2,0,0,1,1.55-.7A1.66,1.66,0,0,1,43.59,150.45Z"/><path class="cls-1" d="M44.44,150.76A2.37,2.37,0,1,1,46.81,153,2.22,2.22,0,0,1,44.44,150.76Zm3.47,0a1.1,1.1,0,1,0-1.1,1.19A1.09,1.09,0,0,0,47.91,150.76Z"/><path class="cls-1" d="M54.38,147v5.93H53.19v-.49a1.66,1.66,0,0,1-1.34.56,2.22,2.22,0,0,1,0-4.43,1.63,1.63,0,0,1,1.29.52V147Zm-1.22,3.78A1.1,1.1,0,1,0,52.07,152,1.09,1.09,0,0,0,53.16,150.76Z"/><path class="cls-1" d="M59.73,151.11H56.48a1.14,1.14,0,0,0,1.23.87,1.48,1.48,0,0,0,1.08-.42l.66.72a2.51,2.51,0,0,1-4.23-1.52,2.18,2.18,0,0,1,2.29-2.21,2.12,2.12,0,0,1,2.24,2.23C59.75,150.87,59.74,151,59.73,151.11Zm-3.27-.72h2.12a1.07,1.07,0,0,0-2.12,0Zm1.28-2.33h-1l1.08-1.15h1.35Z"/><path class="cls-1" d="M60.59,147h1.24v5.93H60.59Z"/><path class="cls-1" d="M62.84,147.31a.72.72,0,0,1,.78-.69.71.71,0,0,1,.78.67.78.78,0,0,1-1.56,0Zm.16,1.3h1.24v4.3H63Z"/><path class="cls-1" d="M65,152.51l.41-.89a3,3,0,0,0,1.5.41c.57,0,.79-.15.79-.39,0-.7-2.6,0-2.6-1.7,0-.82.74-1.39,2-1.39a3.57,3.57,0,0,1,1.66.37l-.42.89a2.47,2.47,0,0,0-1.24-.32c-.56,0-.8.18-.8.4,0,.73,2.6,0,2.6,1.72,0,.8-.74,1.37-2,1.37A3.61,3.61,0,0,1,65,152.51Z"/><path class="cls-1" d="M73.46,150.46v2.45H72.29v-.53A1.41,1.41,0,0,1,71,153c-1,0-1.61-.56-1.61-1.31s.54-1.28,1.85-1.28h1c0-.54-.32-.85-1-.85a2,2,0,0,0-1.24.4l-.45-.87a3.28,3.28,0,0,1,1.86-.52C72.7,148.55,73.46,149.15,73.46,150.46Zm-1.25,1.09v-.44h-.85c-.59,0-.77.22-.77.51s.26.52.7.52A.92.92,0,0,0,72.21,151.55Z"/><path class="cls-1" d="M77.36,152.7a1.72,1.72,0,0,1-1,.28,1.42,1.42,0,0,1-1.61-1.55v-1.76h-.66v-1h.66v-1.05H76v1.05h1.07v1H76v1.75a.5.5,0,0,0,.53.56.82.82,0,0,0,.51-.16Z"/><path class="cls-1" d="M77.92,147.31a.78.78,0,0,1,1.55,0,.78.78,0,0,1-1.55,0Zm.15,1.3h1.25v4.3H78.07Z"/><path class="cls-1" d="M80.16,150.76A2.36,2.36,0,1,1,82.52,153,2.21,2.21,0,0,1,80.16,150.76Zm3.46,0a1.1,1.1,0,1,0-1.1,1.19A1.09,1.09,0,0,0,83.62,150.76Z"/><path class="cls-1" d="M90.11,150.45v2.46H88.87v-2.27c0-.69-.32-1-.87-1s-1,.36-1,1.15v2.13H85.72v-4.3h1.19v.5a1.9,1.9,0,0,1,1.42-.56A1.68,1.68,0,0,1,90.11,150.45Z"/><path class="cls-1" d="M90.75,154.46a7.7,7.7,0,0,0,0-7.48h1.19a7.43,7.43,0,0,1,0,7.48Z"/><polygon class="cls-2" points="102.45 2.28 102.45 5.32 102.45 10.86 102.45 13.89 102.45 16.43 263.69 16.43 263.69 2.28 261.15 2.28 102.45 2.28"/><rect class="cls-3" x="100.35" width="161.24" height="14.15"/><rect class="cls-4" x="100.35" width="158.7" height="11.61"/><rect class="cls-5" x="100.35" y="8.57" width="158.7" height="3.03"/><rect class="cls-6" x="100.35" width="158.7" height="3.03"/><rect class="cls-7" x="105.07" y="3.03" width="147.64" height="5.54"/><rect class="cls-8" x="105.07" y="3.03" width="125.71" height="5.54"/><rect class="cls-9" x="230.78" y="3.03" width="3.79" height="5.54" transform="translate(465.35 11.61) rotate(180)"/><polygon class="cls-2" points="102.45 23.6 102.45 26.64 102.45 32.18 102.45 35.21 102.45 37.75 263.69 37.75 263.69 23.6 261.15 23.6 102.45 23.6"/><rect class="cls-3" x="100.35" y="21.32" width="161.24" height="14.15"/><rect class="cls-4" x="100.35" y="21.32" width="158.7" height="11.61"/><rect class="cls-5" x="100.35" y="29.89" width="158.7" height="3.03"/><rect class="cls-6" x="100.35" y="21.32" width="158.7" height="3.03"/><rect class="cls-7" x="105.07" y="24.35" width="147.64" height="5.54"/><rect class="cls-8" x="105.07" y="24.35" width="119.21" height="5.54"/><rect class="cls-9" x="224.28" y="24.35" width="3.86" height="5.54" transform="translate(452.41 54.25) rotate(180)"/><polygon class="cls-2" points="102.45 44.92 102.45 47.96 102.45 53.5 102.45 56.53 102.45 59.07 263.69 59.07 263.69 44.92 261.15 44.92 102.45 44.92"/><rect class="cls-3" x="100.35" y="42.64" width="161.24" height="14.15"/><rect class="cls-4" x="100.35" y="42.64" width="158.7" height="11.61"/><rect class="cls-5" x="100.35" y="51.21" width="158.7" height="3.03"/><rect class="cls-6" x="100.35" y="42.64" width="158.7" height="3.03"/><rect class="cls-7" x="105.07" y="45.68" width="147.64" height="5.54"/><rect class="cls-8" x="105.07" y="45.68" width="89.22" height="5.54"/><rect class="cls-9" x="194.29" y="45.68" width="4.45" height="5.54" transform="translate(393.02 96.89) rotate(180)"/><polygon class="cls-2" points="102.45 66.25 102.45 69.28 102.45 74.82 102.45 77.85 102.45 80.39 263.69 80.39 263.69 66.25 261.15 66.25 102.45 66.25"/><rect class="cls-3" x="100.35" y="63.96" width="161.24" height="14.15"/><rect class="cls-4" x="100.35" y="63.96" width="158.7" height="11.61"/><rect class="cls-5" x="100.35" y="72.54" width="158.7" height="3.03"/><rect class="cls-6" x="100.35" y="63.96" width="158.7" height="3.03"/><rect class="cls-7" x="105.07" y="67" width="147.64" height="5.54"/><rect class="cls-8" x="105.07" y="67" width="110.61" height="5.54"/><rect class="cls-9" x="215.68" y="67" width="3.52" height="5.54" transform="translate(434.87 139.53) rotate(180)"/><polygon class="cls-2" points="102.45 87.57 102.45 90.6 102.45 96.14 102.45 99.17 102.45 101.71 263.69 101.71 263.69 87.57 261.15 87.57 102.45 87.57"/><rect class="cls-3" x="100.35" y="85.28" width="161.24" height="14.15"/><rect class="cls-4" x="100.35" y="85.28" width="158.7" height="11.61"/><rect class="cls-5" x="100.35" y="93.86" width="158.7" height="3.03"/><rect class="cls-6" x="100.35" y="85.28" width="158.7" height="3.03"/><rect class="cls-7" x="105.07" y="88.32" width="147.64" height="5.54"/><rect class="cls-8" x="105.07" y="88.32" width="73.82" height="5.54"/><rect class="cls-9" x="178.89" y="88.32" width="3.68" height="5.54" transform="translate(361.45 182.17) rotate(180)"/><polygon class="cls-2" points="102.45 108.89 102.45 111.92 102.45 117.46 102.45 120.49 102.45 123.03 263.69 123.03 263.69 108.89 261.15 108.89 102.45 108.89"/><rect class="cls-3" x="100.35" y="106.61" width="161.24" height="14.15"/><rect class="cls-4" x="100.35" y="106.61" width="158.7" height="11.61"/><rect class="cls-5" x="100.35" y="115.18" width="158.7" height="3.03"/><rect class="cls-6" x="100.35" y="106.61" width="158.7" height="3.03"/><rect class="cls-7" x="105.07" y="109.64" width="147.64" height="5.54"/><rect class="cls-8" x="105.07" y="109.64" width="124.24" height="5.54"/><rect class="cls-9" x="229.31" y="109.64" width="3.39" height="5.54" transform="translate(462.01 224.82) rotate(180)"/><polygon class="cls-2" points="102.45 130.21 102.45 133.24 102.45 138.78 102.45 141.81 102.45 144.35 263.69 144.35 263.69 130.21 261.15 130.21 102.45 130.21"/><rect class="cls-3" x="100.35" y="127.93" width="161.24" height="14.15"/><rect class="cls-4" x="100.35" y="127.93" width="158.7" height="11.61"/><rect class="cls-5" x="100.35" y="136.5" width="158.7" height="3.03"/><rect class="cls-6" x="100.35" y="127.93" width="158.7" height="3.03"/><rect class="cls-7" x="105.07" y="130.96" width="147.64" height="5.54"/><rect class="cls-8" x="105.07" y="130.96" width="48.88" height="5.54"/><rect class="cls-9" x="153.82" y="130.96" width="3.96" height="5.54" transform="translate(311.6 267.46) rotate(180)"/><path class="cls-10" d="M1.82,26.05v-.91H.91v-.91H0V20.59H.91v-.91h.91v-.91H5.45v.91h.91v.91H4.55v-.91H2.73v.91H1.82v3.64h.91v.91H4.55v-.91H6.36v.91H5.45v.91Z"/><path class="cls-10" d="M.91,36.55v-.91H0V32.91H.91V32H5.45v.91h.91v2.73H5.45v.91Zm3.64-.91V32.91H1.82v2.73Z"/><path class="cls-10" d="M0,47.05V42.5H5.45v.91h.91v3.64H4.55V43.41H3.63v3.64h-.9V43.41H1.82v3.64Z"/><path class="cls-10" d="M0,60.27V53H5.45v.91h.91v2.73H5.45v.91H1.82v2.72Zm4.55-3.63V53.91H1.82v2.73Z"/><path class="cls-10" d="M.91,68.05v-.91H0V64.41H.91V63.5H5.45v.91h.91v1.82H1.82v.91H5.45v.91Zm3.64-2.73v-.91H1.82v.91ZM2.27,62.59v-.91h.91v-.91H5v.91H4.09v.91Z"/><path class="cls-10" d="M2.73,78.55v-.91H1.82V74.91H.91V74h.91V71.27H3.64V74H5.46v.91H3.64v2.73H5.46v.91Z"/><path class="cls-10" d="M.91,89.05v-.91H0V85.41H.91V84.5H5.45v.91h.91v1.82H1.82v.91H5.45v.91Zm3.64-2.73v-.91H1.82v.91Z"/><path class="cls-10" d="M0,99.55V95H5.45v.91h.91v3.64H4.55V95.91H1.82v3.64Z"/><path class="cls-10" d="M.91,110.05v-.91H0v-2.73H.91v-.91H5.45v.91h.91v.91H4.55v-.91H1.82v2.73H4.55v-.91H6.36v.91H5.45v.91Z"/><path class="cls-10" d="M.91,120.55v-.91H0v-2.73H.91V116H5.45v.91h.91v1.82H1.82v.91H5.45v.91Zm3.64-2.73v-.91H1.82v.91Z"/><path class="cls-10" d="M0,131.05v-.91H4.55v-.91H.91v-.91H0v-.91H.91v-.91H5.45v.91H1.82v.91H5.45v.91h.91v.91H5.45v.91Z"/><line class="cls-11" x1="15.5" y1="3.54" x2="15.5" y2="152.16"/></g></g></svg>