<svg xmlns="http://www.w3.org/2000/svg" viewBox="0 0 126.94 61.08"><defs><style>.cls-1{fill:#2e5e94;}.cls-2{fill:#4a80c1;}.cls-3{fill:#c27526;}.cls-4{fill:#5e97d1;}.cls-5{fill:#fff9e8;}</style></defs><g id="Calque_2" data-name="Calque 2"><g id="header"><rect class="cls-1" x="118.57" y="52.43" width="8.37" height="8.65"/><rect class="cls-1" width="118.57" height="52.43"/><rect class="cls-2" width="114.79" height="48.65"/><rect class="cls-3" x="118.57" y="52.43" width="4.52" height="4.52"/><rect class="cls-1" x="118.57" y="38.68" width="4.52" height="13.75"/><rect class="cls-1" x="104.35" y="52.43" width="14.23" height="4.52"/><rect class="cls-4" width="114.79" height="4.52"/><rect class="cls-2" x="104.35" y="38.68" width="14.23" height="13.75"/><rect class="cls-2" x="118.57" y="52.43" width="6.39" height="6.17"/><path class="cls-5" d="M8.57,19.91V14.82h.64v.64h.64v.63h.63v.64h.64v-.64h.64v-.63h.63v-.64H13v5.09H11.76V17.36h-.64V18h-.64v-.64H9.85v2.55Z"/><path class="cls-5" d="M14.62,19.91v-.64H14v-.63h.64V18h2.55v-.64H14.62v-.63H17.8v.63h.64v2.55Zm2.55-.64v-.63H15.26v.63Z"/><path class="cls-5" d="M19.39,19.91V16.73h1.28v.63h.63V18h-.63v1.91Zm1.91-2.55v-.63h1.91v.63Z"/><path class="cls-5" d="M25.44,19.91v-.64H24.8V17.36h-.64v-.63h.64V14.82h1.27v1.91h1.28v.63H26.07v1.91h1.28v.64Z"/><path class="cls-5" d="M28.3,16.09V14.82h1.27v1.27Zm0,3.82V16.73h1.27v3.18Z"/><path class="cls-5" d="M30.53,19.91V16.73h3.81v.63H35v2.55H33.71V17.36H31.8v2.55Z"/><path class="cls-5" d="M35.93,19.27V15.46h.64v3.81Zm.64-3.81v-.64h3.18v.64Zm0,4.45v-.64h3.18v.64Zm.64-1.27V16.09h1.91V18h.63V15.46h.64v3.18ZM38.48,18V16.73h-.64V18Z"/><path class="cls-5" d="M42,20.54v-.63h-.64v-.64h1.28v.64h.63V16.73h1.28v3.18h-.64v.63Zm1.27-4.45V14.82h1.28v1.27Z"/><path class="cls-5" d="M46.12,19.91v-.64h-.64V17.36h.64v-.63H49.3v.63h.63v1.91H49.3v.64Zm2.54-.64V17.36H46.75v1.91Z"/><path class="cls-5" d="M50.89,19.91V14.82h1.27v1.91h2.55v.63h.63v2.55H54.07V17.36H52.16v2.55Z"/><path class="cls-5" d="M56.3,19.91V16.73h3.82v.63h.63v2.55H59.48V17.36H57.57v2.55Z"/><path class="cls-5" d="M61.71,19.91v-.64h3.18v-.63H62.34V18h-.63v-.64h.63v-.63h3.18v.63H63V18h2.54v.64h.64v.63h-.64v.64Z"/><path class="cls-5" d="M67.75,19.91v-.64h-.63V17.36h.63v-.63h3.18v.63h.64v1.91h-.64v.64Zm2.55-.64V17.36H68.39v1.91Z"/><path class="cls-5" d="M72.52,19.91V16.73h3.82v.63H77v2.55H75.71V17.36H73.8v2.55Z"/><path class="cls-5" d="M77.93,19.91V18.64h1.28v1.27Z"/><path class="cls-5" d="M80.8,19.91v-.64h-.64V17.36h.64v-.63H84v.63h.63V18H83.34v-.64H81.43v1.91h1.91v-.63h1.27v.63H84v.64Z"/><path class="cls-5" d="M86.21,19.91v-.64h-.64V17.36h.64v-.63h3.18v.63H90v1.91h-.63v.64Zm2.54-.64V17.36H86.84v1.91Z"/><path class="cls-5" d="M91,19.91V16.73H94.8v.63h.63v2.55H94.16V17.36h-.64v2.55h-.63V17.36h-.64v2.55Z"/><path class="cls-5" d="M9.21,36.08v-.63H8.57V32.9H9.85v2.55h.63v.63Zm1.27-.63V32.9h.64v2.55Zm.64.63v-.63h.64V32.9H13v2.55h-.64v.63Z"/><path class="cls-5" d="M14.62,36.08v-.63H14V32.9h1.28v2.55h.63v.63Zm1.27-.63V32.9h.64v2.55Zm.64.63v-.63h.64V32.9h1.27v2.55H17.8v.63Z"/><path class="cls-5" d="M20,36.08v-.63h-.64V32.9h1.28v2.55h.63v.63Zm1.27-.63V32.9h.64v2.55Zm.64.63v-.63h.63V32.9h1.28v2.55h-.64v.63Z"/><path class="cls-5" d="M24.8,36.08V34.81h1.27v1.27Z"/><path class="cls-5" d="M27.66,38v-.64h2.55V36.08H27.66v-.63H27V33.54h.63V32.9h3.82v4.45h-.63V38Zm2.55-2.54V33.54H28.3v1.91Z"/><path class="cls-5" d="M33.07,36.08v-.63h-.63v-.64h.63v-.64h2.55v-.63H33.07V32.9h3.18v.64h.64v2.54Zm2.55-.63v-.64H33.71v.64Z"/><path class="cls-5" d="M37.85,36.08V32.9h3.81v.64h.64v2.54H41V33.54h-.64v2.54h-.64V33.54h-.63v2.54Z"/><path class="cls-5" d="M43.89,36.08v-.63h-.64V33.54h.64V32.9h3.18v.64h.64v1.27H44.53v.64h2.54v.63Zm2.55-1.91v-.63H44.53v.63Z"/><path class="cls-5" d="M48.66,36.08V31h1.28V32.9h2.54v.64h.64v1.91h-.64v.63Zm3.19-.63V33.54H49.94v1.91Z"/><path class="cls-5" d="M54.71,38v-.64h2.54V36.08H54.71v-.63h-.64V32.9h1.28v2.55h1.9V32.9h1.28v4.45h-.64V38Z"/><path class="cls-5" d="M59.48,36.08V32.9H63.3v.64h.64v2.54H62.66V33.54H62v2.54h-.64V33.54h-.64v2.54Z"/><path class="cls-5" d="M65.53,36.08v-.63h-.64v-.64h.64v-.64h2.54v-.63H65.53V32.9h3.18v.64h.63v2.54Zm2.54-.63v-.64H66.16v.64Z"/><path class="cls-5" d="M70.3,36.08V32.9h1.27v.64h.64v.63h-.64v1.91Zm1.91-2.54V32.9h1.91v.64Z"/><path class="cls-5" d="M76.34,36.08v-.63h-.63V33.54h-.64V32.9h.64V31H77V32.9h1.27v.64H77v1.91h1.27v.63Z"/><path class="cls-5" d="M79.21,32.27V31h1.27v1.28Zm0,3.81V32.9h1.27v3.18Z"/><path class="cls-5" d="M81.43,36.08V32.9h3.82v.64h.64v2.54H84.62V33.54H82.71v2.54Z"/><path class="cls-5" d="M86.84,36.08V34.81h1.28v1.27Z"/><path class="cls-5" d="M89.71,36.08v-.63h-.64V33.54h.64V32.9h3.18v.64h.63v.63H92.25v-.63H90.34v1.91h1.91v-.64h1.27v.64h-.63v.63Z"/><path class="cls-5" d="M95.11,36.08v-.63h-.63V33.54h.63V32.9H98.3v.64h.63v1.91H98.3v.63Zm2.55-.63V33.54H95.75v1.91Z"/><path class="cls-5" d="M99.89,36.08V32.9h3.81v.64h.64v2.54h-1.27V33.54h-.64v2.54h-.63V33.54h-.64v2.54Z"/></g></g></svg>