<svg xmlns="http://www.w3.org/2000/svg" viewBox="0 0 235.64 224.25"><defs><style>.cls-1,.cls-31{font-size:60px;letter-spacing:-0.01em;}.cls-1{fill:#964128;}.cls-1,.cls-2,.cls-31{font-family:RetroGaming, Retro Gaming;}.cls-2{font-size:8px;fill:#575751;}.cls-13,.cls-14,.cls-15,.cls-16,.cls-17,.cls-18,.cls-19,.cls-3,.cls-4,.cls-5{font-family:Montserrat-Light, Montserrat;font-weight:300;}.cls-10,.cls-4{letter-spacing:0em;}.cls-5{letter-spacing:0em;}.cls-6{font-family:Montserrat-Bold, Montserrat;font-weight:700;}.cls-7{letter-spacing:0.01em;}.cls-18,.cls-8{letter-spacing:-0.01em;}.cls-14,.cls-9{letter-spacing:-0.01em;}.cls-11{letter-spacing:0em;}.cls-12{letter-spacing:0em;}.cls-13{letter-spacing:-0.01em;}.cls-15,.cls-27{letter-spacing:0em;}.cls-16{letter-spacing:-0.01em;}.cls-17,.cls-25{letter-spacing:-0.02em;}.cls-19{letter-spacing:0em;}.cls-20{letter-spacing:-0.05em;}.cls-21{letter-spacing:-0.01em;}.cls-22{letter-spacing:0.01em;}.cls-23{letter-spacing:-0.01em;}.cls-24{letter-spacing:-0.02em;}.cls-26{letter-spacing:-0.01em;}.cls-28{letter-spacing:0em;}.cls-29{letter-spacing:0em;}.cls-30{letter-spacing:-0.01em;}.cls-31{fill:#e25f3f;}.cls-32{fill:#bead93;}.cls-33{fill:#b09b7e;}.cls-34{fill:#917958;}.cls-35{fill:#5d4f39;}.cls-36{fill:#7e694c;}.cls-37{fill:#f7d535;}.cls-38{fill:#7f501f;}.cls-39{fill:#d4b430;}.cls-40{fill:#8a8b91;}.cls-41{fill:#7a7983;}.cls-42{fill:#ebe7de;}.cls-43{fill:#adadb3;}.cls-44{fill:#3e3e42;}.cls-45{fill:#e67854;}</style></defs><g id="Calque_2" data-name="Calque 2"><g id="formation_etudes" data-name="formation + etudes"><text class="cls-1" transform="translate(21.41 141.18)">3</text><text class="cls-1" transform="translate(21.41 207.89)">2</text><text class="cls-2" transform="translate(73.69 102.08)">mois<tspan class="cls-3" x="21.09" y="0" xml:space="preserve"> de st</tspan><tspan class="cls-4" x="42.39" y="0">a</tspan><tspan class="cls-3" x="47.06" y="0">ge ga</tspan><tspan class="cls-4" x="69.47" y="0">m</tspan><tspan class="cls-5" x="77.98" y="0">e design</tspan><tspan class="cls-6"><tspan x="0" y="13">UBISO</tspan><tspan class="cls-7" x="26.9" y="13">F</tspan><tspan x="32.06" y="13">T Bo</tspan><tspan class="cls-8" x="50.62" y="13">r</tspan><tspan x="54" y="13">d</tspan><tspan class="cls-9" x="59.54" y="13">e</tspan><tspan x="64.46" y="13">aux</tspan></tspan><tspan class="cls-3"><tspan x="0" y="26">Juin à </tspan><tspan class="cls-10" x="25.53" y="26">a</tspan><tspan x="30.2" y="26">out </tspan><tspan class="cls-11" x="45.75" y="26">2</tspan><tspan class="cls-12" x="50.22" y="26">0</tspan><tspan x="55.48" y="26">19</tspan></tspan></text><text class="cls-2" transform="translate(73.69 168.79)">ans<tspan class="cls-3" x="18.54" y="0" xml:space="preserve"> d</tspan><tspan class="cls-13" x="26" y="0">é</tspan><tspan class="cls-14" x="30.7" y="0">v</tspan><tspan class="cls-15" x="34.8" y="0">eloppeur a</tspan><tspan class="cls-16" x="77.42" y="0">l</tspan><tspan class="cls-17" x="79.46" y="0">t</tspan><tspan class="cls-3" x="82.49" y="0">e</tspan><tspan class="cls-18" x="87.26" y="0">r</tspan><tspan class="cls-3" x="90.34" y="0">na</tspan><tspan class="cls-19" x="100.39" y="0">n</tspan><tspan class="cls-18" x="105.78" y="0">c</tspan><tspan class="cls-5" x="110.15" y="0">e</tspan><tspan class="cls-6"><tspan class="cls-20" x="0" y="13">W</tspan><tspan x="8.86" y="13">e</tspan><tspan class="cls-21" x="13.91" y="13">b</tspan><tspan class="cls-22" x="19.36" y="13">a</tspan><tspan x="24.34" y="13">ge</tspan><tspan class="cls-22" x="34.99" y="13">n</tspan><tspan class="cls-23" x="40.57" y="13">c</tspan><tspan x="45.23" y="13">y Bo</tspan><tspan class="cls-21" x="63.64" y="13">r</tspan><tspan x="67.02" y="13">d</tspan><tspan class="cls-24" x="72.55" y="13">e</tspan><tspan x="77.48" y="13">aux</tspan></tspan><tspan class="cls-3"><tspan x="0" y="26">De sep</tspan><tspan class="cls-25" x="27.44" y="26">t</tspan><tspan x="30.47" y="26">emb</tspan><tspan class="cls-26" x="49.16" y="26">r</tspan><tspan class="cls-27" x="52.2" y="26">e </tspan><tspan class="cls-28" x="59.03" y="26">2</tspan><tspan class="cls-29" x="63.5" y="26">0</tspan><tspan x="68.76" y="26">17 à sep</tspan><tspan class="cls-25" x="99.01" y="26">t</tspan><tspan class="cls-27" x="102.04" y="26">emb</tspan><tspan class="cls-30" x="120.73" y="26">r</tspan><tspan x="123.77" y="26">e </tspan><tspan class="cls-11" x="130.6" y="26">2</tspan><tspan class="cls-29" x="135.07" y="26">0</tspan><tspan x="140.33" y="26">19</tspan></tspan></text><text class="cls-31" transform="translate(23.93 138.31)">3</text><text class="cls-31" transform="translate(23.93 205.02)">2</text><path class="cls-32" d="M122.57,16.11V12.24h2V6.85h-5.39v.59H114V2.51h-5v.72H98.15V2.51h-5V7.44H88.5V6.85H83.11v5.39h.52V30.31h-.52V35.7H88.5V33.87h30.63V35.7h5.39V30.31h-2V16.11ZM98.15,5H109V7.44H98.15Z" transform="translate(21.41 38.24)"/><rect class="cls-33" x="102.64" y="43.17" width="38.94" height="26.42"/><rect class="cls-34" x="106.09" y="46.61" width="32.05" height="19.41"/><rect class="cls-35" x="102.64" y="51.83" width="38.94" height="0.98"/><rect class="cls-36" x="106.09" y="59.31" width="32.05" height="0.98"/><rect class="cls-36" x="106.09" y="46.61" width="32.05" height="2.69"/><rect class="cls-36" x="119.99" y="50.65" width="4.25" height="6.54"/><rect class="cls-37" x="119.99" y="49.21" width="4.25" height="6.54"/><rect class="cls-38" x="121.53" y="51.1" width="1.17" height="2.77"/><rect class="cls-39" x="119.99" y="54.63" width="4.25" height="1.12"/><rect class="cls-34" x="102.64" y="47.96" width="3.45" height="1.35"/><rect class="cls-40" x="102.12" y="42.57" width="5.39" height="5.39"/><rect class="cls-41" x="102.12" y="46.61" width="5.39" height="1.35"/><rect class="cls-41" x="104.43" y="44.88" width="1.74" height="1.74"/><rect class="cls-42" x="103.95" y="44.4" width="1.74" height="1.74"/><rect class="cls-40" x="138.14" y="42.57" width="5.39" height="5.39"/><rect class="cls-41" x="138.14" y="46.61" width="5.39" height="1.35"/><rect class="cls-41" x="140.45" y="44.88" width="1.74" height="1.74"/><rect class="cls-42" x="139.96" y="44.4" width="1.74" height="1.74"/><rect class="cls-40" x="102.12" y="66.03" width="5.39" height="5.39"/><rect class="cls-41" x="102.12" y="70.07" width="5.39" height="1.35"/><rect class="cls-41" x="104.43" y="68.34" width="1.74" height="1.74"/><rect class="cls-42" x="103.95" y="67.85" width="1.74" height="1.74"/><rect class="cls-40" x="138.14" y="66.03" width="5.39" height="5.39"/><rect class="cls-41" x="138.14" y="70.07" width="5.39" height="1.35"/><rect class="cls-41" x="140.45" y="68.34" width="1.74" height="1.74"/><rect class="cls-42" x="139.96" y="67.85" width="1.74" height="1.74"/><rect class="cls-43" x="112.18" y="38.24" width="4.98" height="4.98"/><rect class="cls-43" x="128.02" y="38.24" width="4.98" height="4.98"/><rect class="cls-44" x="117.16" y="38.96" width="10.86" height="1.77"/><line class="cls-45" y2="205.32"/></g></g></svg>