<svg xmlns="http://www.w3.org/2000/svg" viewBox="0 0 595.28 841.89"><defs><style>.cls-1{fill:#fafaea;}.cls-2{fill:#fff;}.cls-3{opacity:0.55;}.cls-4{fill:#f4efde;}</style></defs><g id="Calque_2" data-name="Calque 2"><g id="Calque_11" data-name="Calque 11"><polygon class="cls-1" points="0 0 0 841.89 1.31 841.89 1.31 0.57 1.31 0 0 0"/><polygon class="cls-1" points="595.04 1.66 1.31 0.57 1.31 841.89 563.66 841.89 593.96 841.78 595.04 1.66"/><polygon class="cls-1" points="1.31 0 1.31 0.57 595.04 1.66 593.96 841.78 563.66 841.89 595.28 841.89 595.28 0 1.31 0"/><polygon class="cls-2" points="1.31 0.57 1.31 142.97 177.3 142.97 177.3 120.52 431.66 120.52 431.66 142.97 594.86 142.97 595.04 1.66 1.31 0.57"/><g class="cls-3"><path class="cls-4" d="M1.31,313.85V591c197.67,95.41,395.33-141.4,593-46.33q.15-92.32.3-184.61C396.84,233.79,199.08,440.1,1.31,313.85Z"/></g></g></g></svg>