<svg xmlns="http://www.w3.org/2000/svg" viewBox="0 0 169.39 205.32"><defs><style>.cls-1{fill:#575751;}.cls-2{fill:#bead93;}.cls-3{fill:#f8daab;}.cls-4{fill:#fef8d1;}.cls-5{fill:#a16225;}.cls-6{fill:#7f501f;}.cls-7{fill:#f5c579;}.cls-8{fill:#e25f3f;}.cls-9{fill:#a34a2b;}.cls-10{fill:#88351e;}.cls-11{fill:#e67854;}</style></defs><g id="Calque_2" data-name="Calque 2"><g id="formation_etudes" data-name="formation + etudes"><path class="cls-1" d="M.67,52.13H2v4.54h2.8v1H.67Z" transform="translate(19.6 9.02)"/><path class="cls-1" d="M5.26,52.13a.72.72,0,0,1,.78-.7.7.7,0,0,1,.77.67.71.71,0,0,1-.77.72A.72.72,0,0,1,5.26,52.13Zm.16,1.29H6.66v4.3H5.42Z" transform="translate(19.6 9.02)"/><path class="cls-1" d="M7.5,55.57a2.22,2.22,0,0,1,2.4-2.21,2,2,0,0,1,1.93,1.09l-1,.52a1.08,1.08,0,0,0-1-.59,1.19,1.19,0,0,0,0,2.38,1,1,0,0,0,1-.59l1,.53A2,2,0,0,1,9.9,57.79,2.23,2.23,0,0,1,7.5,55.57Z" transform="translate(19.6 9.02)"/><path class="cls-1" d="M16.69,55.92H13.43a1.15,1.15,0,0,0,1.23.87,1.45,1.45,0,0,0,1.08-.42l.67.72a2.25,2.25,0,0,1-1.78.7,2.23,2.23,0,0,1-2.45-2.22,2.18,2.18,0,0,1,2.29-2.21,2.13,2.13,0,0,1,2.24,2.23C16.71,55.68,16.69,55.82,16.69,55.92Zm-3.27-.72h2.11a1.07,1.07,0,0,0-2.11,0Z" transform="translate(19.6 9.02)"/><path class="cls-1" d="M21.94,55.26v2.46H20.69V55.45c0-.69-.32-1-.87-1s-1,.36-1,1.16v2.12H17.54v-4.3h1.19v.51a1.89,1.89,0,0,1,1.43-.57A1.68,1.68,0,0,1,21.94,55.26Z" transform="translate(19.6 9.02)"/><path class="cls-1" d="M22.8,55.57a2.22,2.22,0,0,1,2.4-2.21,2,2,0,0,1,1.93,1.09l-1,.52a1.09,1.09,0,0,0-1-.59,1.19,1.19,0,0,0,0,2.38,1.05,1.05,0,0,0,1-.59l1,.53a2,2,0,0,1-1.93,1.09A2.23,2.23,0,0,1,22.8,55.57Z" transform="translate(19.6 9.02)"/><path class="cls-1" d="M32,55.92H28.73a1.14,1.14,0,0,0,1.23.87A1.48,1.48,0,0,0,31,56.37l.66.72a2.24,2.24,0,0,1-1.77.7,2.24,2.24,0,0,1-2.46-2.22,2.19,2.19,0,0,1,2.3-2.21A2.13,2.13,0,0,1,32,55.59C32,55.68,32,55.82,32,55.92Zm-3.27-.72h2.12a1.07,1.07,0,0,0-2.12,0Z" transform="translate(19.6 9.02)"/><path class="cls-1" d="M39.29,55.92H36a1.14,1.14,0,0,0,1.23.87,1.46,1.46,0,0,0,1.08-.42l.66.72a2.51,2.51,0,0,1-4.23-1.52,2.19,2.19,0,0,1,2.3-2.21,2.13,2.13,0,0,1,2.24,2.23C39.32,55.68,39.3,55.82,39.29,55.92ZM36,55.2h2.12a1,1,0,0,0-1-.9A1,1,0,0,0,36,55.2Zm1.28-2.33h-1l1.08-1.15h1.34Z" transform="translate(19.6 9.02)"/><path class="cls-1" d="M39.83,55.57a2.22,2.22,0,0,1,2.4-2.21,2,2,0,0,1,1.93,1.09l-1,.52a1.09,1.09,0,0,0-1-.59,1.19,1.19,0,0,0,0,2.38,1.05,1.05,0,0,0,1-.59l1,.53a2,2,0,0,1-1.93,1.09A2.23,2.23,0,0,1,39.83,55.57Z" transform="translate(19.6 9.02)"/><path class="cls-1" d="M47.55,53.36v1.15l-.28,0a1.06,1.06,0,0,0-1.14,1.2v2H44.88v-4.3h1.19V54A1.73,1.73,0,0,1,47.55,53.36Z" transform="translate(19.6 9.02)"/><path class="cls-1" d="M48.14,52.13a.72.72,0,0,1,.78-.7.7.7,0,0,1,.77.67.78.78,0,0,1-1.55,0Zm.16,1.29h1.24v4.3H48.3Z" transform="translate(19.6 9.02)"/><path class="cls-1" d="M53.48,57.52a1.82,1.82,0,0,1-1,.27,1.42,1.42,0,0,1-1.6-1.55V54.48h-.67v-1h.67V52.47H52.1v1.05h1.07v1H52.1v1.75a.5.5,0,0,0,.54.57.85.85,0,0,0,.5-.16Z" transform="translate(19.6 9.02)"/><path class="cls-1" d="M58.52,53.42v4.3H57.33v-.51a1.83,1.83,0,0,1-3.17-1.36V53.42h1.25v2.25c0,.72.32,1,.87,1s1-.37,1-1.16V53.42Z" transform="translate(19.6 9.02)"/><path class="cls-1" d="M62.35,53.36v1.15l-.28,0a1.06,1.06,0,0,0-1.14,1.2v2H59.68v-4.3h1.19V54A1.73,1.73,0,0,1,62.35,53.36Z" transform="translate(19.6 9.02)"/><path class="cls-1" d="M67.25,55.92H64a1.15,1.15,0,0,0,1.23.87,1.45,1.45,0,0,0,1.08-.42l.66.72a2.5,2.5,0,0,1-4.22-1.52A2.18,2.18,0,0,1,65,53.36a2.13,2.13,0,0,1,2.24,2.23C67.27,55.68,67.25,55.82,67.25,55.92ZM64,55.2h2.12a1,1,0,0,0-1-.9A1,1,0,0,0,64,55.2Z" transform="translate(19.6 9.02)"/><path class="cls-1" d="M74.75,51.79v5.93H73.56v-.49a1.68,1.68,0,0,1-1.35.56,2.22,2.22,0,0,1,0-4.43,1.63,1.63,0,0,1,1.29.52V51.79Zm-1.23,3.78a1.1,1.1,0,1,0-1.09,1.19A1.08,1.08,0,0,0,73.52,55.57Z" transform="translate(19.6 9.02)"/><path class="cls-1" d="M80.24,53.42v4.3H79.05v-.51a1.83,1.83,0,0,1-3.17-1.36V53.42h1.25v2.25c0,.72.32,1,.87,1s1-.37,1-1.16V53.42Z" transform="translate(19.6 9.02)"/><path class="cls-1" d="M83,57l.72-.86a1.28,1.28,0,0,0,1,.62c.52,0,.79-.32.79-.93V53.17h-2v-1H86.8v3.63a1.81,1.81,0,0,1-2,2.06A2.25,2.25,0,0,1,83,57Z" transform="translate(19.6 9.02)"/><path class="cls-1" d="M92.18,55.92H88.93a1.14,1.14,0,0,0,1.23.87,1.48,1.48,0,0,0,1.08-.42l.66.72a2.51,2.51,0,0,1-4.23-1.52A2.18,2.18,0,0,1,90,53.36a2.12,2.12,0,0,1,2.23,2.23C92.2,55.68,92.19,55.82,92.18,55.92Zm-3.27-.72H91a1.07,1.07,0,0,0-2.12,0Z" transform="translate(19.6 9.02)"/><path class="cls-1" d="M97.37,53.42v4.3H96.19v-.51a1.74,1.74,0,0,1-1.34.58A1.72,1.72,0,0,1,93,55.85V53.42h1.25v2.25c0,.72.32,1,.87,1s1-.37,1-1.16V53.42Z" transform="translate(19.6 9.02)"/><path class="cls-1" d="M106.27,52.13l-2.43,5.59h-1.27l-2.42-5.59h1.4l1.7,4,1.73-4Z" transform="translate(19.6 9.02)"/><path class="cls-1" d="M106.57,52.13a.72.72,0,0,1,.78-.7.71.71,0,0,1,.78.67.78.78,0,0,1-1.56,0Zm.16,1.29H108v4.3h-1.24Z" transform="translate(19.6 9.02)"/><path class="cls-1" d="M113.52,51.79v5.93h-1.19v-.49a1.69,1.69,0,0,1-1.35.56,2.22,2.22,0,0,1,0-4.43,1.63,1.63,0,0,1,1.29.52V51.79Zm-1.23,3.78a1.1,1.1,0,1,0-1.09,1.19A1.09,1.09,0,0,0,112.29,55.57Z" transform="translate(19.6 9.02)"/><path class="cls-1" d="M118.86,55.92h-3.25a1.14,1.14,0,0,0,1.23.87,1.48,1.48,0,0,0,1.08-.42l.66.72a2.51,2.51,0,0,1-4.23-1.52,2.18,2.18,0,0,1,2.3-2.21,2.12,2.12,0,0,1,2.23,2.23C118.88,55.68,118.87,55.82,118.86,55.92Zm-3.27-.72h2.12a1.07,1.07,0,0,0-2.12,0Zm1.28-2.33h-1L117,51.72h1.35Z" transform="translate(19.6 9.02)"/><path class="cls-1" d="M119.4,55.57a2.36,2.36,0,1,1,2.37,2.22A2.22,2.22,0,0,1,119.4,55.57Zm3.46,0a1.1,1.1,0,1,0-1.09,1.19A1.08,1.08,0,0,0,122.86,55.57Z" transform="translate(19.6 9.02)"/><path class="cls-1" d="M1,65.13H3.2a2.8,2.8,0,1,1,0,5.59H1Zm2.19,5.23a2.44,2.44,0,1,0,0-4.87H1.39v4.87Z" transform="translate(19.6 9.02)"/><path class="cls-1" d="M11,68.73H7.4A1.69,1.69,0,0,0,9.17,70.4a1.69,1.69,0,0,0,1.33-.59l.23.27a2,2,0,0,1-1.57.67A2,2,0,0,1,7,68.64a2,2,0,1,1,4,0S11,68.69,11,68.73Zm-3.58-.31h3.2a1.6,1.6,0,0,0-3.2,0Z" transform="translate(19.6 9.02)"/><path class="cls-1" d="M13.68,70.22l.18-.32a2.45,2.45,0,0,0,1.51.5c.88,0,1.23-.31,1.23-.78,0-1.22-2.77-.32-2.77-2,0-.63.53-1.14,1.58-1.14a2.58,2.58,0,0,1,1.44.41l-.19.31a2.19,2.19,0,0,0-1.25-.37c-.82,0-1.18.33-1.18.78,0,1.26,2.77.37,2.77,2,0,.68-.59,1.14-1.65,1.14A2.64,2.64,0,0,1,13.68,70.22Z" transform="translate(19.6 9.02)"/><path class="cls-1" d="M21.65,68.73H18.06a1.68,1.68,0,0,0,1.76,1.67,1.7,1.7,0,0,0,1.34-.59l.23.27a2,2,0,0,1-1.58.67,2,2,0,0,1-2.15-2.11,2,2,0,0,1,2-2.12,2,2,0,0,1,2,2.1Zm-3.59-.31h3.2a1.6,1.6,0,0,0-3.2,0Z" transform="translate(19.6 9.02)"/><path class="cls-1" d="M27.05,68.64A2,2,0,0,1,25,70.75a1.86,1.86,0,0,1-1.7-1v2.5H22.9V66.55h.38v1a1.86,1.86,0,0,1,1.71-1A2,2,0,0,1,27.05,68.64Zm-.4,0A1.68,1.68,0,1,0,25,70.4,1.66,1.66,0,0,0,26.65,68.64Z" transform="translate(19.6 9.02)"/><path class="cls-1" d="M30.37,70.46a1.28,1.28,0,0,1-.86.29,1,1,0,0,1-1.13-1.13V66.89h-.77v-.34h.77v-.91h.39v.91H30.1v.34H28.77v2.69a.73.73,0,0,0,.78.83,1,1,0,0,0,.65-.23Z" transform="translate(19.6 9.02)"/><path class="cls-1" d="M34.85,68.73H31.26a1.79,1.79,0,0,0,3.11,1.08l.23.27a2.16,2.16,0,0,1-3.73-1.44,2,2,0,0,1,2-2.12,2,2,0,0,1,2,2.1S34.85,68.69,34.85,68.73Zm-3.58-.31h3.2a1.6,1.6,0,0,0-3.2,0Z" transform="translate(19.6 9.02)"/><path class="cls-1" d="M43,68.28v2.44h-.4v-2.4c0-.95-.48-1.44-1.3-1.44a1.47,1.47,0,0,0-1.53,1.62v2.22h-.4v-2.4c0-.95-.48-1.44-1.3-1.44A1.47,1.47,0,0,0,36.5,68.5v2.22h-.4V66.55h.39v.89a1.66,1.66,0,0,1,1.6-.92,1.47,1.47,0,0,1,1.52,1,1.77,1.77,0,0,1,1.69-1A1.56,1.56,0,0,1,43,68.28Z" transform="translate(19.6 9.02)"/><path class="cls-1" d="M48.77,68.64a2,2,0,0,1-2.06,2.11,1.86,1.86,0,0,1-1.71-1v1h-.39V64.79H45V67.5a1.88,1.88,0,0,1,1.7-1A2,2,0,0,1,48.77,68.64Zm-.4,0a1.68,1.68,0,1,0-1.68,1.76A1.66,1.66,0,0,0,48.37,68.64Z" transform="translate(19.6 9.02)"/><path class="cls-1" d="M52,66.52v.39h-.1a1.45,1.45,0,0,0-1.48,1.65v2.17H50V66.55h.39v.91A1.58,1.58,0,0,1,52,66.52Z" transform="translate(19.6 9.02)"/><path class="cls-1" d="M56.58,68.73H53a1.78,1.78,0,0,0,3.1,1.08l.23.27a2,2,0,0,1-1.57.67,2,2,0,0,1-2.15-2.11,2,2,0,1,1,4,0S56.58,68.69,56.58,68.73ZM53,68.42h3.2a1.6,1.6,0,0,0-3.2,0Z" transform="translate(19.6 9.02)"/><path class="cls-1" d="M63.21,70.36v.36H59.37v-.28l2.36-2.36c.67-.66.8-1,.8-1.47,0-.71-.49-1.15-1.42-1.15a2,2,0,0,0-1.61.65l-.29-.26a2.5,2.5,0,0,1,1.93-.76c1.1,0,1.8.56,1.8,1.48A2.29,2.29,0,0,1,62,68.3L60,70.36Z" transform="translate(19.6 9.02)"/><path class="cls-1" d="M64,67.92c0-1.75.9-2.83,2.19-2.83s2.19,1.08,2.19,2.83-.9,2.84-2.19,2.84S64,69.68,64,67.92Zm4,0c0-1.55-.72-2.46-1.78-2.46s-1.78.91-1.78,2.46.73,2.47,1.78,2.47S67.92,69.48,67.92,67.92Z" transform="translate(19.6 9.02)"/><path class="cls-1" d="M70.61,65.13v5.59h-.4V65.49H68.84v-.36Z" transform="translate(19.6 9.02)"/><path class="cls-1" d="M76,67.89c0,1.9-1,2.87-2.48,2.87a2.54,2.54,0,0,1-1.27-.28l.16-.33a2.12,2.12,0,0,0,1.11.25c1.25,0,2.08-.82,2.08-2.44a4.61,4.61,0,0,0,0-.68,1.76,1.76,0,0,1-1.78,1.16,1.68,1.68,0,0,1-1.88-1.67,1.7,1.7,0,0,1,1.87-1.68C75.19,65.09,76,66.14,76,67.89Zm-.63-1.14a1.42,1.42,0,0,0-1.6-1.31,1.33,1.33,0,0,0-1.47,1.33c0,.8.58,1.31,1.52,1.31A1.4,1.4,0,0,0,75.33,66.75Z" transform="translate(19.6 9.02)"/><path class="cls-1" d="M82.32,68.08v2.64h-.38V70a1.59,1.59,0,0,1-1.5.77c-.94,0-1.51-.48-1.51-1.19s.4-1.16,1.56-1.16h1.43v-.34a1.08,1.08,0,0,0-1.23-1.19,2.11,2.11,0,0,0-1.44.53l-.2-.29a2.51,2.51,0,0,1,1.67-.59A1.41,1.41,0,0,1,82.32,68.08Zm-.4,1.41v-.78H80.5c-.86,0-1.17.36-1.17.84s.43.88,1.16.88A1.42,1.42,0,0,0,81.92,69.49Zm-1.19-3.62-1.26-.94h.58l1.11.94Z" transform="translate(19.6 9.02)"/><path class="cls-1" d="M85.41,70.22l.19-.32a2.44,2.44,0,0,0,1.5.5c.88,0,1.23-.31,1.23-.78,0-1.22-2.76-.32-2.76-2,0-.63.52-1.14,1.58-1.14a2.54,2.54,0,0,1,1.43.41l-.18.31a2.22,2.22,0,0,0-1.26-.37c-.81,0-1.17.33-1.17.78,0,1.26,2.76.37,2.76,2,0,.68-.58,1.14-1.64,1.14A2.67,2.67,0,0,1,85.41,70.22Z" transform="translate(19.6 9.02)"/><path class="cls-1" d="M93.38,68.73H89.79a1.78,1.78,0,0,0,3.1,1.08l.23.27a2,2,0,0,1-1.57.67,2,2,0,0,1-2.15-2.11,2,2,0,1,1,4,0S93.38,68.69,93.38,68.73Zm-3.58-.31H93a1.6,1.6,0,0,0-3.2,0Z" transform="translate(19.6 9.02)"/><path class="cls-1" d="M98.79,68.64a2,2,0,0,1-2.06,2.11,1.86,1.86,0,0,1-1.7-1v2.5h-.4V66.55H95v1a1.87,1.87,0,0,1,1.72-1A2,2,0,0,1,98.79,68.64Zm-.4,0A1.69,1.69,0,1,0,96.7,70.4,1.66,1.66,0,0,0,98.39,68.64Z" transform="translate(19.6 9.02)"/><path class="cls-1" d="M102.1,70.46a1.25,1.25,0,0,1-.85.29,1,1,0,0,1-1.14-1.13V66.89h-.77v-.34h.77v-.91h.4v.91h1.33v.34h-1.33v2.69c0,.53.26.83.78.83a1,1,0,0,0,.64-.23Z" transform="translate(19.6 9.02)"/><path class="cls-1" d="M106.59,68.73H103a1.78,1.78,0,0,0,3.1,1.08l.23.27a2,2,0,0,1-1.57.67,2,2,0,0,1-2.15-2.11,2,2,0,1,1,4,0S106.59,68.69,106.59,68.73ZM103,68.42h3.19a1.6,1.6,0,0,0-3.19,0Z" transform="translate(19.6 9.02)"/><path class="cls-1" d="M114.7,68.28v2.44h-.4v-2.4c0-.95-.49-1.44-1.3-1.44a1.46,1.46,0,0,0-1.53,1.62v2.22h-.4v-2.4c0-.95-.49-1.44-1.31-1.44a1.46,1.46,0,0,0-1.52,1.62v2.22h-.4V66.55h.38v.89a1.66,1.66,0,0,1,1.6-.92,1.49,1.49,0,0,1,1.53,1,1.77,1.77,0,0,1,1.69-1A1.56,1.56,0,0,1,114.7,68.28Z" transform="translate(19.6 9.02)"/><path class="cls-1" d="M120.51,68.64a2,2,0,0,1-2.07,2.11,1.86,1.86,0,0,1-1.71-1v1h-.38V64.79h.4V67.5a1.86,1.86,0,0,1,1.69-1A2,2,0,0,1,120.51,68.64Zm-.4,0a1.69,1.69,0,1,0-1.69,1.76A1.66,1.66,0,0,0,120.11,68.64Z" transform="translate(19.6 9.02)"/><path class="cls-1" d="M123.72,66.52v.39h-.09a1.44,1.44,0,0,0-1.48,1.65v2.17h-.4V66.55h.38v.91A1.58,1.58,0,0,1,123.72,66.52Z" transform="translate(19.6 9.02)"/><path class="cls-1" d="M128.32,68.73h-3.59a1.68,1.68,0,0,0,1.76,1.67,1.7,1.7,0,0,0,1.34-.59l.23.27a2,2,0,0,1-1.58.67,2,2,0,0,1-2.15-2.11,2,2,0,0,1,2-2.12,2,2,0,0,1,2,2.1Zm-3.59-.31h3.2a1.6,1.6,0,0,0-3.2,0Z" transform="translate(19.6 9.02)"/><path class="cls-1" d="M135,70.36v.36H131.1v-.28l2.37-2.36c.66-.66.79-1,.79-1.47,0-.71-.49-1.15-1.42-1.15a2,2,0,0,0-1.6.65l-.29-.26a2.49,2.49,0,0,1,1.93-.76c1.09,0,1.8.56,1.8,1.48a2.31,2.31,0,0,1-.92,1.73l-2.06,2.06Z" transform="translate(19.6 9.02)"/><path class="cls-1" d="M135.69,67.92c0-1.75.9-2.83,2.19-2.83s2.19,1.08,2.19,2.83-.91,2.84-2.19,2.84S135.69,69.68,135.69,67.92Zm4,0c0-1.55-.73-2.46-1.78-2.46s-1.79.91-1.79,2.46.73,2.47,1.79,2.47S139.66,69.48,139.66,67.92Z" transform="translate(19.6 9.02)"/><path class="cls-1" d="M144.68,70.36v.36h-3.85v-.28l2.37-2.36c.66-.66.79-1,.79-1.47,0-.71-.49-1.15-1.42-1.15a2,2,0,0,0-1.6.65l-.29-.26a2.48,2.48,0,0,1,1.92-.76c1.1,0,1.8.56,1.8,1.48a2.29,2.29,0,0,1-.91,1.73l-2.06,2.06Z" transform="translate(19.6 9.02)"/><path class="cls-1" d="M145.41,67.92c0-1.75.91-2.83,2.19-2.83s2.19,1.08,2.19,2.83-.9,2.84-2.19,2.84S145.41,69.68,145.41,67.92Zm4,0c0-1.55-.73-2.46-1.79-2.46s-1.78.91-1.78,2.46.73,2.47,1.78,2.47S149.39,69.48,149.39,67.92Z" transform="translate(19.6 9.02)"/><path class="cls-1" d="M.32,80.92a2.87,2.87,0,0,1,3-2.89,2.88,2.88,0,0,1,2.3,1l-.83.77a1.82,1.82,0,0,0-1.41-.66,1.8,1.8,0,0,0,0,3.59,1.8,1.8,0,0,0,1.41-.67l.83.77a2.86,2.86,0,0,1-2.31,1A2.87,2.87,0,0,1,.32,80.92Z" transform="translate(19.6 9.02)"/><path class="cls-1" d="M10.84,81.26v2.46H9.6V81.45c0-.69-.32-1-.87-1s-1,.36-1,1.16v2.12H6.45v-4.3H7.64v.51a1.87,1.87,0,0,1,1.42-.57A1.68,1.68,0,0,1,10.84,81.26Z" transform="translate(19.6 9.02)"/><path class="cls-1" d="M15.78,81.27v2.45H14.61v-.53a1.41,1.41,0,0,1-1.31.6c-1,0-1.6-.56-1.6-1.31s.53-1.28,1.84-1.28h1c0-.54-.32-.85-1-.85a2.07,2.07,0,0,0-1.24.4l-.45-.87a3.3,3.3,0,0,1,1.86-.52C15,79.36,15.78,80,15.78,81.27Zm-1.25,1.09v-.44h-.85c-.59,0-.77.22-.77.51s.26.52.7.52A.91.91,0,0,0,14.53,82.36Z" transform="translate(19.6 9.02)"/><path class="cls-1" d="M24.18,81.26v2.46H22.93V81.45c0-.69-.31-1-.81-1s-.95.36-.95,1.12v2.16H19.92V81.45c0-.69-.3-1-.82-1s-.94.36-.94,1.12v2.16H16.91v-4.3H18.1v.5a1.73,1.73,0,0,1,1.35-.56,1.62,1.62,0,0,1,1.42.7,1.92,1.92,0,0,1,1.55-.7A1.67,1.67,0,0,1,24.18,81.26Z" transform="translate(19.6 9.02)"/><path class="cls-1" d="M25.14,81h2.27v1H25.14Z" transform="translate(19.6 9.02)"/><path class="cls-1" d="M32.81,82.68v1H28.48V78.13h4.23v1H29.77v1.21h2.59v1H29.77v1.29Z" transform="translate(19.6 9.02)"/><path class="cls-1" d="M38.16,81.26v2.46H36.91V81.45c0-.69-.32-1-.87-1s-1,.36-1,1.16v2.12H33.76v-4.3H35v.51a1.88,1.88,0,0,1,1.42-.57A1.69,1.69,0,0,1,38.16,81.26Z" transform="translate(19.6 9.02)"/><path class="cls-1" d="M38,85.1l.33-.91a.9.9,0,0,0,.53.16c.31,0,.51-.2.51-.63v-4.3h1.25v4.3A1.49,1.49,0,0,1,39,85.34,1.79,1.79,0,0,1,38,85.1Zm1.22-7a.71.71,0,0,1,.78-.7.7.7,0,0,1,.77.67.78.78,0,0,1-1.55,0Z" transform="translate(19.6 9.02)"/><path class="cls-1" d="M49,81.26v2.46H47.76V81.45c0-.69-.31-1-.81-1s-1,.36-1,1.12v2.16H44.75V81.45c0-.69-.3-1-.82-1S43,80.8,43,81.56v2.16H41.74v-4.3h1.19v.5a1.74,1.74,0,0,1,1.36-.56,1.59,1.59,0,0,1,1.41.7,1.92,1.92,0,0,1,1.55-.7A1.66,1.66,0,0,1,49,81.26Z" transform="translate(19.6 9.02)"/><path class="cls-1" d="M50,78.13a.71.71,0,0,1,.78-.7.7.7,0,0,1,.77.67.78.78,0,0,1-1.55,0Zm.16,1.29h1.24v4.3H50.14Z" transform="translate(19.6 9.02)"/><path class="cls-1" d="M56.94,81.26v2.46H55.69V81.45c0-.69-.32-1-.87-1s-1,.36-1,1.16v2.12H52.54v-4.3h1.19v.51a1.89,1.89,0,0,1,1.43-.57A1.68,1.68,0,0,1,56.94,81.26Z" transform="translate(19.6 9.02)"/><path class="cls-1" d="M64.11,82.52h-2.6L61,83.72H59.69l2.49-5.59h1.28L66,83.72H64.6Zm-.41-1-.89-2.14-.88,2.14Z" transform="translate(19.6 9.02)"/><path class="cls-1" d="M70.86,81.26v2.46H69.61V81.45c0-.69-.32-1-.87-1s-1,.36-1,1.16v2.12H66.46v-4.3h1.19v.51a1.89,1.89,0,0,1,1.43-.57A1.68,1.68,0,0,1,70.86,81.26Z" transform="translate(19.6 9.02)"/><path class="cls-1" d="M76.48,79.42V83a2.11,2.11,0,0,1-2.42,2.34A3.58,3.58,0,0,1,72,84.75l.5-.9a2.51,2.51,0,0,0,1.52.49c.88,0,1.26-.4,1.26-1.18V83a1.78,1.78,0,0,1-1.36.54,2.08,2.08,0,1,1,0-4.16,1.72,1.72,0,0,1,1.42.61v-.55Zm-1.23,2a1.14,1.14,0,1,0-1.13,1A1,1,0,0,0,75.25,81.44Z" transform="translate(19.6 9.02)"/><path class="cls-1" d="M77.32,81.57a2.36,2.36,0,1,1,2.37,2.22A2.22,2.22,0,0,1,77.32,81.57Zm3.46,0a1.1,1.1,0,1,0-1.09,1.19A1.08,1.08,0,0,0,80.78,81.57Z" transform="translate(19.6 9.02)"/><path class="cls-1" d="M87.21,79.42v4.3H86v-.51a1.74,1.74,0,0,1-1.34.58,1.72,1.72,0,0,1-1.83-1.94V79.42H84.1v2.25c0,.72.32,1,.87,1s1-.37,1-1.16V79.42Z" transform="translate(19.6 9.02)"/><path class="cls-1" d="M88.38,77.79h1.24v5.93H88.38Z" transform="translate(19.6 9.02)"/><path class="cls-1" d="M95,81.92H91.72a1.14,1.14,0,0,0,1.23.87A1.46,1.46,0,0,0,94,82.37l.66.72a2.51,2.51,0,0,1-4.23-1.52,2.19,2.19,0,0,1,2.3-2.21A2.13,2.13,0,0,1,95,81.59C95,81.68,95,81.82,95,81.92Zm-2.93-3h-.91l1.05-1.15h1.11l1,1.15h-.91l-.7-.61ZM91.7,81.2h2.12a1,1,0,0,0-1-.9A1,1,0,0,0,91.7,81.2Z" transform="translate(19.6 9.02)"/><path class="cls-1" d="M103.1,81.26v2.46h-1.25V81.45c0-.69-.31-1-.81-1s-1,.36-1,1.12v2.16H98.84V81.45c0-.69-.3-1-.82-1s-.94.36-.94,1.12v2.16H95.83v-4.3H97v.5a1.73,1.73,0,0,1,1.35-.56,1.61,1.61,0,0,1,1.42.7,1.92,1.92,0,0,1,1.55-.7A1.67,1.67,0,0,1,103.1,81.26Z" transform="translate(19.6 9.02)"/><path class="cls-1" d="M108.46,81.92h-3.25a1.14,1.14,0,0,0,1.23.87,1.48,1.48,0,0,0,1.08-.42l.66.72A2.51,2.51,0,0,1,104,81.57a2.19,2.19,0,0,1,2.3-2.21,2.13,2.13,0,0,1,2.24,2.23C108.49,81.68,108.47,81.82,108.46,81.92Zm-3.27-.72h2.12a1.07,1.07,0,0,0-2.12,0Z" transform="translate(19.6 9.02)"/><path class="cls-1" d="M5.8,108.2c0,1-.76,1.52-2.23,1.52H.67v-5.59H3.41c1.4,0,2.11.58,2.11,1.45a1.33,1.33,0,0,1-.74,1.23A1.39,1.39,0,0,1,5.8,108.2ZM2,105.1v1.32H3.25c.63,0,1-.22,1-.66s-.34-.66-1-.66Zm2.54,3c0-.47-.36-.7-1-.7H2v1.39H3.47C4.14,108.75,4.5,108.54,4.5,108.06Z" transform="translate(19.6 9.02)"/><path class="cls-1" d="M7.87,105.18H6.08v-1.05H11v1.05H9.17v4.54H7.87Z" transform="translate(19.6 9.02)"/><path class="cls-1" d="M11.18,109.17l.44-1a3.3,3.3,0,0,0,1.84.58c.77,0,1.08-.26,1.08-.6,0-1.05-3.25-.33-3.25-2.41,0-1,.77-1.74,2.36-1.74a3.73,3.73,0,0,1,1.94.5l-.4,1a3.13,3.13,0,0,0-1.55-.44c-.77,0-1.06.29-1.06.64,0,1,3.25.32,3.25,2.37,0,.94-.78,1.74-2.38,1.74A3.92,3.92,0,0,1,11.18,109.17Z" transform="translate(19.6 9.02)"/><path class="cls-1" d="M19,104.13h2.55a2.81,2.81,0,1,1,0,5.59H19Zm2.48,4.53a1.74,1.74,0,1,0,0-3.47H20.28v3.47Z" transform="translate(19.6 9.02)"/><path class="cls-1" d="M29.69,107.92H26.44a1.14,1.14,0,0,0,1.23.87,1.46,1.46,0,0,0,1.08-.42l.66.72a2.24,2.24,0,0,1-1.77.7,2.24,2.24,0,0,1-2.46-2.22,2.19,2.19,0,0,1,2.3-2.21,2.13,2.13,0,0,1,2.24,2.23C29.72,107.68,29.7,107.82,29.69,107.92Zm-3.27-.72h2.12a1,1,0,0,0-1.05-.9A1,1,0,0,0,26.42,107.2Zm1.28-2.33h-1l1.08-1.15h1.34Z" transform="translate(19.6 9.02)"/><path class="cls-1" d="M34.74,105.42l-1.81,4.3H31.64l-1.81-4.3h1.29l1.19,2.93,1.23-2.93Z" transform="translate(19.6 9.02)"/><path class="cls-1" d="M39.32,107.92H36.07a1.15,1.15,0,0,0,1.23.87,1.46,1.46,0,0,0,1.08-.42l.66.72a2.51,2.51,0,0,1-4.23-1.52,2.19,2.19,0,0,1,2.3-2.21,2.13,2.13,0,0,1,2.24,2.23C39.35,107.68,39.33,107.82,39.32,107.92Zm-3.27-.72h2.12a1,1,0,0,0-1.05-.9A1,1,0,0,0,36.05,107.2Z" transform="translate(19.6 9.02)"/><path class="cls-1" d="M40.18,103.79h1.25v5.93H40.18Z" transform="translate(19.6 9.02)"/><path class="cls-1" d="M42.27,107.57a2.37,2.37,0,1,1,2.37,2.22A2.22,2.22,0,0,1,42.27,107.57Zm3.46,0a1.1,1.1,0,1,0-1.09,1.19A1.08,1.08,0,0,0,45.73,107.57Z" transform="translate(19.6 9.02)"/><path class="cls-1" d="M52.52,107.57a2.1,2.1,0,0,1-2.15,2.22,1.67,1.67,0,0,1-1.29-.52v2H47.83v-5.85H49v.5a1.66,1.66,0,0,1,1.35-.56A2.09,2.09,0,0,1,52.52,107.57Zm-1.27,0a1.1,1.1,0,1,0-1.09,1.19A1.08,1.08,0,0,0,51.25,107.57Z" transform="translate(19.6 9.02)"/><path class="cls-1" d="M58,107.57a2.1,2.1,0,0,1-2.15,2.22,1.67,1.67,0,0,1-1.29-.52v2H53.35v-5.85h1.19v.5a1.66,1.66,0,0,1,1.35-.56A2.09,2.09,0,0,1,58,107.57Zm-1.27,0a1.1,1.1,0,1,0-1.09,1.19A1.08,1.08,0,0,0,56.77,107.57Z" transform="translate(19.6 9.02)"/><path class="cls-1" d="M63.06,107.92H59.81a1.14,1.14,0,0,0,1.23.87,1.48,1.48,0,0,0,1.08-.42l.66.72a2.51,2.51,0,0,1-4.23-1.52,2.18,2.18,0,0,1,2.3-2.21,2.12,2.12,0,0,1,2.23,2.23C63.08,107.68,63.07,107.82,63.06,107.92Zm-3.27-.72h2.12a1.07,1.07,0,0,0-2.12,0Z" transform="translate(19.6 9.02)"/><path class="cls-1" d="M68.25,105.42v4.3H67.07v-.51a1.74,1.74,0,0,1-1.34.58,1.71,1.71,0,0,1-1.83-1.94v-2.43h1.24v2.25c0,.72.32,1,.87,1s1-.37,1-1.16v-2.13Z" transform="translate(19.6 9.02)"/><path class="cls-1" d="M72.09,105.36v1.15l-.28,0a1.06,1.06,0,0,0-1.15,1.2v2H69.42v-4.3h1.19V106A1.71,1.71,0,0,1,72.09,105.36Z" transform="translate(19.6 9.02)"/><path class="cls-1" d="M82,105.42l-1.56,4.3h-1.2l-1-2.67-1,2.67h-1.2l-1.55-4.3h1.17l1,2.91,1.06-2.91h1l1,2.91,1.05-2.91Z" transform="translate(19.6 9.02)"/><path class="cls-1" d="M86.69,107.92H83.44a1.14,1.14,0,0,0,1.23.87,1.46,1.46,0,0,0,1.08-.42l.66.72a2.51,2.51,0,0,1-4.23-1.52,2.19,2.19,0,0,1,2.3-2.21,2.13,2.13,0,0,1,2.24,2.23C86.72,107.68,86.7,107.82,86.69,107.92Zm-3.27-.72h2.12a1,1,0,0,0-1.05-.9A1,1,0,0,0,83.42,107.2Z" transform="translate(19.6 9.02)"/><path class="cls-1" d="M92.24,107.57a2.1,2.1,0,0,1-2.15,2.22,1.69,1.69,0,0,1-1.35-.56v.49H87.55v-5.93H88.8v2.09a1.64,1.64,0,0,1,1.29-.52A2.09,2.09,0,0,1,92.24,107.57Zm-1.27,0a1.1,1.1,0,1,0-1.09,1.19A1.08,1.08,0,0,0,91,107.57Z" transform="translate(19.6 9.02)"/><path class="cls-1" d="M1,117.13H3.2a2.8,2.8,0,1,1,0,5.59H1Zm2.19,5.23a2.44,2.44,0,1,0,0-4.87H1.39v4.87Z" transform="translate(19.6 9.02)"/><path class="cls-1" d="M11,120.73H7.4a1.69,1.69,0,0,0,1.77,1.67,1.69,1.69,0,0,0,1.33-.59l.23.27a2,2,0,0,1-1.57.67A2,2,0,0,1,7,120.64a2,2,0,1,1,4,0S11,120.69,11,120.73Zm-3.58-.31h3.2a1.6,1.6,0,0,0-3.2,0Z" transform="translate(19.6 9.02)"/><path class="cls-1" d="M13.68,122.22l.18-.32a2.45,2.45,0,0,0,1.51.5c.88,0,1.23-.31,1.23-.78,0-1.22-2.77-.32-2.77-2,0-.63.53-1.14,1.58-1.14a2.58,2.58,0,0,1,1.44.41l-.19.31a2.19,2.19,0,0,0-1.25-.37c-.82,0-1.18.33-1.18.78,0,1.26,2.77.37,2.77,2,0,.68-.59,1.14-1.65,1.14A2.64,2.64,0,0,1,13.68,122.22Z" transform="translate(19.6 9.02)"/><path class="cls-1" d="M21.65,120.73H18.06a1.68,1.68,0,0,0,1.76,1.67,1.7,1.7,0,0,0,1.34-.59l.23.27a2,2,0,0,1-1.58.67,2,2,0,0,1-2.15-2.11,2,2,0,0,1,2-2.12,2,2,0,0,1,2,2.1Zm-3.59-.31h3.2a1.6,1.6,0,0,0-3.2,0Z" transform="translate(19.6 9.02)"/><path class="cls-1" d="M27.05,120.64A2,2,0,0,1,25,122.75a1.86,1.86,0,0,1-1.7-1v2.5H22.9v-5.72h.38v1a1.86,1.86,0,0,1,1.71-1A2,2,0,0,1,27.05,120.64Zm-.4,0A1.68,1.68,0,1,0,25,122.4,1.66,1.66,0,0,0,26.65,120.64Z" transform="translate(19.6 9.02)"/><path class="cls-1" d="M30.37,122.46a1.28,1.28,0,0,1-.86.29,1,1,0,0,1-1.13-1.13v-2.73h-.77v-.34h.77v-.91h.39v.91H30.1v.34H28.77v2.69a.73.73,0,0,0,.78.83,1,1,0,0,0,.65-.23Z" transform="translate(19.6 9.02)"/><path class="cls-1" d="M34.85,120.73H31.26a1.79,1.79,0,0,0,3.11,1.08l.23.27a2.16,2.16,0,0,1-3.73-1.44,2,2,0,0,1,2-2.12,2,2,0,0,1,2,2.1S34.85,120.69,34.85,120.73Zm-3.58-.31h3.2a1.6,1.6,0,0,0-3.2,0Z" transform="translate(19.6 9.02)"/><path class="cls-1" d="M43,120.28v2.44h-.4v-2.4c0-.95-.48-1.44-1.3-1.44a1.47,1.47,0,0,0-1.53,1.62v2.22h-.4v-2.4c0-.95-.48-1.44-1.3-1.44a1.47,1.47,0,0,0-1.53,1.62v2.22h-.4v-4.17h.39v.89a1.66,1.66,0,0,1,1.6-.92,1.47,1.47,0,0,1,1.52,1,1.77,1.77,0,0,1,1.69-1A1.56,1.56,0,0,1,43,120.28Z" transform="translate(19.6 9.02)"/><path class="cls-1" d="M48.77,120.64a2,2,0,0,1-2.06,2.11,1.86,1.86,0,0,1-1.71-1v1h-.39v-5.93H45v2.71a1.88,1.88,0,0,1,1.7-1A2,2,0,0,1,48.77,120.64Zm-.4,0a1.68,1.68,0,1,0-1.68,1.76A1.66,1.66,0,0,0,48.37,120.64Z" transform="translate(19.6 9.02)"/><path class="cls-1" d="M52,118.52v.39h-.1a1.45,1.45,0,0,0-1.48,1.65v2.17H50v-4.17h.39v.91A1.58,1.58,0,0,1,52,118.52Z" transform="translate(19.6 9.02)"/><path class="cls-1" d="M56.58,120.73H53a1.78,1.78,0,0,0,3.1,1.08l.23.27a2,2,0,0,1-1.57.67,2,2,0,0,1-2.15-2.11,2,2,0,1,1,4,0S56.58,120.69,56.58,120.73ZM53,120.42h3.2a1.6,1.6,0,0,0-3.2,0Z" transform="translate(19.6 9.02)"/><path class="cls-1" d="M63.21,122.36v.36H59.37v-.28l2.36-2.36c.67-.66.8-1,.8-1.47,0-.71-.49-1.15-1.42-1.15a2,2,0,0,0-1.61.65l-.29-.26a2.5,2.5,0,0,1,1.93-.76c1.1,0,1.8.56,1.8,1.48A2.29,2.29,0,0,1,62,120.3L60,122.36Z" transform="translate(19.6 9.02)"/><path class="cls-1" d="M64,119.92c0-1.75.9-2.83,2.19-2.83s2.19,1.08,2.19,2.83-.9,2.84-2.19,2.84S64,121.68,64,119.92Zm4,0c0-1.55-.72-2.46-1.78-2.46s-1.78.91-1.78,2.46.73,2.47,1.78,2.47S67.92,121.48,67.92,119.92Z" transform="translate(19.6 9.02)"/><path class="cls-1" d="M70.61,117.13v5.59h-.4v-5.23H68.84v-.36Z" transform="translate(19.6 9.02)"/><path class="cls-1" d="M75.88,117.13v.28l-2.41,5.31H73l2.38-5.23H72.26v1.08h-.4v-1.44Z" transform="translate(19.6 9.02)"/><path class="cls-1" d="M82.16,120.08v2.64h-.39V122a1.59,1.59,0,0,1-1.5.77c-.94,0-1.5-.48-1.5-1.19s.4-1.16,1.56-1.16h1.43v-.34a1.09,1.09,0,0,0-1.24-1.19,2.11,2.11,0,0,0-1.44.53l-.2-.29a2.51,2.51,0,0,1,1.67-.59A1.42,1.42,0,0,1,82.16,120.08Zm-.4,1.41v-.78H80.33c-.86,0-1.16.36-1.16.84s.42.88,1.16.88A1.44,1.44,0,0,0,81.76,121.49Zm-1.2-3.62-1.26-.94h.58l1.11.94Z" transform="translate(19.6 9.02)"/><path class="cls-1" d="M85.25,122.22l.18-.32a2.44,2.44,0,0,0,1.5.5c.88,0,1.24-.31,1.24-.78,0-1.22-2.77-.32-2.77-2,0-.63.53-1.14,1.58-1.14a2.54,2.54,0,0,1,1.43.41l-.18.31a2.19,2.19,0,0,0-1.26-.37c-.81,0-1.17.33-1.17.78,0,1.26,2.76.37,2.76,2,0,.68-.58,1.14-1.64,1.14A2.62,2.62,0,0,1,85.25,122.22Z" transform="translate(19.6 9.02)"/><path class="cls-1" d="M93.21,120.73H89.62a1.78,1.78,0,0,0,3.1,1.08l.24.27a2.16,2.16,0,0,1-3.73-1.44,2,2,0,0,1,2-2.12,2,2,0,0,1,2,2.1S93.21,120.69,93.21,120.73Zm-3.58-.31h3.2a1.6,1.6,0,0,0-3.2,0Z" transform="translate(19.6 9.02)"/><path class="cls-1" d="M98.62,120.64a2,2,0,0,1-2.06,2.11,1.86,1.86,0,0,1-1.7-1v2.5h-.4v-5.72h.39v1a1.85,1.85,0,0,1,1.71-1A2,2,0,0,1,98.62,120.64Zm-.4,0a1.69,1.69,0,1,0-1.69,1.76A1.66,1.66,0,0,0,98.22,120.64Z" transform="translate(19.6 9.02)"/><path class="cls-1" d="M101.93,122.46a1.24,1.24,0,0,1-.85.29,1,1,0,0,1-1.14-1.13v-2.73h-.77v-.34h.77v-.91h.4v.91h1.33v.34h-1.33v2.69a.73.73,0,0,0,.78.83,1,1,0,0,0,.65-.23Z" transform="translate(19.6 9.02)"/><path class="cls-1" d="M106.42,120.73h-3.59a1.78,1.78,0,0,0,3.1,1.08l.23.27a2,2,0,0,1-1.57.67,2,2,0,0,1-2.15-2.11,2,2,0,1,1,4,0S106.42,120.69,106.42,120.73Zm-3.58-.31H106a1.6,1.6,0,0,0-3.2,0Z" transform="translate(19.6 9.02)"/><path class="cls-1" d="M114.53,120.28v2.44h-.4v-2.4c0-.95-.49-1.44-1.3-1.44a1.46,1.46,0,0,0-1.53,1.62v2.22h-.4v-2.4c0-.95-.49-1.44-1.3-1.44a1.46,1.46,0,0,0-1.53,1.62v2.22h-.4v-4.17h.38v.89a1.67,1.67,0,0,1,1.6-.92,1.48,1.48,0,0,1,1.53,1,1.77,1.77,0,0,1,1.69-1A1.56,1.56,0,0,1,114.53,120.28Z" transform="translate(19.6 9.02)"/><path class="cls-1" d="M120.34,120.64a2,2,0,0,1-2.06,2.11,1.84,1.84,0,0,1-1.71-1v1h-.39v-5.93h.4v2.71a1.88,1.88,0,0,1,1.7-1A2,2,0,0,1,120.34,120.64Zm-.4,0a1.69,1.69,0,1,0-1.69,1.76A1.66,1.66,0,0,0,119.94,120.64Z" transform="translate(19.6 9.02)"/><path class="cls-1" d="M123.56,118.52v.39h-.1a1.44,1.44,0,0,0-1.48,1.65v2.17h-.4v-4.17H122v.91A1.57,1.57,0,0,1,123.56,118.52Z" transform="translate(19.6 9.02)"/><path class="cls-1" d="M128.15,120.73h-3.59a1.78,1.78,0,0,0,3.1,1.08l.23.27a2,2,0,0,1-1.57.67,2,2,0,0,1-2.15-2.11,2,2,0,1,1,4,0S128.15,120.69,128.15,120.73Zm-3.58-.31h3.19a1.6,1.6,0,0,0-3.19,0Z" transform="translate(19.6 9.02)"/><path class="cls-1" d="M134.78,122.36v.36h-3.85v-.28l2.37-2.36c.66-.66.79-1,.79-1.47,0-.71-.49-1.15-1.41-1.15a2,2,0,0,0-1.61.65l-.29-.26a2.5,2.5,0,0,1,1.93-.76c1.09,0,1.8.56,1.8,1.48a2.32,2.32,0,0,1-.91,1.73l-2.07,2.06Z" transform="translate(19.6 9.02)"/><path class="cls-1" d="M135.52,119.92c0-1.75.9-2.83,2.19-2.83s2.19,1.08,2.19,2.83-.9,2.84-2.19,2.84S135.52,121.68,135.52,119.92Zm4,0c0-1.55-.73-2.46-1.78-2.46s-1.78.91-1.78,2.46.72,2.47,1.78,2.47S139.49,121.48,139.49,119.92Z" transform="translate(19.6 9.02)"/><path class="cls-1" d="M142.18,117.13v5.59h-.41v-5.23h-1.36v-.36Z" transform="translate(19.6 9.02)"/><path class="cls-1" d="M147.53,119.89c0,1.9-1,2.87-2.49,2.87a2.59,2.59,0,0,1-1.27-.28l.17-.33a2.11,2.11,0,0,0,1.1.25c1.26,0,2.08-.82,2.08-2.44a4.42,4.42,0,0,0,0-.68,1.77,1.77,0,0,1-1.79,1.16,1.68,1.68,0,0,1-1.87-1.67,1.7,1.7,0,0,1,1.87-1.68C146.76,117.09,147.53,118.14,147.53,119.89Zm-.63-1.14a1.42,1.42,0,0,0-1.6-1.31,1.33,1.33,0,0,0-1.47,1.33c0,.8.58,1.31,1.52,1.31A1.4,1.4,0,0,0,146.9,118.75Z" transform="translate(19.6 9.02)"/><path class="cls-1" d="M.32,132.92a2.87,2.87,0,0,1,3-2.89,2.88,2.88,0,0,1,2.3,1l-.83.77a1.82,1.82,0,0,0-1.41-.66,1.8,1.8,0,0,0,0,3.59,1.8,1.8,0,0,0,1.41-.67l.83.77a2.86,2.86,0,0,1-2.31,1A2.87,2.87,0,0,1,.32,132.92Z" transform="translate(19.6 9.02)"/><path class="cls-1" d="M10.87,134.68v1H6.54v-5.59h4.22v1H7.82v1.21h2.6v1H7.82v1.29Z" transform="translate(19.6 9.02)"/><path class="cls-1" d="M11.46,135.17l.44-1a3.33,3.33,0,0,0,1.85.58c.77,0,1.08-.26,1.08-.6,0-1.05-3.25-.33-3.25-2.41,0-1,.76-1.74,2.35-1.74a3.75,3.75,0,0,1,2,.5l-.4,1a3.13,3.13,0,0,0-1.55-.44c-.77,0-1.07.29-1.07.64,0,1,3.26.32,3.26,2.37,0,.94-.78,1.74-2.38,1.74A4,4,0,0,1,11.46,135.17Z" transform="translate(19.6 9.02)"/><path class="cls-1" d="M17,130.13H18.3v5.59H17Z" transform="translate(19.6 9.02)"/><path class="cls-1" d="M27,134.2c0,1-.77,1.52-2.24,1.52H21.9v-5.59h2.73c1.4,0,2.12.58,2.12,1.45a1.34,1.34,0,0,1-.75,1.23A1.38,1.38,0,0,1,27,134.2Zm-3.85-3.1v1.32h1.29c.63,0,1-.22,1-.66s-.35-.66-1-.66Zm2.55,3c0-.47-.36-.7-1-.7H23.18v1.39h1.51C25.37,134.75,25.73,134.54,25.73,134.06Z" transform="translate(19.6 9.02)"/><path class="cls-1" d="M27.61,133.57A2.21,2.21,0,0,1,30,131.36a2.22,2.22,0,1,1-2.36,2.21Zm3.46,0a1.1,1.1,0,1,0-1.1,1.19A1.09,1.09,0,0,0,31.07,133.57Z" transform="translate(19.6 9.02)"/><path class="cls-1" d="M35.84,131.36v1.15l-.28,0a1.06,1.06,0,0,0-1.14,1.2v2H33.17v-4.3h1.19V132A1.71,1.71,0,0,1,35.84,131.36Z" transform="translate(19.6 9.02)"/><path class="cls-1" d="M40.93,129.79v5.93h-1.2v-.49a1.66,1.66,0,0,1-1.34.56,2.22,2.22,0,0,1,0-4.43,1.63,1.63,0,0,1,1.29.52v-2.09Zm-1.23,3.78a1.1,1.1,0,1,0-1.09,1.19A1.09,1.09,0,0,0,39.7,133.57Z" transform="translate(19.6 9.02)"/><path class="cls-1" d="M46.27,133.92H43a1.14,1.14,0,0,0,1.23.87,1.48,1.48,0,0,0,1.08-.42l.66.72a2.51,2.51,0,0,1-4.23-1.52,2.18,2.18,0,0,1,2.3-2.21,2.12,2.12,0,0,1,2.23,2.23C46.29,133.68,46.28,133.82,46.27,133.92ZM43,133.2h2.12a1.07,1.07,0,0,0-2.12,0Z" transform="translate(19.6 9.02)"/><path class="cls-1" d="M50.81,133.27v2.45H49.65v-.53a1.43,1.43,0,0,1-1.32.6c-1,0-1.6-.56-1.6-1.31s.53-1.28,1.85-1.28h1c0-.54-.32-.85-1-.85a2,2,0,0,0-1.24.4l-.45-.87a3.27,3.27,0,0,1,1.85-.52C50.05,131.36,50.81,132,50.81,133.27Zm-1.24,1.09v-.44h-.86c-.58,0-.77.22-.77.51s.27.52.71.52A.92.92,0,0,0,49.57,134.36Z" transform="translate(19.6 9.02)"/><path class="cls-1" d="M56.28,131.42v4.3H55.09v-.51a1.83,1.83,0,0,1-3.17-1.36v-2.43h1.25v2.25c0,.72.32,1,.87,1s1-.37,1-1.16v-2.13Z" transform="translate(19.6 9.02)"/><path class="cls-1" d="M60.17,135.72l-.94-1.32-1,1.32H56.9l1.65-2.16L57,131.42h1.4l.91,1.26.94-1.26h1.33l-1.6,2.1,1.66,2.2Z" transform="translate(19.6 9.02)"/><path class="cls-1" d="M5.8,160.2c0,1-.76,1.52-2.23,1.52H.67v-5.59H3.41c1.4,0,2.11.58,2.11,1.45a1.33,1.33,0,0,1-.74,1.23A1.39,1.39,0,0,1,5.8,160.2ZM2,157.1v1.32H3.25c.63,0,1-.22,1-.66s-.34-.66-1-.66Zm2.54,3c0-.47-.36-.7-1-.7H2v1.39H3.47C4.14,160.75,4.5,160.54,4.5,160.06Z" transform="translate(19.6 9.02)"/><path class="cls-1" d="M10.51,159.27v2.45H9.34v-.53a1.41,1.41,0,0,1-1.31.6c-1,0-1.61-.56-1.61-1.31S7,159.2,8.27,159.2h1c0-.54-.32-.85-1-.85a2,2,0,0,0-1.24.4l-.45-.87a3.3,3.3,0,0,1,1.86-.52C9.75,157.36,10.51,158,10.51,159.27Zm-1.25,1.09v-.44H8.41c-.59,0-.77.22-.77.51s.26.52.7.52A.91.91,0,0,0,9.26,160.36Z" transform="translate(19.6 9.02)"/><path class="cls-1" d="M11.37,159.57a2.22,2.22,0,0,1,2.4-2.21,2,2,0,0,1,1.92,1.09l-1,.52a1.15,1.15,0,1,0-1,1.79,1.06,1.06,0,0,0,1-.59l1,.53a2,2,0,0,1-1.92,1.09A2.23,2.23,0,0,1,11.37,159.57Z" transform="translate(19.6 9.02)"/><path class="cls-1" d="M16,159.57a2.22,2.22,0,0,1,2.4-2.21,2,2,0,0,1,1.93,1.09l-1,.52a1.09,1.09,0,0,0-1-.59,1.19,1.19,0,0,0,0,2.38,1.05,1.05,0,0,0,1-.59l1,.53a2,2,0,0,1-1.93,1.09A2.23,2.23,0,0,1,16,159.57Z" transform="translate(19.6 9.02)"/><path class="cls-1" d="M24.89,159.27v2.45H23.73v-.53a1.42,1.42,0,0,1-1.31.6c-1,0-1.61-.56-1.61-1.31s.53-1.28,1.85-1.28h1c0-.54-.32-.85-1-.85a2,2,0,0,0-1.24.4l-.45-.87a3.27,3.27,0,0,1,1.85-.52C24.13,157.36,24.89,158,24.89,159.27Zm-1.24,1.09v-.44h-.86c-.58,0-.77.22-.77.51s.27.52.71.52A.92.92,0,0,0,23.65,160.36Z" transform="translate(19.6 9.02)"/><path class="cls-1" d="M26,155.79h1.25v5.93H26Z" transform="translate(19.6 9.02)"/><path class="cls-1" d="M32.24,159.27v2.45H31.07v-.53a1.41,1.41,0,0,1-1.31.6c-1,0-1.61-.56-1.61-1.31s.54-1.28,1.85-1.28h1c0-.54-.32-.85-1-.85a2,2,0,0,0-1.24.4l-.45-.87a3.28,3.28,0,0,1,1.86-.52C31.48,157.36,32.24,158,32.24,159.27ZM31,160.36v-.44h-.85c-.59,0-.77.22-.77.51s.26.52.7.52A.91.91,0,0,0,31,160.36Z" transform="translate(19.6 9.02)"/><path class="cls-1" d="M37.7,157.42v4.3H36.52v-.51a1.74,1.74,0,0,1-1.34.58,1.72,1.72,0,0,1-1.84-1.94v-2.43h1.25v2.25c0,.72.32,1,.87,1s1-.37,1-1.16v-2.13Z" transform="translate(19.6 9.02)"/><path class="cls-1" d="M41.53,157.36v1.15l-.28,0a1.06,1.06,0,0,0-1.14,1.2v2H38.86v-4.3h1.2V158A1.71,1.71,0,0,1,41.53,157.36Z" transform="translate(19.6 9.02)"/><path class="cls-1" d="M46.43,159.92H43.18a1.14,1.14,0,0,0,1.23.87,1.48,1.48,0,0,0,1.08-.42l.66.72a2.51,2.51,0,0,1-4.23-1.52,2.18,2.18,0,0,1,2.29-2.21,2.12,2.12,0,0,1,2.24,2.23C46.45,159.68,46.44,159.82,46.43,159.92Zm-3.27-.72h2.12a1.07,1.07,0,0,0-2.12,0Zm1.28-2.33h-1l1.08-1.15h1.35Z" transform="translate(19.6 9.02)"/><path class="cls-1" d="M51,159.27v2.45H49.81v-.53a1.42,1.42,0,0,1-1.31.6c-1,0-1.61-.56-1.61-1.31s.53-1.28,1.85-1.28h1c0-.54-.32-.85-1-.85a2,2,0,0,0-1.24.4l-.45-.87a3.27,3.27,0,0,1,1.85-.52C50.21,157.36,51,158,51,159.27Zm-1.24,1.09v-.44h-.86c-.58,0-.77.22-.77.51s.27.52.71.52A.92.92,0,0,0,49.73,160.36Z" transform="translate(19.6 9.02)"/><path class="cls-1" d="M54.88,161.52a1.82,1.82,0,0,1-1,.27,1.42,1.42,0,0,1-1.6-1.55v-1.76h-.67v-1h.67v-1.05H53.5v1.05h1.07v1H53.5v1.75a.5.5,0,0,0,.54.57.85.85,0,0,0,.5-.16Z" transform="translate(19.6 9.02)"/><path class="cls-1" d="M57.5,161.17l.44-1a3.3,3.3,0,0,0,1.84.58c.77,0,1.08-.26,1.08-.6,0-1.05-3.25-.33-3.25-2.41,0-1,.77-1.74,2.36-1.74a3.73,3.73,0,0,1,1.94.5l-.4,1a3.13,3.13,0,0,0-1.55-.44c-.77,0-1.06.29-1.06.64,0,1,3.25.32,3.25,2.37,0,.94-.78,1.74-2.38,1.74A3.92,3.92,0,0,1,57.5,161.17Z" transform="translate(19.6 9.02)"/><path class="cls-1" d="M0,174l.25-.27a1.45,1.45,0,0,0,1.24.71c.74,0,1.11-.43,1.11-1.32v-3.59H.54v-.36H3v4c0,1.12-.52,1.68-1.52,1.68A1.74,1.74,0,0,1,0,174Z" transform="translate(19.6 9.02)"/><path class="cls-1" d="M8.44,170.55v4.17H8.05v-.89a1.64,1.64,0,0,1-1.57.92A1.59,1.59,0,0,1,4.74,173v-2.44h.39V173a1.28,1.28,0,0,0,1.38,1.44A1.48,1.48,0,0,0,8,172.77v-2.22Z" transform="translate(19.6 9.02)"/><path class="cls-1" d="M10,169.21a.32.32,0,0,1,.32-.32.32.32,0,1,1-.32.32Zm.13,1.34h.4v4.17h-.4Z" transform="translate(19.6 9.02)"/><path class="cls-1" d="M16,172.28v2.44h-.4v-2.4a1.26,1.26,0,0,0-1.35-1.44,1.49,1.49,0,0,0-1.59,1.62v2.22h-.4v-4.17h.39v.9a1.72,1.72,0,0,1,1.65-.93A1.58,1.58,0,0,1,16,172.28Z" transform="translate(19.6 9.02)"/><path class="cls-1" d="M23,174.36v.36H19.14v-.28l2.37-2.36c.66-.66.79-1.05.79-1.47,0-.71-.49-1.15-1.41-1.15a2,2,0,0,0-1.61.65l-.29-.26a2.5,2.5,0,0,1,1.93-.76c1.09,0,1.8.56,1.8,1.48a2.32,2.32,0,0,1-.91,1.73l-2.07,2.06Z" transform="translate(19.6 9.02)"/><path class="cls-1" d="M23.73,171.92c0-1.75.9-2.83,2.19-2.83s2.19,1.08,2.19,2.83-.9,2.84-2.19,2.84S23.73,173.68,23.73,171.92Zm4,0c0-1.55-.73-2.46-1.78-2.46s-1.79.91-1.79,2.46.73,2.47,1.79,2.47S27.7,173.48,27.7,171.92Z" transform="translate(19.6 9.02)"/><path class="cls-1" d="M30.39,169.13v5.59H30v-5.23H28.61v-.36Z" transform="translate(19.6 9.02)"/><path class="cls-1" d="M35.92,173.08a1.7,1.7,0,0,1-1.87,1.68c-1.47,0-2.24-1-2.24-2.8,0-1.9,1-2.87,2.48-2.87a2.54,2.54,0,0,1,1.27.28l-.16.33a2.12,2.12,0,0,0-1.11-.25c-1.25,0-2.08.82-2.08,2.44a4.4,4.4,0,0,0,0,.67,1.76,1.76,0,0,1,1.79-1.15A1.68,1.68,0,0,1,35.92,173.08Zm-.41,0c0-.8-.58-1.32-1.52-1.32a1.35,1.35,0,1,0,0,2.65A1.33,1.33,0,0,0,35.51,173.08Z" transform="translate(19.6 9.02)"/><path class="cls-1" d="M.67,182.13H2v4.54h2.8v1.05H.67Z" transform="translate(19.6 9.02)"/><path class="cls-1" d="M9.39,183.42,7.45,188a1.78,1.78,0,0,1-1.79,1.35,2,2,0,0,1-1.2-.39l.46-.89a1.1,1.1,0,0,0,.7.27c.35,0,.54-.15.71-.54v0l-1.86-4.33H5.77L7,186.34l1.22-2.92Z" transform="translate(19.6 9.02)"/><path class="cls-1" d="M9.46,185.57a2.22,2.22,0,0,1,2.4-2.21,2,2,0,0,1,1.93,1.09l-1,.52a1.08,1.08,0,0,0-1-.59,1.19,1.19,0,0,0,0,2.38,1,1,0,0,0,1-.59l1,.53a2,2,0,0,1-1.93,1.09A2.23,2.23,0,0,1,9.46,185.57Z" transform="translate(19.6 9.02)"/><path class="cls-1" d="M18.65,185.92H15.39a1.15,1.15,0,0,0,1.23.87,1.45,1.45,0,0,0,1.08-.42l.67.72a2.25,2.25,0,0,1-1.78.7,2.23,2.23,0,0,1-2.45-2.22,2.18,2.18,0,0,1,2.29-2.21,2.13,2.13,0,0,1,2.24,2.23C18.67,185.68,18.65,185.82,18.65,185.92Zm-3.27-.72h2.11a1.07,1.07,0,0,0-2.11,0Zm1.27-2.33h-1l1.08-1.15H18.1Z" transform="translate(19.6 9.02)"/><path class="cls-1" d="M23.69,185.92H20.44a1.15,1.15,0,0,0,1.23.87,1.46,1.46,0,0,0,1.08-.42l.66.72a2.24,2.24,0,0,1-1.77.7,2.24,2.24,0,0,1-2.46-2.22,2.19,2.19,0,0,1,2.3-2.21,2.13,2.13,0,0,1,2.24,2.23C23.72,185.68,23.7,185.82,23.69,185.92Zm-3.27-.72h2.12a1,1,0,0,0-1.05-.9A1,1,0,0,0,20.42,185.2Z" transform="translate(19.6 9.02)"/><path class="cls-1" d="M32,187.72v-3.36l-1.65,2.77h-.58l-1.64-2.69v3.28H26.9v-5.59H28l2.09,3.47,2.06-3.47H33.2v5.59Z" transform="translate(19.6 9.02)"/><path class="cls-1" d="M34.14,185.57a2.36,2.36,0,1,1,2.36,2.22A2.21,2.21,0,0,1,34.14,185.57Zm3.46,0a1.1,1.1,0,1,0-1.1,1.19A1.09,1.09,0,0,0,37.6,185.57Z" transform="translate(19.6 9.02)"/><path class="cls-1" d="M44.09,185.26v2.46H42.85v-2.27c0-.69-.32-1-.88-1s-1,.36-1,1.16v2.12H39.7v-4.3h1.19v.51a1.87,1.87,0,0,1,1.42-.57A1.68,1.68,0,0,1,44.09,185.26Z" transform="translate(19.6 9.02)"/><path class="cls-1" d="M48,187.52a1.82,1.82,0,0,1-1,.27,1.42,1.42,0,0,1-1.6-1.55v-1.76h-.67v-1h.67v-1.05h1.24v1.05h1.07v1H46.62v1.75a.5.5,0,0,0,.54.57.85.85,0,0,0,.5-.16Z" transform="translate(19.6 9.02)"/><path class="cls-1" d="M52.76,185.92H49.5a1.15,1.15,0,0,0,1.23.87,1.45,1.45,0,0,0,1.08-.42l.67.72a2.51,2.51,0,0,1-4.23-1.52,2.18,2.18,0,0,1,2.29-2.21,2.12,2.12,0,0,1,2.24,2.23C52.78,185.68,52.77,185.82,52.76,185.92Zm-3.27-.72h2.12a1,1,0,0,0-1.06-.9A1,1,0,0,0,49.49,185.2Z" transform="translate(19.6 9.02)"/><path class="cls-1" d="M53.2,187.32l.42-.89a2.88,2.88,0,0,0,1.49.41c.58,0,.79-.15.79-.39,0-.7-2.6,0-2.6-1.7,0-.82.74-1.39,2-1.39a3.54,3.54,0,0,1,1.66.37l-.42.89a2.44,2.44,0,0,0-1.24-.32c-.56,0-.8.18-.8.4,0,.74,2.6,0,2.6,1.72,0,.8-.74,1.37-2,1.37A3.61,3.61,0,0,1,53.2,187.32Z" transform="translate(19.6 9.02)"/><path class="cls-1" d="M62.23,183.42v5.85H61v-2a1.66,1.66,0,0,1-1.29.52,2.22,2.22,0,0,1,0-4.43,1.65,1.65,0,0,1,1.35.56v-.5ZM61,185.57a1.1,1.1,0,1,0-1.1,1.19A1.09,1.09,0,0,0,61,185.57Z" transform="translate(19.6 9.02)"/><path class="cls-1" d="M67.72,183.42v4.3H66.53v-.51a1.83,1.83,0,0,1-3.17-1.36v-2.43h1.25v2.25c0,.72.32,1,.87,1s1-.37,1-1.16v-2.13Z" transform="translate(19.6 9.02)"/><path class="cls-1" d="M68.73,182.13a.78.78,0,1,1,.77.69A.71.71,0,0,1,68.73,182.13Zm.15,1.29h1.25v4.3H68.88Z" transform="translate(19.6 9.02)"/><path class="cls-1" d="M75.48,185.92H72.22a1.15,1.15,0,0,0,1.23.87,1.45,1.45,0,0,0,1.08-.42l.67.72A2.51,2.51,0,0,1,71,185.57a2.18,2.18,0,0,1,2.29-2.21,2.12,2.12,0,0,1,2.24,2.23C75.5,185.68,75.48,185.82,75.48,185.92Zm-3.27-.72h2.12a1,1,0,0,0-1.06-.9A1,1,0,0,0,72.21,185.2Z" transform="translate(19.6 9.02)"/><path class="cls-1" d="M80.67,183.42v4.3H79.49v-.51a1.74,1.74,0,0,1-1.34.58,1.72,1.72,0,0,1-1.84-1.94v-2.43h1.25v2.25c0,.72.32,1,.87,1s1-.37,1-1.16v-2.13Z" transform="translate(19.6 9.02)"/><path class="cls-1" d="M89.32,186.2c0,1-.77,1.52-2.24,1.52h-2.9v-5.59h2.74c1.4,0,2.12.58,2.12,1.45a1.34,1.34,0,0,1-.75,1.23A1.38,1.38,0,0,1,89.32,186.2Zm-3.85-3.1v1.32h1.29c.63,0,1-.22,1-.66s-.34-.66-1-.66Zm2.54,3c0-.47-.36-.7-1-.7H85.47v1.39H87C87.65,186.75,88,186.54,88,186.06Z" transform="translate(19.6 9.02)"/><path class="cls-1" d="M89.9,185.57a2.36,2.36,0,1,1,2.36,2.22A2.21,2.21,0,0,1,89.9,185.57Zm3.46,0a1.1,1.1,0,1,0-1.1,1.19A1.09,1.09,0,0,0,93.36,185.57Z" transform="translate(19.6 9.02)"/><path class="cls-1" d="M98.13,183.36v1.15l-.28,0a1.06,1.06,0,0,0-1.15,1.2v2H95.46v-4.3h1.19V184A1.71,1.71,0,0,1,98.13,183.36Z" transform="translate(19.6 9.02)"/><path class="cls-1" d="M103.21,181.79v5.93H102v-.49a1.67,1.67,0,0,1-1.34.56,2.22,2.22,0,0,1,0-4.43,1.64,1.64,0,0,1,1.29.52v-2.09ZM102,185.57a1.1,1.1,0,1,0-1.1,1.19A1.09,1.09,0,0,0,102,185.57Z" transform="translate(19.6 9.02)"/><path class="cls-1" d="M108.56,185.92H105.3a1.15,1.15,0,0,0,1.23.87,1.45,1.45,0,0,0,1.08-.42l.67.72a2.51,2.51,0,0,1-4.23-1.52,2.18,2.18,0,0,1,2.29-2.21,2.12,2.12,0,0,1,2.24,2.23C108.58,185.68,108.57,185.82,108.56,185.92Zm-3.27-.72h2.12a1.07,1.07,0,0,0-2.12,0Z" transform="translate(19.6 9.02)"/><path class="cls-1" d="M113.1,185.27v2.45h-1.17v-.53a1.41,1.41,0,0,1-1.31.6c-1,0-1.6-.56-1.6-1.31s.53-1.28,1.84-1.28h1c0-.54-.32-.85-1-.85a2.09,2.09,0,0,0-1.24.4l-.44-.87a3.25,3.25,0,0,1,1.85-.52C112.34,183.36,113.1,184,113.1,185.27Zm-1.25,1.09v-.44H111c-.58,0-.77.22-.77.51s.26.52.7.52A.91.91,0,0,0,111.85,186.36Z" transform="translate(19.6 9.02)"/><path class="cls-1" d="M118.56,183.42v4.3h-1.18v-.51a1.83,1.83,0,0,1-3.17-1.36v-2.43h1.24v2.25c0,.72.32,1,.88,1s1-.37,1-1.16v-2.13Z" transform="translate(19.6 9.02)"/><path class="cls-1" d="M122.46,187.72l-.94-1.32-1,1.32h-1.36l1.66-2.16-1.6-2.14h1.4l.91,1.26.94-1.26h1.32l-1.6,2.1,1.67,2.2Z" transform="translate(19.6 9.02)"/><polygon class="cls-2" points="119.66 11.21 102.13 15.93 99.6 16.61 98.86 13.88 91.05 15.98 91.78 18.71 71.72 24.11 72.68 27.69 68.78 28.74 70.08 33.57 73.98 32.52 74.95 36.1 95.01 30.7 95.75 33.44 103.56 31.34 102.83 28.6 105.35 27.92 122.89 23.2 121.93 19.62 125.83 18.57 124.53 13.74 120.63 14.79 119.66 11.21"/><rect class="cls-3" x="45.96" y="9.94" width="57.73" height="5" transform="translate(18.93 28.89) rotate(-15.06)"/><rect class="cls-4" x="50" y="6.24" width="49.65" height="12.42" transform="matrix(0.97, -0.26, 0.26, 0.97, 18.93, 28.89)"/><rect class="cls-5" x="70.77" y="3.4" width="8.09" height="18.08" transform="matrix(0.97, -0.26, 0.26, 0.97, 18.93, 28.89)"/><rect class="cls-6" x="72.1" y="16.25" width="8.09" height="2.22" transform="translate(17.7 29.4) rotate(-15.06)"/><rect class="cls-7" x="78.68" y="4.84" width="2.62" height="12.42" transform="translate(19.47 30.19) rotate(-15.06)"/><rect class="cls-8" x="69.29" y="8.46" width="11.06" height="7.97" transform="translate(18.93 28.89) rotate(-15.06)"/><rect class="cls-9" x="71.89" y="10.33" width="5.87" height="4.22" transform="translate(18.93 28.89) rotate(-15.06)"/><rect class="cls-10" x="71.52" y="10.38" width="5.87" height="1.39" transform="translate(19.27 28.75) rotate(-15.06)"/><line class="cls-11" y2="205.32"/></g></g></svg>