<svg xmlns="http://www.w3.org/2000/svg" viewBox="0 0 188.39 109.62"><defs><style>.cls-1{fill:#1d1d1b;}.cls-2{fill:none;stroke:#bf2a18;stroke-linecap:round;stroke-linejoin:round;}.cls-3{fill:#575751;}</style></defs><g id="Calque_2" data-name="Calque 2"><g id="hobbies"><path class="cls-1" d="M0,26.7V19.43H1.82v2.72H4.55V19.43H6.36V26.7H4.55V23.06H1.82V26.7Z"/><path class="cls-1" d="M.91,37.2v-.91H0V33.56H.91v-.91H5.45v.91h.91v2.73H5.45v.91Zm3.64-.91V33.56H1.82v2.73Z"/><path class="cls-1" d="M0,47.7V40.43H1.82v2.72H5.45v.91h.91v2.73H5.45v.91Zm4.55-.91V44.06H1.82v2.73Z"/><path class="cls-1" d="M0,58.2V50.93H1.82v2.72H5.45v.91h.91v2.73H5.45v.91Zm4.55-.91V54.56H1.82v2.73Z"/><path class="cls-1" d="M2.27,63.24V61.43H4.09v1.81Zm0,5.46V64.15H4.09V68.7Z"/><path class="cls-1" d="M.91,79.2v-.91H0V75.56H.91v-.91H5.45v.91h.91v1.82H1.82v.91H5.45v.91Zm3.64-2.73v-.91H1.82v.91Z"/><path class="cls-1" d="M0,89.7v-.91H4.55v-.91H.91V87H0v-.91H.91v-.91H5.45v.91H1.82V87H5.45v.91h.91v.91H5.45v.91Z"/><line class="cls-2" x1="15.51" y1="0.5" x2="15.51" y2="109.12"/><path class="cls-3" d="M59.66,16.36a6.42,6.42,0,0,1,6.4,6.4,6.42,6.42,0,0,1-6.4,6.41,6.27,6.27,0,0,1-4.23-1.6H52.68a6.27,6.27,0,0,1-4.23,1.6,6.4,6.4,0,0,1-6.4-6.41,6.4,6.4,0,0,1,6.4-6.4Zm-7.21,7.2V22a.39.39,0,0,0-.11-.28.38.38,0,0,0-.29-.12h-2.4v-2.4a.44.44,0,0,0-.11-.29.42.42,0,0,0-.29-.11h-1.6a.42.42,0,0,0-.29.11.44.44,0,0,0-.11.29v2.4h-2.4a.37.37,0,0,0-.29.12.36.36,0,0,0-.11.28v1.6a.38.38,0,0,0,.4.4h2.4v2.41a.39.39,0,0,0,.11.28.38.38,0,0,0,.29.12h1.6a.38.38,0,0,0,.29-.12.39.39,0,0,0,.11-.28V24h2.4a.38.38,0,0,0,.29-.11A.4.4,0,0,0,52.45,23.56Zm6.74,1.94a1.61,1.61,0,1,0-1.13.47A1.56,1.56,0,0,0,59.19,25.5Zm3.2-3.2a1.57,1.57,0,0,0,.47-1.14A1.6,1.6,0,0,0,60.13,20a1.51,1.51,0,0,0-.47,1.13,1.61,1.61,0,0,0,2.73,1.14Z"/><path class="cls-3" d="M182.53,14.36V31.17a1.92,1.92,0,0,1-.58,1.41,2,2,0,0,1-1.42.59h-20a2,2,0,0,1-2-2V14.36a1.93,1.93,0,0,1,.59-1.41,1.89,1.89,0,0,1,1.41-.59h20a2,2,0,0,1,2,2Zm-19.21,2v-1.6a.82.82,0,0,0-.8-.8h-1.6a.76.76,0,0,0-.56.24.74.74,0,0,0-.24.56v1.6a.82.82,0,0,0,.8.8h1.6a.74.74,0,0,0,.56-.24A.76.76,0,0,0,163.32,16.36Zm0,4.8v-1.6a.77.77,0,0,0-.24-.56.74.74,0,0,0-.56-.24h-1.6a.76.76,0,0,0-.56.24.77.77,0,0,0-.24.56v1.6a.8.8,0,0,0,.8.8h1.6a.77.77,0,0,0,.56-.23A.78.78,0,0,0,163.32,21.16Zm0,4.81v-1.6a.78.78,0,0,0-.24-.57.74.74,0,0,0-.56-.24h-1.6a.76.76,0,0,0-.56.24.78.78,0,0,0-.24.57V26a.77.77,0,0,0,.24.56.76.76,0,0,0,.56.24h1.6a.74.74,0,0,0,.56-.24A.77.77,0,0,0,163.32,26Zm0,4.8v-1.6a.82.82,0,0,0-.8-.8h-1.6a.76.76,0,0,0-.56.24.74.74,0,0,0-.24.56v1.6a.82.82,0,0,0,.8.8h1.6a.74.74,0,0,0,.56-.24A.76.76,0,0,0,163.32,30.77Zm12.81-9.61v-6.4a.74.74,0,0,0-.24-.56.76.76,0,0,0-.56-.24h-9.61a.77.77,0,0,0-.56.24.74.74,0,0,0-.24.56v6.4a.78.78,0,0,0,.24.57.8.8,0,0,0,.56.23h9.61a.8.8,0,0,0,.8-.8Zm0,9.61v-6.4a.78.78,0,0,0-.24-.57.76.76,0,0,0-.56-.24h-9.61a.82.82,0,0,0-.8.81v6.4a.76.76,0,0,0,.24.56.77.77,0,0,0,.56.24h9.61a.82.82,0,0,0,.8-.8Zm4.8-14.41v-1.6a.77.77,0,0,0-.23-.56.78.78,0,0,0-.57-.24h-1.6a.77.77,0,0,0-.56.24.74.74,0,0,0-.24.56v1.6a.76.76,0,0,0,.24.56.77.77,0,0,0,.56.24h1.6a.8.8,0,0,0,.8-.8Zm0,4.8v-1.6a.8.8,0,0,0-.23-.56.78.78,0,0,0-.57-.24h-1.6a.82.82,0,0,0-.8.8v1.6a.78.78,0,0,0,.24.57.8.8,0,0,0,.56.23h1.6a.79.79,0,0,0,.8-.8Zm0,4.81v-1.6a.81.81,0,0,0-.23-.57.78.78,0,0,0-.57-.24h-1.6a.82.82,0,0,0-.8.81V26a.82.82,0,0,0,.8.8h1.6a.78.78,0,0,0,.57-.24A.8.8,0,0,0,180.93,26Zm0,4.8v-1.6a.77.77,0,0,0-.23-.56.78.78,0,0,0-.57-.24h-1.6a.77.77,0,0,0-.56.24.74.74,0,0,0-.24.56v1.6a.76.76,0,0,0,.24.56.77.77,0,0,0,.56.24h1.6a.8.8,0,0,0,.8-.8Z"/><path class="cls-3" d="M121.12,17a2.56,2.56,0,0,1,2.56,2.55v8.94a2.56,2.56,0,0,1-2.56,2.56h-14a2.56,2.56,0,0,1-2.56-2.56V19.57A2.56,2.56,0,0,1,107.08,17h2.23l.51-1.36a1.85,1.85,0,0,1,.69-.84,1.77,1.77,0,0,1,1-.36h5.1a1.77,1.77,0,0,1,1,.36,1.85,1.85,0,0,1,.69.84l.51,1.36ZM110.94,27.2a4.47,4.47,0,1,0,6.32-6.32,4.47,4.47,0,1,0-6.32,6.32ZM112.07,22a2.87,2.87,0,1,1-.84,2A2.77,2.77,0,0,1,112.07,22Z"/><path class="cls-3" d="M63.29,63a1.51,1.51,0,0,1,.7.52,1.68,1.68,0,0,1,.22,1.53L60.93,75.9A2.54,2.54,0,0,1,60,77.18a2.44,2.44,0,0,1-1.46.52h-11a3,3,0,0,1-1.77-.64,3.42,3.42,0,0,1-1.19-1.57,2.18,2.18,0,0,1,0-1.51,3,3,0,0,1,0-.33c0-.18,0-.32,0-.44a.6.6,0,0,0,0-.25.65.65,0,0,1,0-.24.87.87,0,0,1,.1-.25l.19-.28a1.88,1.88,0,0,0,.2-.28,8.51,8.51,0,0,0,.54-1.09A7.6,7.6,0,0,0,46,69.73a1.06,1.06,0,0,0,0-.36.67.67,0,0,1,.2-.66,1.75,1.75,0,0,0,.2-.28,7.14,7.14,0,0,0,.5-1.09,4.75,4.75,0,0,0,.3-1.08,1.48,1.48,0,0,0,0-.38c0-.18,0-.29,0-.33a.93.93,0,0,1,.26-.37l.26-.27a5,5,0,0,0,.51-1,5.37,5.37,0,0,0,.33-1.15,1.52,1.52,0,0,0,0-.31.7.7,0,0,1,0-.31.61.61,0,0,1,.1-.22c.06-.08.13-.17.22-.27l.2-.25a3.91,3.91,0,0,0,.2-.37l.18-.41a3.8,3.8,0,0,1,.19-.43,1.66,1.66,0,0,1,.23-.38,1.11,1.11,0,0,1,.32-.28.73.73,0,0,1,.42-.14,2.51,2.51,0,0,1,.57.06v0a3.44,3.44,0,0,1,.61-.11h9.07a1.59,1.59,0,0,1,1.36.67,1.68,1.68,0,0,1,.21,1.55L59.06,72.4a4.69,4.69,0,0,1-.85,1.83,2.2,2.2,0,0,1-1.54.41H46.31a.53.53,0,0,0-.45.18.55.55,0,0,0,0,.52c.19.55.76.83,1.71.83h11a1.38,1.38,0,0,0,.67-.18.87.87,0,0,0,.41-.5l3.58-11.77a1.73,1.73,0,0,0,.06-.68Zm-13,3.59a.31.31,0,0,0,0,.27.26.26,0,0,0,.24.11h7.25a.47.47,0,0,0,.3-.11.52.52,0,0,0,.2-.27l.25-.76a.36.36,0,0,0,0-.27.28.28,0,0,0-.24-.11H51.07a.56.56,0,0,0-.31.11.61.61,0,0,0-.19.27Zm1-3a.32.32,0,0,0,0,.27.28.28,0,0,0,.24.11h7.25a.53.53,0,0,0,.3-.11.56.56,0,0,0,.2-.27l.25-.76a.35.35,0,0,0,0-.27.26.26,0,0,0-.24-.12H52.06a.51.51,0,0,0-.31.12.52.52,0,0,0-.19.27Z"/><path class="cls-3" d="M179.84,71.12a7.39,7.39,0,0,1-1,1.72,4.48,4.48,0,0,1-1.13,1.1,4.6,4.6,0,0,1-1.23.58,4.1,4.1,0,0,1-1.27.18,11.65,11.65,0,0,1-1.2-.1,5,5,0,0,1-1.08-.28l-.87-.34a3.78,3.78,0,0,1-.57-.28l-.21-.13a12.14,12.14,0,0,1-3.61,4.48,7.89,7.89,0,0,1-4.79,1.66.54.54,0,0,1-.4-.17.52.52,0,0,1-.16-.4.53.53,0,0,1,.16-.39.57.57,0,0,1,.4-.15,6.9,6.9,0,0,0,4-1.34,10.62,10.62,0,0,0,3.13-3.67,8.26,8.26,0,0,1-.89.28,6.84,6.84,0,0,1-1,.17A4.7,4.7,0,0,1,167,74a4.35,4.35,0,0,1-1.16-.35,4.6,4.6,0,0,1-1.15-.74,5.59,5.59,0,0,1-1.05-1.24,9.68,9.68,0,0,1-.93-1.82,9.49,9.49,0,0,1,2.67-.71,6,6,0,0,1,2.08.09,4.91,4.91,0,0,1,1.56.71,5.41,5.41,0,0,1,1.1,1,6.67,6.67,0,0,1,.7,1,17.17,17.17,0,0,0,1-3.63l-.23,0-.58,0c-.29,0-.58,0-.86,0a9.81,9.81,0,0,1-1-.13,7.07,7.07,0,0,1-1.1-.28,5.75,5.75,0,0,1-1-.53,4.59,4.59,0,0,1-.93-.81,4,4,0,0,1-.68-1.18,5.61,5.61,0,0,1-.36-1.59,7.11,7.11,0,0,1,1.67-.46,4.33,4.33,0,0,1,1.4,0,4.84,4.84,0,0,1,1.15.37,3.56,3.56,0,0,1,.91.62,9.84,9.84,0,0,1,.7.76,4.87,4.87,0,0,1,.52.79c.14.26.25.49.35.7a4.26,4.26,0,0,1,.19.49l.05.2q.15-1.53.15-2.43l-.26-.2a5.42,5.42,0,0,1-.61-.56,7.39,7.39,0,0,1-.8-.89,6.36,6.36,0,0,1-.67-1.16,4.56,4.56,0,0,1-.41-1.4,4.06,4.06,0,0,1,.15-1.58,5.22,5.22,0,0,1,.87-1.73,6.92,6.92,0,0,1,1.59.77,4.28,4.28,0,0,1,1.05,1,4.88,4.88,0,0,1,.6,1.06,3.57,3.57,0,0,1,.26,1.11,7.61,7.61,0,0,1,0,1.07,4.59,4.59,0,0,1-.16,1c-.08.29-.16.55-.24.77a2.9,2.9,0,0,1-.21.53l-.09.18a5.63,5.63,0,0,1,0,.63c0,.38,0,.68,0,.89l.13-.23c.06-.09.18-.27.38-.53a6.22,6.22,0,0,1,.63-.73,5.87,5.87,0,0,1,.88-.69,5,5,0,0,1,1.14-.55,4.25,4.25,0,0,1,1.4-.18,5.54,5.54,0,0,1,1.65.3,6.77,6.77,0,0,1-.27,1.76,4.25,4.25,0,0,1-.62,1.3,4.59,4.59,0,0,1-.87.89,3.3,3.3,0,0,1-1,.57,7.36,7.36,0,0,1-1.06.3,6.06,6.06,0,0,1-1,.12h-.84l-.58-.06-.22,0A18.11,18.11,0,0,1,172,72a2.45,2.45,0,0,1,.23-.23,6.4,6.4,0,0,1,.62-.51,7.45,7.45,0,0,1,1-.66,6.71,6.71,0,0,1,1.24-.52,5.1,5.1,0,0,1,1.47-.25,4.73,4.73,0,0,1,1.6.29A5.9,5.9,0,0,1,179.84,71.12Z"/><path class="cls-3" d="M122.29,59.37V73.32a1.64,1.64,0,0,1-.42,1.11,2.82,2.82,0,0,1-1.08.76,7.09,7.09,0,0,1-1.29.4,6.46,6.46,0,0,1-1.2.13,6.65,6.65,0,0,1-1.2-.13,7.09,7.09,0,0,1-1.29-.4,2.78,2.78,0,0,1-1.07-.76,1.63,1.63,0,0,1,0-2.21,2.78,2.78,0,0,1,1.07-.76,7.09,7.09,0,0,1,1.29-.4,6.65,6.65,0,0,1,1.2-.13,5.68,5.68,0,0,1,2.39.49V64.73l-9.57,3v8.84a1.63,1.63,0,0,1-.42,1.1,2.78,2.78,0,0,1-1.07.76,7.09,7.09,0,0,1-1.29.4,5.65,5.65,0,0,1-2.41,0,7.61,7.61,0,0,1-1.29-.4,2.78,2.78,0,0,1-1.07-.76,1.66,1.66,0,0,1,0-2.21,2.78,2.78,0,0,1,1.07-.76,7.61,7.61,0,0,1,1.29-.4,6.66,6.66,0,0,1,1.21-.13,5.68,5.68,0,0,1,2.39.49v-12a1.23,1.23,0,0,1,.85-1.15l10.36-3.19a1.23,1.23,0,0,1,.35,0,1.2,1.2,0,0,1,1.2,1.2Z"/><path class="cls-3" d="M33.63,40.56l.22-.24a1.27,1.27,0,0,0,1.08.62c.65,0,1-.37,1-1.15V36.65H34.1v-.32h2.16v3.46c0,1-.45,1.47-1.33,1.47A1.53,1.53,0,0,1,33.63,40.56Z"/><path class="cls-3" d="M40.91,39.48H37.76a1.57,1.57,0,0,0,2.72,1l.2.23a1.75,1.75,0,0,1-1.38.6,1.8,1.8,0,0,1-1.88-1.86,1.75,1.75,0,1,1,3.49,0Zm-3.14-.27h2.8a1.4,1.4,0,0,0-2.8,0Z"/><path class="cls-3" d="M45.2,37.57v3.66h-.34v-.79a1.44,1.44,0,0,1-1.38.82A1.41,1.41,0,0,1,42,39.71V37.57h.35v2.11a1.12,1.12,0,0,0,1.21,1.26,1.29,1.29,0,0,0,1.34-1.42v-2Z"/><path class="cls-3" d="M49,41.23,47.75,39.6,46.5,41.23h-.4l1.45-1.89-1.38-1.77h.4l1.18,1.52,1.18-1.52h.39L48,39.34l1.47,1.89Z"/><path class="cls-3" d="M49.86,39.19h1.8v.32h-1.8Z"/><path class="cls-3" d="M55.69,37.57,54,41.23h-.36L52,37.57h.37l1.46,3.27,1.47-3.27Z"/><path class="cls-3" d="M56.34,36.4a.28.28,0,0,1,.29-.28.28.28,0,1,1-.29.28Zm.11,1.17h.35v3.66h-.35Z"/><path class="cls-3" d="M61.53,36v5.2h-.35v-.86a1.62,1.62,0,0,1-1.49.89,1.86,1.86,0,0,1,0-3.72,1.65,1.65,0,0,1,1.49.88V36Zm-.35,3.37a1.47,1.47,0,1,0-1.47,1.54A1.45,1.45,0,0,0,61.18,39.4Z"/><path class="cls-3" d="M66.09,39.48H63a1.56,1.56,0,0,0,2.71,1l.21.23a1.78,1.78,0,0,1-1.38.6A1.8,1.8,0,0,1,62.6,39.4a1.75,1.75,0,1,1,3.5,0S66.09,39.45,66.09,39.48ZM63,39.21h2.81a1.41,1.41,0,0,0-2.81,0ZM64.33,37H64l1-.83h.5Z"/><path class="cls-3" d="M66.78,39.4a1.83,1.83,0,1,1,1.83,1.86A1.78,1.78,0,0,1,66.78,39.4Zm3.3,0a1.47,1.47,0,1,0-1.47,1.54A1.45,1.45,0,0,0,70.08,39.4Z"/><path class="cls-3" d="M71,40.79l.16-.28a2.19,2.19,0,0,0,1.32.44c.77,0,1.08-.27,1.08-.69,0-1.06-2.42-.28-2.42-1.71,0-.56.46-1,1.38-1a2.26,2.26,0,0,1,1.26.36l-.17.28a1.87,1.87,0,0,0-1.09-.33c-.72,0-1,.3-1,.69,0,1.1,2.42.32,2.42,1.71,0,.6-.51,1-1.44,1A2.34,2.34,0,0,1,71,40.79Z"/><path class="cls-3" d="M106.88,38c0,1-.75,1.64-2,1.64h-1.4v1.61h-.36v-4.9h1.76C106.13,36.33,106.88,36.94,106.88,38Zm-.37,0c0-.85-.56-1.33-1.61-1.33h-1.4V39.3h1.4C106,39.3,106.51,38.82,106.51,38Z"/><path class="cls-3" d="M111.31,39.09v2.14H111V39.12a1.11,1.11,0,0,0-1.19-1.26,1.3,1.3,0,0,0-1.38,1.42v1.95H108V36h.35v2.31a1.5,1.5,0,0,1,1.43-.8A1.39,1.39,0,0,1,111.31,39.09Z"/><path class="cls-3" d="M112.36,39.4a1.83,1.83,0,1,1,1.82,1.86A1.78,1.78,0,0,1,112.36,39.4Zm3.29,0a1.47,1.47,0,1,0-1.47,1.54A1.45,1.45,0,0,0,115.65,39.4Z"/><path class="cls-3" d="M118.91,41a1.14,1.14,0,0,1-.75.26.91.91,0,0,1-1-1V37.87h-.67v-.3h.67v-.8h.35v.8h1.17v.3h-1.17v2.36a.64.64,0,0,0,.68.73.82.82,0,0,0,.57-.21Z"/><path class="cls-3" d="M119.35,39.4a1.83,1.83,0,1,1,1.83,1.86A1.78,1.78,0,0,1,119.35,39.4Zm3.3,0a1.47,1.47,0,1,0-1.47,1.54A1.45,1.45,0,0,0,122.65,39.4Z"/><path class="cls-3" d="M157.19,38.78a2.45,2.45,0,0,1,2.54-2.49,2.36,2.36,0,0,1,1.74.68l-.22.23a2.06,2.06,0,0,0-1.51-.58,2.16,2.16,0,1,0,0,4.31,2.06,2.06,0,0,0,1.51-.58l.22.23a2.36,2.36,0,0,1-1.74.68A2.44,2.44,0,0,1,157.19,38.78Z"/><path class="cls-3" d="M162.44,36.4a.29.29,0,0,1,.29-.28.28.28,0,1,1-.29.28Zm.11,1.17h.35v3.66h-.35Z"/><path class="cls-3" d="M167.65,39.09v2.14h-.35V39.12a1.1,1.1,0,0,0-1.18-1.26,1.31,1.31,0,0,0-1.39,1.42v1.95h-.35V37.57h.34v.79a1.5,1.5,0,0,1,1.45-.82A1.39,1.39,0,0,1,167.65,39.09Z"/><path class="cls-3" d="M172.19,39.48H169a1.57,1.57,0,0,0,2.72,1l.2.23a1.75,1.75,0,0,1-1.38.6,1.8,1.8,0,0,1-1.88-1.86,1.75,1.75,0,1,1,3.49,0Zm-3.14-.27h2.8a1.4,1.4,0,0,0-2.8,0ZM170.43,37h-.38l1-.83h.5Z"/><path class="cls-3" d="M179.29,39.09v2.14h-.35V39.12c0-.83-.43-1.26-1.15-1.26a1.28,1.28,0,0,0-1.33,1.42v1.95h-.35V39.12c0-.83-.43-1.26-1.14-1.26a1.28,1.28,0,0,0-1.34,1.42v1.95h-.35V37.57h.33v.79a1.46,1.46,0,0,1,1.4-.82,1.3,1.3,0,0,1,1.34.89,1.54,1.54,0,0,1,1.48-.89A1.38,1.38,0,0,1,179.29,39.09Z"/><path class="cls-3" d="M183.37,38.91v2.32H183v-.65a1.41,1.41,0,0,1-1.32.68c-.82,0-1.31-.42-1.31-1s.35-1,1.36-1H183V38.9a1,1,0,0,0-1.09-1,1.92,1.92,0,0,0-1.26.46l-.18-.25a2.27,2.27,0,0,1,1.47-.52A1.25,1.25,0,0,1,183.37,38.91ZM183,40.15v-.69h-1.25c-.76,0-1,.32-1,.74s.37.77,1,.77A1.25,1.25,0,0,0,183,40.15Z"/><path class="cls-3" d="M38.42,87.2l-1.17-1.64a3.73,3.73,0,0,1-.48,0h-1.4v1.6H35V82.3h1.76c1.23,0,2,.62,2,1.65a1.51,1.51,0,0,1-1.15,1.54l1.22,1.71Zm-1.65-1.92c1,0,1.61-.49,1.61-1.33s-.56-1.33-1.61-1.33h-1.4v2.66Z"/><path class="cls-3" d="M39.54,85.37a1.83,1.83,0,1,1,1.83,1.86A1.78,1.78,0,0,1,39.54,85.37Zm3.3,0a1.47,1.47,0,1,0-1.47,1.54A1.45,1.45,0,0,0,42.84,85.37Z"/><path class="cls-3" d="M50.29,85.06V87.2h-.35V85.09c0-.82-.43-1.26-1.14-1.26a1.29,1.29,0,0,0-1.34,1.42v2h-.35V85.09c0-.82-.43-1.26-1.14-1.26a1.29,1.29,0,0,0-1.34,1.42v2h-.35V83.55h.34v.78a1.45,1.45,0,0,1,1.4-.81,1.3,1.3,0,0,1,1.34.88,1.53,1.53,0,0,1,1.47-.88A1.37,1.37,0,0,1,50.29,85.06Z"/><path class="cls-3" d="M54.37,84.88V87.2H54v-.65a1.4,1.4,0,0,1-1.31.68c-.82,0-1.32-.42-1.32-1s.35-1,1.37-1H54v-.29a1,1,0,0,0-1.09-1,1.92,1.92,0,0,0-1.26.46L51.5,84A2.17,2.17,0,0,1,53,83.52,1.24,1.24,0,0,1,54.37,84.88ZM54,86.12v-.68H52.77c-.75,0-1,.31-1,.73s.37.77,1,.77A1.25,1.25,0,0,0,54,86.12Z"/><path class="cls-3" d="M59.08,85.06V87.2h-.35V85.09a1.11,1.11,0,0,0-1.18-1.26,1.31,1.31,0,0,0-1.39,1.42v2h-.35V83.55h.34v.79a1.5,1.5,0,0,1,1.45-.82A1.38,1.38,0,0,1,59.08,85.06Z"/><path class="cls-3" d="M60,86.76l.16-.28a2.12,2.12,0,0,0,1.32.44c.77,0,1.08-.27,1.08-.69,0-1.06-2.42-.28-2.42-1.71,0-.55.46-1,1.38-1a2.34,2.34,0,0,1,1.26.35l-.17.28a1.86,1.86,0,0,0-1.09-.32c-.72,0-1,.29-1,.68,0,1.1,2.42.32,2.42,1.72,0,.59-.51,1-1.44,1A2.28,2.28,0,0,1,60,86.76Z"/><path class="cls-3" d="M65.28,86.57l.16-.27a2.34,2.34,0,0,0,1.62.62c1,0,1.41-.43,1.41-1,0-1.47-3.06-.59-3.06-2.39,0-.7.54-1.31,1.74-1.31a2.66,2.66,0,0,1,1.48.44L68.5,83a2.45,2.45,0,0,0-1.35-.41c-1,0-1.38.44-1.38,1,0,1.47,3.06.6,3.06,2.38,0,.69-.55,1.3-1.76,1.3A2.54,2.54,0,0,1,65.28,86.57Z"/><path class="cls-3" d="M70.4,82.62v2.09H73V85H70.4V87.2H70V82.3h3.28v.32Z"/><path class="cls-3" d="M104.45,84.78l-1.1,1.13V87.2H103V82.3h.35v3.15l3.07-3.15h.43l-2.16,2.23L107,87.2h-.44Z"/><path class="cls-3" d="M107.28,85.16h1.8v.32h-1.8Z"/><path class="cls-3" d="M114.1,84c0,1-.74,1.65-2,1.65h-1.41v1.6h-.35V82.3h1.76C113.36,82.3,114.1,82.92,114.1,84Zm-.36,0c0-.85-.56-1.33-1.61-1.33h-1.41v2.65h1.41C113.18,85.27,113.74,84.79,113.74,84Z"/><path class="cls-3" d="M114.77,85.37a1.83,1.83,0,1,1,1.83,1.86A1.78,1.78,0,0,1,114.77,85.37Zm3.3,0a1.47,1.47,0,1,0-1.47,1.54A1.45,1.45,0,0,0,118.07,85.37Z"/><path class="cls-3" d="M123.15,85.37a1.77,1.77,0,0,1-1.81,1.86,1.64,1.64,0,0,1-1.48-.86v2.19h-.35v-5h.34v.86a1.62,1.62,0,0,1,1.49-.89A1.77,1.77,0,0,1,123.15,85.37Zm-.35,0a1.48,1.48,0,1,0-1.48,1.54A1.46,1.46,0,0,0,122.8,85.37Z"/><path class="cls-3" d="M157,85.91c0,.82-.6,1.29-1.81,1.29H153V82.3h2c1.05,0,1.69.44,1.69,1.25a1.12,1.12,0,0,1-.82,1.12A1.19,1.19,0,0,1,157,85.91Zm-3.63-3.3v2H155c.85,0,1.34-.33,1.34-1s-.49-1-1.34-1Zm3.27,3.27c0-.7-.51-1-1.45-1h-1.82v2h1.82C156.11,86.89,156.62,86.59,156.62,85.88Z"/><path class="cls-3" d="M157.74,85.37a1.83,1.83,0,1,1,1.83,1.86A1.78,1.78,0,0,1,157.74,85.37Zm3.3,0a1.47,1.47,0,1,0-1.47,1.54A1.45,1.45,0,0,0,161,85.37Z"/><path class="cls-3" d="M164.29,87a1.11,1.11,0,0,1-.74.26.91.91,0,0,1-1-1V83.85h-.67v-.3h.67v-.8h.35v.8h1.16v.3H162.9V86.2c0,.47.23.73.68.73a.86.86,0,0,0,.57-.2Z"/><path class="cls-3" d="M167.91,84.88V87.2h-.34v-.65a1.41,1.41,0,0,1-1.32.68c-.81,0-1.31-.42-1.31-1s.35-1,1.36-1h1.26v-.29a1,1,0,0,0-1.09-1,1.92,1.92,0,0,0-1.26.46L165,84a2.17,2.17,0,0,1,1.46-.52A1.24,1.24,0,0,1,167.91,84.88Zm-.35,1.24v-.68h-1.25c-.76,0-1,.31-1,.73s.37.77,1,.77A1.25,1.25,0,0,0,167.56,86.12Z"/><path class="cls-3" d="M172.62,85.06V87.2h-.35V85.09a1.11,1.11,0,0,0-1.19-1.26,1.3,1.3,0,0,0-1.38,1.42v2h-.35V83.55h.33v.79a1.52,1.52,0,0,1,1.45-.82A1.39,1.39,0,0,1,172.62,85.06Z"/><path class="cls-3" d="M174,82.38a.28.28,0,0,1,.28-.29.28.28,0,0,1,.29.28.28.28,0,0,1-.29.29A.28.28,0,0,1,174,82.38Zm.11,1.17h.35V87.2h-.35Z"/><path class="cls-3" d="M179.14,83.55v5h-.35V86.35a1.64,1.64,0,0,1-1.5.88,1.86,1.86,0,0,1,0-3.71,1.61,1.61,0,0,1,1.5.89v-.86Zm-.35,1.82a1.48,1.48,0,1,0-1.47,1.54A1.45,1.45,0,0,0,178.79,85.37Z"/><path class="cls-3" d="M183.81,83.55V87.2h-.33v-.78a1.45,1.45,0,0,1-1.38.81,1.41,1.41,0,0,1-1.53-1.55V83.55h.35v2.1a1.11,1.11,0,0,0,1.2,1.26,1.28,1.28,0,0,0,1.34-1.42V83.55Z"/><path class="cls-3" d="M188.38,85.46h-3.14a1.57,1.57,0,0,0,2.72.94l.2.23a1.73,1.73,0,0,1-1.38.6,1.79,1.79,0,0,1-1.88-1.86,1.75,1.75,0,1,1,3.49,0S188.38,85.42,188.38,85.46Zm-3.13-.28h2.8a1.4,1.4,0,0,0-2.8,0Z"/></g></g></svg>