<svg xmlns="http://www.w3.org/2000/svg" viewBox="0 0 194.33 65.93"><defs><style>.cls-1{fill:#1d1d1b;}.cls-2{fill:none;stroke:#bf2a18;stroke-linecap:round;stroke-linejoin:round;}.cls-3{fill:#fbd405;}.cls-4{fill:#020303;}.cls-5{fill:#e62d3c;}.cls-6{fill:#fcfcfc;}.cls-7{fill:#256eb5;}.cls-8{fill:#e10f1a;}.cls-9{fill:#c4cbc8;}.cls-10{fill:#d11c31;}.cls-11{fill:#23305e;}.cls-12{fill:#575751;}</style></defs><g id="Calque_2" data-name="Calque 2"><g id="langues"><path class="cls-1" d="M.46,8.13V1.71H2.27V7.33H5.91v.8Z"/><path class="cls-1" d="M.91,17.4v-.8H0v-.8H.91V15H4.55v-.8H.91v-.8H5.45v.8h.91V17.4Zm3.64-.8v-.8H1.82v.8Z"/><path class="cls-1" d="M0,26.68v-4H5.45v.8h.91v3.21H4.55V23.47H1.82v3.21Z"/><path class="cls-1" d="M.91,38.36v-.8H4.55V36H.91v-.81H0V32.74H.91v-.8H6.36v5.62H5.45v.8Zm3.64-3.21V32.74H1.82v2.41Z"/><path class="cls-1" d="M.91,45.23v-.8H0V41.22H1.82v3.21H4.55V41.22H6.36v3.21H5.45v.8Z"/><path class="cls-1" d="M.91,54.51V53.7H0V51.3H.91v-.81H5.45v.81h.91v1.6H1.82v.8H5.45v.81ZM4.55,52.1v-.8H1.82v.8Z"/><path class="cls-1" d="M0,63.78V63H4.55v-.8H.91v-.81H0v-.8H.91v-.8H5.45v.8H1.82v.8H5.45v.81h.91V63H5.45v.8Z"/><line class="cls-2" x1="15.51" y1="0.5" x2="15.51" y2="65.43"/><path class="cls-3" d="M120.14,35.93c-.76-.08-1.74.63-2.13-.77-.12-.43-1-.12-1.51-.18s-1.13.23-1.31-.68c-.09-.51-.74-.18-1.11-.29-.65-.19-1.68.55-1.89-.8,0-.29-.56-.09-.84-.22q0-10.17,0-20.33c.29,0,.79-.2.83.11.13,1.16,1,.7,1.57.79s1.4-.36,1.61.77c.07.39.77.11,1.17.19.62.12,1.39-.38,1.75.76.18.56,1.22.06,1.84.29Q120.13,25.74,120.14,35.93Z"/><path class="cls-4" d="M111.36,12.66q0,10.15,0,20.33c-2,0-3.91.09-5.87.07-.73,0-1.09.17-1,.95l-1.06.07-.89-.06c0-6.51,0-13,0-19.53,0-.75.2-1.07,1-1,.51.07,1,.09,1-.68,0-.31.32-.28.55-.27Z"/><path class="cls-5" d="M120.14,35.93q0-10.18,0-20.36a32,32,0,0,1,5.45-.05c1.28.08,1.62-.92,2.28-1.54.21-.2.3-.47.65-.44s.35.44.35.72q0,3.9,0,7.8c0,3.64,0,7.29,0,10.94,0,.44.2.91-.6,1.12a2.54,2.54,0,0,0-1.21,1.23c-.25.71-.61.68-1.1.67C124,36,122.07,36.14,120.14,35.93Z"/><path class="cls-6" d="M103.45,34.08l1.06-.07c0,4.76,0,9.51,0,14.27,0,.89-.4,1-1.07.8Z"/><path class="cls-6" d="M49.5,13.51c.43,0,1-.19,1,.58,0,.47.43.31.71.37.84.19,2-.58,2.48.86.06.18,1,.06,1.53.09s1.12-.19,1.16.69c0,.33.41.27.67.29l1.25.09q0,10.18,0,20.38c-.76-.06-1.72.68-2.12-.74-.13-.46-1-.12-1.51-.19s-1.21.27-1.41-.71c-.1-.49-.81-.16-1.24-.26-.61-.13-1.52.44-1.67-.78,0-.31-.54-.13-.83-.18Z"/><path class="cls-7" d="M49.5,13.51V34c-1.94,0-3.88,0-5.81,0-.78,0-1.07.26-1,1l-1.11,0-1,0c0-6.48,0-13,0-19.45,0-.87.24-1.21,1.12-1.09.35.05.85.17,1-.38s.56-.54,1-.54Z"/><path class="cls-8" d="M58.28,36.86q0-10.18,0-20.38c1.82,0,3.65-.19,5.46,0,1.26.11,1.52-1,2.28-1.45.18-.12.21-.61.66-.53s.34.55.34.85q0,4.24,0,8.5Q67,28.88,67,34c0,.45.09.81-.59,1.13a2.38,2.38,0,0,0-1.32,1.43.46.46,0,0,1-.55.43C62.46,36.9,60.37,37.05,58.28,36.86Z"/><path class="cls-6" d="M41.61,35l1.11,0c0,4.7,0,9.4,0,14.1,0,.87-.29,1.12-1.08.92Q41.61,42.51,41.61,35Z"/><path class="cls-9" d="M41.61,35q0,7.5,0,15c-1,.28-1-.35-1-1,0-4.67,0-9.35,0-14Z"/><path class="cls-10" d="M181.39,35.22c-.81,0-1.86.56-2.19-.83,0-.1-.5-.08-.77-.12,0-2.6,0-5.2,0-7.8,0-.75-.16-1.06-.95-1-.32,0-.93.26-1-.29,0-.76-.48-.65-.93-.65-2,0-4,0-5.94,0-.79,0-1.08.22-.88,1l0,0-2,0,0-3c.77-.18,2.06.69,2.05-1,2.25,0,4.49,0,6.73,0,.34,0,.88-.24,1,.36.13,1.09.94.53,1.42.57.79.06.5-.63.5-1,0-2.55,0-5.11,0-7.66.47,0,.85-.17,1.09.57s1.21.16,1.82.38a.31.31,0,0,0,.07.2V22.5c0,.33-.19.67.12.95l.48.05.29.08.11.76c.12.32.36.2.57.15h.53l.08,0,.08,0h6.83c.3,0,.67.21.59-.36l.07-.52v0c.31-.15.91.16.93-.41,0-.78.55-.57,1-.62l0,2.9c-.78-.15-1,.22-.93.95l0,0c-.37.13-1-.2-1,.61,0,.49-.37.4-.65.4h-7.43c-.28,0-.68.11-.7-.36s-.15-.68-.61-.6-.35.54-.35.85C181.38,30,181.39,32.59,181.39,35.22Z"/><path class="cls-11" d="M182.41,15.71h8.65c0,.31.08.62.11.93-.62,0-1.24,0-.95.91-.34.18-1-.19-1.05.34,0,.72-.58.62-.92.86l-.11.92a8.6,8.6,0,0,1-1-.05c-.84-.13-1,.29-.84,1-.73.23-2-.7-2.07,1-.71-.12-1.07.13-.9.89l-.3.12c-.45,0-.68-.14-.67-.67C182.39,19.85,182.39,17.78,182.41,15.71Z"/><path class="cls-11" d="M166.73,21.58V16.65a4.57,4.57,0,0,1,.91,0c.84.18,1.2-.14,1.14-1h2.81c-.06.67,0,1.19.91,1a2,2,0,0,0,2.1,1.86V19s-.06.05-.06.08,0,.12.06.19c0,.79.65.27,1,.44.08.73-.21,1-1,.95-1.7-.06-3.41,0-5.11,0-.47,0-.89,0-.74.66C168.13,21.78,167.4,21.49,166.73,21.58Z"/><path class="cls-11" d="M166.73,31.37c0-1.65,0-3.29,0-4.94a3.86,3.86,0,0,1,.9,0c.83.19,1.18-.15,1.16-1l0,0c1.93,0,3.87,0,5.8,0,.76,0,1.06.21,1,1-.31.17-.93-.35-1,.44-.09.16-.13.39-.27.47a2.61,2.61,0,0,0-1.63,2c-.8-.14-1.26.08-1.1,1a13.7,13.7,0,0,0-2.79.05c-.33.24-.05.63-.25.9Z"/><path class="cls-11" d="M193,26.47c0,1.62,0,3.24,0,4.87-.76-.15-1.07.17-.93.93l0,0c-.56,0-1.19,0-1,.89a.2.2,0,0,0-.19.08l-2.8.21c.22-.81,0-1.27-.94-1.16.21-.82-.18-1.06-.93-.93.11-.73-.07-1.17-.93-.93-.17-.32.28-.9-.42-1a.73.73,0,0,1-.64-.64c.47-.64,1.15-.19,1.72-.33,1.85-.43,3.94.93,5.66-.94.39-.41.34-.71.47-1.08l0,0Z"/><path class="cls-6" d="M171.61,33.33c-2.87,0-2.88,0-2.88,2.9,0,4,0,8.06,0,12.09,0,.88-.21,1.25-1.11.94,0-4.61,0-9.22,0-13.83,0-.62,0-1.21-.87-1.12,0-.32,0-.63,0-1h1.23l.7-.17,0-.8,2.82-.13Z"/><path class="cls-11" d="M171.61,33.33c0-.36,0-.72,0-1.07l0,0c.91.26,1-.23.93-1l.94,0c.39-.22.1-.63.24-.91.75.15,1-.18.88-.89l.07,0V29.4c.71.14,1-.1.87-.86l.08,0,0-.09c.69.15,1.07,0,.9-.83.83-.14,1,.22,1,1-.06,1.9,0,3.79,0,5.69-.26,0-.73,0-.75-.06-.37-1.43-1.51-.78-2.34-.86S172.53,33.34,171.61,33.33Z"/><path class="cls-6" d="M192.12,26.43c-.13.37-.08.67-.47,1.08-1.72,1.87-3.81.51-5.66.94-.57.14-1.25-.31-1.72.33s-.62.7-.84-.08c-.1-.35-.4-.43-.73-.4s-.35.2-.31.47-.21.71.38.74.36.54.45.86c-.68-.09-.92.16-.89.89,0,1.34,0,2.68,0,4l-.9-.06c0-2.63,0-5.26,0-7.89,0-.31-.18-.75.35-.85s.6.17.61.6.42.36.7.36h7.43c.28,0,.68.09.65-.4C191.1,26.23,191.75,26.56,192.12,26.43Z"/><path class="cls-11" d="M182.29,35.28c0-1.34.09-2.68,0-4,0-.73.21-1,.89-.89l0,.06h.06c-.13.69.05,1.09.85.91a2.87,2.87,0,0,0,2.12,2.1c-.24.86.32.92.93.94l0,0c0,.52-.09,1.11.77.89a.24.24,0,0,0,.17,0l0,.92c-1.62,0-3.25,0-4.87,0C182.55,36.27,182.23,36,182.29,35.28Z"/><path class="cls-11" d="M171.62,12.77c1.11,0,2.22,0,3.33,0,.65,0,1.52-.35,1.68.81,0,.13.54.19.83.28,0,1.3-.06,2.61,0,3.91,0,.79-.28,1-1,1,.27-1.17-.95-1.36-1.41-2s-1.17-.89-1.42-1.51-.55-.4-.9-.41c-.17-.28,0-.65-.24-.9s-.57-.07-.86-.08a.12.12,0,0,0-.06-.19Z"/><path class="cls-6" d="M182.41,15.71c0,2.07,0,4.14-.07,6.2,0,.53.22.67.67.67.3.38,0,1.25,1,1.08.65-.12.3-.8.66-1.07l1,0h.17l.51-.15h0l-.07.07,0,.1c-.09.68.16.93.89.9,1.34,0,2.68,0,4,.06,0,.17,0,.35-.07.52l-.59.36h-6.82c-.06-.1-.11-.11-.17,0H183a.65.65,0,0,0-.58-.15c0-.25-.08-.5-.11-.76a.19.19,0,0,0-.29-.08l-.48-.05c0-.32.14-.66-.12-.95V15l.19-.2C182.44,14.6,182.31,15.26,182.41,15.71Z"/><path class="cls-6" d="M176.48,18.75c.7.05,1-.19,1-1-.06-1.3,0-2.61,0-3.91l1,0c0,2.55,0,5.11,0,7.66,0,.39.29,1.08-.5,1-.48,0-1.29.52-1.42-.57-.07-.6-.61-.36-1-.36-2.24,0-4.48,0-6.73,0a2.76,2.76,0,0,0-.08-.27c-.15-.67.27-.66.74-.66,1.7,0,3.41,0,5.11,0,.76,0,1-.22,1-.95h.93c.12.31-.26.81.34.92a.76.76,0,0,0,.52-.08.5.5,0,0,0,.1-.63c-.23-.46-.64-.21-1-.19l0-1Z"/><path class="cls-6" d="M177.45,34.29c0-1.9,0-3.79,0-5.69,0-.79-.17-1.15-1-1l0,0c.09-.73,0-1.32-1-1.18h0c.09-.74-.21-1-1-1-1.93.05-3.87,0-5.8,0-.2-.77.09-1,.88-1,2,.05,4,0,5.94,0,.45,0,.9-.11.93.65,0,.55.64.32,1,.29.79-.07,1,.24.95,1,0,2.6,0,5.2,0,7.8Z"/><path class="cls-11" d="M191.16,23.61c-1.34,0-2.68-.1-4-.06-.73,0-1-.22-.89-.9l1.16-.11h.5c.13.11.17.05.19-.08a1.48,1.48,0,0,0,0-.93,1.45,1.45,0,0,0,.92,0c.33-.23.09-.62.25-.9,1,.2.94-1.21,1.81-1.25-.28-.91,1-.41,1-1.06-.06-.81.52-.55.93-.61,0,1.3,0,2.6,0,3.9-.69-.11-1.12.06-.92.88-.84,0-1.27.27-1,1.17Z"/><path class="cls-9" d="M166.78,34.31c.89-.09.87.5.87,1.12,0,4.61,0,9.22,0,13.83-.52.1-.94.09-.94-.62Q166.76,41.47,166.78,34.31Z"/><path class="cls-6" d="M193,17.68c-.41.06-1-.2-.93.61,0,.65-1.25.15-1,1.06-.87,0-.78,1.45-1.81,1.25a1.58,1.58,0,0,1,.71-1.55c.59-.39.76-.9.2-1.49-.29-.93.33-.92.95-.91h0c0,.18,0,.37,0,.55s-.09.64.4.63.61-.21.58-.63c0-.19,0-.37,0-.56l0,0,.94.05Z"/><path class="cls-6" d="M171.62,12.77l0,.85c-.31,0-.65-.09-.93.14-.41,0-.83,0-1.24,0s-.76,0-.75.56l-.1.36H166.8c0-.29-.14-.86.08-.82,1.48.25,2.26-1.73,3.82-1.15A2.56,2.56,0,0,0,171.62,12.77Z"/><path class="cls-6" d="M188.17,36.2l0-.92h3c.1.71-.16,1-.93,1S188.86,36.21,188.17,36.2Z"/><path class="cls-9" d="M168.73,21.26a2.76,2.76,0,0,1,.08.27c0,1.72-1.28.85-2.05,1l0-1C167.4,21.49,168.13,21.78,168.73,21.26Z"/><path class="cls-10" d="M168.75,33.19l-.7.17h-1.23l0-1.08,1.78,0Z"/><path class="cls-10" d="M193,32.3a1.09,1.09,0,0,1-.19,1.08c-.73,0-.79.43-.75,1l0,0-.94,0v-.92c.94.1,1-.54,1-1.19l0,0Z"/><path class="cls-6" d="M168.78,15.7c.06.84-.3,1.16-1.14,1a4.57,4.57,0,0,0-.91,0c0-.3.05-.59.07-.89h1.94l0-.07Z"/><path class="cls-6" d="M168.8,25.49c0,.81-.33,1.15-1.16,1a3.86,3.86,0,0,0-.9,0c0-.3,0-.6,0-.9Z"/><path class="cls-6" d="M191.17,16.65c0-.31-.07-.62-.11-.93,0-.68.24-1.13,1-1,0,.63,0,1.25,0,1.88l0,0h-.94Z"/><path class="cls-6" d="M168.57,32.25l-1.78,0-.06-.91,1.82,0C168.56,31.65,168.56,32,168.57,32.25Z"/><path class="cls-10" d="M168.66,15.77H166.8v-1h1.77Z"/><path class="cls-10" d="M192.09,16.65c0-.63,0-1.25,0-1.88v0l.93,0V16.7Z"/><path class="cls-9" d="M191.15,23.63c-.31-.9.12-1.21,1-1.17l.91,0a.21.21,0,0,1,0,.19c-.42,0-.93-.17-1,.61C192.06,23.79,191.46,23.48,191.15,23.63Z"/><path class="cls-6" d="M191.16,34.36l.94,0c.14.77-.23,1-.95.94h0l0-.92Z"/><path class="cls-6" d="M193,32.3l-.93,0c-.14-.76.17-1.08.93-.93Z"/><path class="cls-6" d="M193,14.75l-.93,0c.1-.35-.27-.95.47-1S193,14.38,193,14.75Z"/><path class="cls-6" d="M193,26.47l-.94,0c-.11-.73.15-1.1.93-.95Z"/><path class="cls-6" d="M193,22.42l-.91,0c-.2-.82.23-1,.92-.88Z"/><path class="cls-6" d="M192.08,34.36c0-.55,0-1,.75-1C193.15,34.24,193.15,34.24,192.08,34.36Z"/><path class="cls-9" d="M181.6,14.78l-.19.2a.31.31,0,0,1-.07-.2Z"/><path class="cls-9" d="M190.5,24.49l.59-.36C191.17,24.7,190.8,24.53,190.5,24.49Z"/><path class="cls-9" d="M181.41,22.5c.26.29.14.63.12.95C181.22,23.17,181.37,22.83,181.41,22.5Z"/><path class="cls-9" d="M182.41,24.34a.65.65,0,0,1,.58.15C182.77,24.54,182.53,24.66,182.41,24.34Z"/><path class="cls-9" d="M182,23.5a.19.19,0,0,1,.29.08Z"/><path class="cls-9" d="M183.51,24.49c.06-.11.11-.1.17,0l-.09,0Z"/><path class="cls-6" d="M188.14,21.54a1.48,1.48,0,0,1,0,.93.15.15,0,0,0-.19.08h-.5a2,2,0,0,0-1.13-.06h0c0-.59,0-1.14-.91-.74a.93.93,0,0,1-1-.22l-.22,0,0,0c.06-1.66,1.34-.73,2.07-1h0c-.11.68,0,1.12.86,1a8.77,8.77,0,0,1,1-.05Z"/><path class="cls-9" d="M190.22,17.56c.56.59.39,1.1-.2,1.49a1.58,1.58,0,0,0-.71,1.55c-.16.28.08.67-.25.9v-.85l0-1.09c0-.59-.24-.86-.83-.8.34-.24.89-.14.92-.86C189.2,17.37,189.88,17.74,190.22,17.56Z"/><path class="cls-6" d="M186.28,20.61c-.15-.69,0-1.11.84-1a8.6,8.6,0,0,0,1,.05h0v.95l0,0h-1.87Z"/><path class="cls-9" d="M184.64,22.59c-.36.27,0,.95-.66,1.07-.93.17-.67-.7-1-1.08l.3-.12.83,0Z"/><path class="cls-6" d="M188.25,18.76c.59-.06.87.21.83.8l-1,.11h0Z"/><path class="cls-6" d="M184.14,22.48l-.83,0c-.17-.76.19-1,.9-.89l0,0,.05.48Z"/><path class="cls-6" d="M172.75,14.79c.35,0,.67-.18.9.41s1,1,1.42,1.51,1.68.87,1.41,2v0c-.75-.12-1.15.12-1,.95h0c-.31-.17-.94.35-1-.44v-.71a1.26,1.26,0,0,0-.46-1.39,11.93,11.93,0,0,1-1.51-1.65V15Z"/><path class="cls-9" d="M172.63,15.48a11.93,11.93,0,0,0,1.51,1.65,1.26,1.26,0,0,1,.46,1.39,2,2,0,0,1-2.1-1.86l0-.84Z"/><path class="cls-6" d="M171.59,15.7h-2.81c0-.28,0-.56,0-.83a13.38,13.38,0,0,1,2.83-.09l0,0v.93Z"/><path class="cls-6" d="M172.53,15.82l0,.84c-.89.23-1-.29-.91-1v0Z"/><path class="cls-9" d="M174.59,19v.27c0-.07-.05-.13-.06-.19S174.57,19,174.59,19Z"/><path class="cls-9" d="M173.69,30.38c-.14.28.15.69-.24.91a3.39,3.39,0,0,0-.76-1.89,2.61,2.61,0,0,1,1.63-2c.14-.08.18-.31.27-.47-.11.79.74,1,1,1.54l0,.09-.08,0c-.65-.08-.95.2-.87.86v.07l-.07,0C173.88,29.39,173.61,29.71,173.69,30.38Z"/><path class="cls-6" d="M168.8,30.45a13.7,13.7,0,0,1,2.79-.05h0v.95l0,0-2.78,0Z"/><path class="cls-6" d="M172.69,29.4a3.39,3.39,0,0,1,.76,1.89l-.94,0,0,0c.13-.76-.12-1.15-.95-.95h0C171.43,29.48,171.89,29.26,172.69,29.4Z"/><path class="cls-6" d="M175.57,28.42c-.24-.57-1.09-.75-1-1.54s.65-.27,1-.44h0c-.09.71-.14,1.4,1,1.18l0,0C176.64,28.38,176.26,28.57,175.57,28.42Z"/><path class="cls-9" d="M168.8,30.45c0,.28,0,.57,0,.85l0,1.09,0,.8-.18-.94c0-.3,0-.6,0-.9C168.75,31.08,168.47,30.69,168.8,30.45Z"/><path class="cls-9" d="M186.28,33.43a2.87,2.87,0,0,1-2.12-2.1c0-.55.12-1.25-.85-.91h-.06l0-.06c-.09-.32.17-.84-.45-.86s-.34-.44-.38-.74,0-.44.31-.47.63.05.73.4c.22.78.51.61.84.08a.73.73,0,0,0,.64.64c-.51.09-.48.5-.51.87-.1.73-.33,1.58.95,1h0c-.18.8.13,1.13.94,1v1.17Z"/><path class="cls-6" d="M188.13,33.43l2.8-.21c0,.43,0,.83-.44,1h-1a1.58,1.58,0,0,0-1.17,0c-.24-.22-.07-.53-.19-.78Z"/><path class="cls-6" d="M187.19,32.27c.93-.11,1.16.35.94,1.16h-.94l0,0V32.25Z"/><path class="cls-6" d="M192.11,32.25c0,.65,0,1.29-1,1.19l0-.3C190.92,32.25,191.55,32.29,192.11,32.25Z"/><path class="cls-6" d="M186.26,31.34c.75-.13,1.14.11.93.93l0,0h-.94v-.93Z"/><path class="cls-6" d="M185.33,30.41c.86-.24,1,.2.93.93l0,0h-.93v-.94Z"/><path class="cls-6" d="M184.4,30.29c0-.37,0-.78.51-.87.7.09.25.67.42,1l0,0Z"/><path class="cls-9" d="M191.12,33.14l0,.3v.92h0l-.69-.11c.49-.2.49-.6.44-1A.2.2,0,0,1,191.12,33.14Z"/><path class="cls-10" d="M168.78,32.39l0-1.09,2.78,0v1l0,0Z"/><path class="cls-9" d="M167.8,33.37h0Z"/><path class="cls-6" d="M171.58,32.28v-1l0,0h1l0,0C172.62,32.05,172.49,32.54,171.58,32.28Z"/><path class="cls-6" d="M173.69,30.38c-.08-.67.19-1,.88-.89C174.7,30.2,174.44,30.53,173.69,30.38Z"/><path class="cls-6" d="M174.64,29.4c-.08-.66.22-.94.87-.86C175.68,29.3,175.35,29.54,174.64,29.4Z"/><path class="cls-10" d="M190.49,34.25l.69.11,0,.92h-3a.24.24,0,0,1-.17,0c.59-1-.09-1-.77-.89l0,0,0-1h.95c.12.25,0,.56.19.78a1.53,1.53,0,0,0,1.17,0Z"/><path class="cls-6" d="M183.31,30.42c1-.34.83.36.85.91C183.36,31.51,183.18,31.11,183.31,30.42Z"/><path class="cls-6" d="M187.19,33.41l0,1c-.61,0-1.17-.08-.93-.94h.94Z"/><path class="cls-6" d="M187.19,34.35c.68-.07,1.36-.14.77.89C187.1,35.46,187.19,34.87,187.19,34.35Z"/><path class="cls-6" d="M171.65,13.81c.29,0,.59-.1.86.08,0,.28,0,.56,0,.84l-.93,0,0,0v-.94Z"/><path class="cls-9" d="M172.5,14.73c0-.28,0-.56,0-.84.28.25.07.62.24.9l-.12.23Z"/><path class="cls-9" d="M170.66,13.76c.28-.23.62-.11.93-.14a.12.12,0,0,1,.06.19l-.05,0Z"/><path class="cls-10" d="M184.14,22.48l.1-.45c0-.17.11-.34.17-.51a.93.93,0,0,0,1,.22c.88-.4.89.15.91.74l-.51.15-.08-.06-.09.05-1,0Z"/><path class="cls-9" d="M186.28,22.48a2,2,0,0,1,1.13.06l-1.16.11,0-.1Z"/><path class="cls-9" d="M185.6,22.62l.09-.05.08.06Z"/><path class="cls-10" d="M175.54,19.68c-.2-.83.2-1.07,1-.95l0,1,0,0Z"/><path class="cls-10" d="M176.45,19.7c.35,0,.76-.27,1,.19a.5.5,0,0,1-.1.63.76.76,0,0,1-.52.08c-.6-.11-.22-.61-.34-.92Z"/><path class="cls-10" d="M176.49,27.61c-1.09.22-1-.47-1-1.18C176.52,26.29,176.58,26.88,176.49,27.61Z"/><path class="cls-6" d="M189.06,20.65v.85a1.45,1.45,0,0,1-.92,0h0v-1l0,0Z"/><path class="cls-9" d="M187.91,22.55a.15.15,0,0,1,.19-.08C188.08,22.6,188,22.66,187.91,22.55Z"/><path class="cls-10" d="M191.16,16.64h1c0,.19,0,.37,0,.56,0,.42-.15.62-.58.63s-.4-.34-.4-.63S191.15,16.82,191.16,16.64Z"/><path class="cls-10" d="M170.66,13.76l.94.09v.94a13.38,13.38,0,0,0-2.83.09c0-.18-.07-.36-.1-.53,0-.54.34-.58.75-.56S170.25,13.77,170.66,13.76Z"/><path class="cls-9" d="M168.67,14.35c0,.17.07.35.1.53s0,.55,0,.83l0,.07h-.08l-.09-1.06C168.6,14.59,168.63,14.47,168.67,14.35Z"/><path class="cls-10" d="M188.15,20.59v1a8.77,8.77,0,0,0-1,.05c-.83.12-1-.32-.86-1Z"/><path class="cls-9" d="M184.41,21.52c-.06.17-.12.34-.17.51,0-.16,0-.32-.05-.48Z"/><path class="cls-10" d="M189.06,20.65l-.94,0v-.95l1-.11C189.07,19.93,189.06,20.29,189.06,20.65Z"/><path class="cls-10" d="M172.5,14.73l.13.29v.46l-.1.34-.95-.1v-1Z"/><path class="cls-10" d="M172.53,31.34h-1v-.95C172.41,30.19,172.66,30.58,172.53,31.34Z"/><path class="cls-10" d="M187.22,33.44h-.94V32.25h.94Z"/><path class="cls-10" d="M184.4,30.29l.95.1v.94C184.07,31.87,184.3,31,184.4,30.29Z"/><path class="cls-10" d="M185.34,31.32h.94v1C185.47,32.45,185.16,32.12,185.34,31.32Z"/><path class="cls-9" d="M189.5,34.25a1.53,1.53,0,0,1-1.17,0A1.58,1.58,0,0,1,189.5,34.25Z"/><path class="cls-12" d="M47.46,48.44A2.45,2.45,0,0,1,50,46a2.35,2.35,0,0,1,1.74.67l-.22.24A2,2,0,0,0,50,46.28a2.16,2.16,0,1,0,0,4.32A2.09,2.09,0,0,0,51.53,50l.22.23a2.33,2.33,0,0,1-1.74.69A2.46,2.46,0,0,1,47.46,48.44Z"/><path class="cls-12" d="M52.27,49.06a1.83,1.83,0,1,1,1.82,1.86A1.77,1.77,0,0,1,52.27,49.06Zm3.29,0a1.47,1.47,0,1,0-1.47,1.55A1.45,1.45,0,0,0,55.56,49.06Z"/><path class="cls-12" d="M60.21,47.24v3.65h-.34v-.78a1.45,1.45,0,0,1-1.38.81A1.4,1.4,0,0,1,57,49.37V47.24h.35v2.1a1.12,1.12,0,0,0,1.21,1.27,1.29,1.29,0,0,0,1.33-1.43V47.24Z"/><path class="cls-12" d="M63.42,47.21v.34h-.09c-.81,0-1.29.54-1.29,1.45v1.9h-.35V47.24H62V48A1.39,1.39,0,0,1,63.42,47.21Z"/><path class="cls-12" d="M67,48.57v2.32h-.33v-.65a1.41,1.41,0,0,1-1.32.68c-.82,0-1.32-.42-1.32-1s.35-1,1.37-1h1.25v-.29a1,1,0,0,0-1.08-1,1.9,1.9,0,0,0-1.26.46l-.18-.25a2.27,2.27,0,0,1,1.47-.52A1.24,1.24,0,0,1,67,48.57Zm-.35,1.24v-.68H65.43c-.76,0-1,.31-1,.73s.37.77,1,.77A1.24,1.24,0,0,0,66.67,49.81Z"/><path class="cls-12" d="M71.73,48.76v2.13h-.35v-2.1a1.11,1.11,0,0,0-1.18-1.27A1.31,1.31,0,0,0,68.81,49v1.94h-.35V47.24h.34V48a1.51,1.51,0,0,1,1.45-.82A1.38,1.38,0,0,1,71.73,48.76Z"/><path class="cls-12" d="M75,50.66a1.09,1.09,0,0,1-.75.26.91.91,0,0,1-1-1V47.54h-.67v-.3h.67v-.8h.35v.8h1.17v.3H73.59v2.35a.64.64,0,0,0,.68.73.86.86,0,0,0,.57-.2Z"/><path class="cls-12" d="M115,50.89V46.7l-2,3.54h-.17l-2.06-3.53v4.18h-.35V46h.31l2.19,3.79L115.05,46h.29v4.9Z"/><path class="cls-12" d="M116.83,46.07a.29.29,0,1,1,.29.28A.29.29,0,0,1,116.83,46.07Zm.11,1.17h.35v3.65h-.35Z"/><path class="cls-12" d="M120.58,50.66a1.07,1.07,0,0,1-.75.26.9.9,0,0,1-1-1V47.54h-.67v-.3h.67v-.8h.35v.8h1.16v.3h-1.16v2.35c0,.47.23.73.68.73a.86.86,0,0,0,.57-.2Z"/><path class="cls-12" d="M123.27,50.66a1.07,1.07,0,0,1-.75.26.9.9,0,0,1-1-1V47.54h-.67v-.3h.67v-.8h.35v.8H123v.3h-1.16v2.35c0,.47.23.73.68.73a.82.82,0,0,0,.56-.2Z"/><path class="cls-12" d="M124.24,45.7h.35v5.19h-.35Z"/><path class="cls-12" d="M129.16,49.15H126a1.47,1.47,0,0,0,1.54,1.46,1.45,1.45,0,0,0,1.17-.52l.21.24a1.77,1.77,0,0,1-1.38.59,1.8,1.8,0,0,1-1.89-1.86,1.75,1.75,0,1,1,3.5,0S129.16,49.11,129.16,49.15ZM126,48.88h2.8a1.37,1.37,0,0,0-1.4-1.36A1.39,1.39,0,0,0,126,48.88Z"/><path class="cls-12" d="M132,47.21v.34h-.08c-.82,0-1.3.54-1.3,1.45v1.9h-.35V47.24h.34V48A1.37,1.37,0,0,1,132,47.21Z"/><path class="cls-12" d="M136,49.15h-3.15a1.48,1.48,0,0,0,1.55,1.46,1.46,1.46,0,0,0,1.17-.52l.21.24a1.77,1.77,0,0,1-1.38.59,1.8,1.8,0,0,1-1.89-1.86,1.75,1.75,0,1,1,3.5,0S136,49.11,136,49.15Zm-3.14-.27h2.8a1.4,1.4,0,0,0-2.8,0Z"/><path class="cls-12" d="M173.17,45.5v2.1h2.62v.32h-2.62v2.16h-.35v-4.9h3.27v.32Z"/><path class="cls-12" d="M177.12,44.89h.35v5.19h-.35Z"/><path class="cls-12" d="M182.15,46.43v3.65h-.34V49.3a1.43,1.43,0,0,1-1.38.81,1.39,1.39,0,0,1-1.52-1.55V46.43h.35v2.11a1.11,1.11,0,0,0,1.2,1.26,1.29,1.29,0,0,0,1.34-1.43V46.43Z"/><path class="cls-12" d="M186.72,48.34h-3.14a1.47,1.47,0,0,0,1.54,1.46,1.45,1.45,0,0,0,1.17-.52l.21.24a1.77,1.77,0,0,1-1.38.59,1.8,1.8,0,0,1-1.89-1.86,1.75,1.75,0,1,1,3.5,0S186.72,48.3,186.72,48.34Zm-3.14-.27h2.8a1.4,1.4,0,0,0-2.8,0Z"/><path class="cls-12" d="M191.08,48v2.13h-.35V48a1.11,1.11,0,0,0-1.18-1.26,1.31,1.31,0,0,0-1.39,1.43v1.94h-.35V46.43h.34v.79a1.5,1.5,0,0,1,1.45-.82A1.38,1.38,0,0,1,191.08,48Z"/><path class="cls-12" d="M194.33,49.85a1.06,1.06,0,0,1-.74.26.91.91,0,0,1-1-1V46.73h-.67v-.3h.67v-.8h.35v.8h1.16v.3h-1.16v2.35c0,.47.23.73.68.73a.86.86,0,0,0,.57-.2Z"/></g></g></svg>