<svg xmlns="http://www.w3.org/2000/svg" viewBox="0 0 292.08 46.07"><defs><style>.cls-1{fill:#bf2a18;}.cls-2{fill:#9e2319;}.cls-3{fill:#7f1c14;}.cls-4{fill:#e25f3f;}.cls-5{fill:#cf4e34;}.cls-6{fill:#e67854;}.cls-7{fill:#6f180e;}</style></defs><g id="Calque_2" data-name="Calque 2"><g id="header"><polygon class="cls-1" points="292.08 17.13 292.08 5.9 261.14 5.9 261.14 46.07 292.08 46.07 292.08 34.84 283.63 34.84 283.63 17.13 292.08 17.13"/><polygon class="cls-1" points="0 5.9 0 17.13 8.45 17.13 8.45 34.84 0 34.84 0 46.07 30.94 46.07 30.94 5.9 0 5.9"/><rect class="cls-2" x="261.14" y="5.9" width="6.56" height="40.18" transform="translate(528.84 51.97) rotate(180)"/><rect class="cls-2" x="24.18" y="5.9" width="6.56" height="40.18" transform="translate(54.92 51.97) rotate(180)"/><polygon class="cls-3" points="30.74 46.07 30.74 35.24 46.65 35.24 30.74 46.07"/><polygon class="cls-3" points="261.14 46.07 245.23 35.24 261.14 35.24 261.14 46.07"/><rect class="cls-4" x="30.74" width="230.4" height="35.24"/><rect class="cls-5" x="30.74" y="29.35" width="230.4" height="5.9"/><rect class="cls-6" x="30.74" width="230.4" height="5.9"/><path class="cls-7" d="M82.39,24.36H73.1v-1h-1V15.06h1V14h9.29V16.1H76.2v6.19h2.06V20.23h-1V18.16h5.16Z"/><path class="cls-7" d="M94.62,24.36H90.49V20.23H88.43v4.13H84.29v-9.3h1V14h8.26v1h1Zm-4.13-6.2V16.1H88.43v2.06Z"/><path class="cls-7" d="M113.09,24.36H109V16.1h-2.07v8.26h-4.13V16.1H100.7v8.26H96.57V14h15.49v1h1Z"/><path class="cls-7" d="M125.36,24.36h-9.29v-1h-1V15.06h1V14h9.29V16.1h-6.2v2.06h3.1v2.07h-3.1v2.06h6.2Z"/><path class="cls-7" d="M143.7,23.33h-1v1h-9.29V14h9.29v1h1Zm-4.13-1V16.1h-2.06v6.19Z"/><path class="cls-7" d="M156,24.36h-9.29v-1h-1V15.06h1V14H156V16.1h-6.19v2.06h3.1v2.07h-3.1v2.06H156Z"/><path class="cls-7" d="M168.24,23.33h-1v1h-9.29V22.29h6.19V20.23H159v-1h-1V15.06h1V14h9.29V16.1h-6.19v2.06h5.16v1h1Z"/><path class="cls-7" d="M174.32,24.36h-4.13V14h4.13Z"/><path class="cls-7" d="M186.59,24.36h-9.3v-1h-1V15.06h1V14h9.3V16.1h-6.2v6.19h2.07V20.23h-1V18.16h5.17Z"/><path class="cls-7" d="M198.86,24.36h-4.13V16.1h-2.07v8.26h-4.13V14h9.3v1h1Z"/><path class="cls-7" d="M211.13,24.36h-9.3v-1h-1V15.06h1V14h9.3V16.1h-6.2v2.06H208v2.07h-3.1v2.06h6.2Z"/><path class="cls-7" d="M223.4,24.36h-4.13V20.23H217.2v4.13h-4.13V14h9.3v1h1v3.1h-1v2.07h1Zm-4.13-6.2V16.1H217.2v2.06Z"/></g></g></svg>