<svg xmlns="http://www.w3.org/2000/svg" viewBox="0 0 211.99 19.63"><defs><style>.cls-1{fill:#1d1d1b;}</style></defs><g id="Calque_2" data-name="Calque 2"><g id="header"><path class="cls-1" d="M15.17,19.3l-.05-8.91L10.8,17.64H8.69l-4.3-7V19.3H0V2.5H3.91l5.91,9.69L15.58,2.5h3.91l.05,16.8Z"/><path class="cls-1" d="M36.07,12.07V19.3H31.82V17.62c-.64,1.25-1.94,1.89-3.84,1.89-3.12,0-4.84-1.75-4.84-4s1.75-3.89,5.78-3.89h2.59c-.07-1.32-1-2.07-2.76-2.07a6,6,0,0,0-3.53,1.13l-1.53-3.1a11,11,0,0,1,5.73-1.51C33.65,6.07,36.07,7.94,36.07,12.07Zm-4.56,3V14h-2c-1.46,0-2,.53-2,1.32s.63,1.32,1.71,1.32A2.25,2.25,0,0,0,31.51,15.12Z"/><path class="cls-1" d="M48.86,6.07v4.11a7.86,7.86,0,0,0-1-.08c-1.85,0-3.12.94-3.12,3.22v6H40.15v-13H44.5V7.85A5.29,5.29,0,0,1,48.86,6.07Z"/><path class="cls-1" d="M61.32,18.77a6.17,6.17,0,0,1-3.17.74c-3.33,0-5.28-1.63-5.28-5V10.18H51V6.77h1.89V3.38h4.56V6.77h3v3.41h-3V14.5A1.32,1.32,0,0,0,58.8,16a2.52,2.52,0,0,0,1.39-.41Z"/><path class="cls-1" d="M63.77,2.42A2.52,2.52,0,0,1,66.55,0c1.68,0,2.79,1,2.79,2.35a2.81,2.81,0,0,1-5.57.07Zm.5,3.87h4.56v13H64.27Z"/><path class="cls-1" d="M86.83,11.86V19.3H82.27V12.6c0-1.87-.81-2.66-2.13-2.66-1.47,0-2.6.91-2.6,3.07V19.3H73v-13h4.35V7.71a5.54,5.54,0,0,1,4.13-1.64C84.5,6.07,86.83,7.82,86.83,11.86Z"/><path class="cls-1" d="M97.13,17.16l2.59-3.07a3.71,3.71,0,0,0,2.9,1.75c1.37,0,2.11-.84,2.11-2.45V6.17h-5.8V2.5h10.51V13.11c0,4.36-2.26,6.52-6.48,6.52A7.25,7.25,0,0,1,97.13,17.16Z"/><path class="cls-1" d="M112.82,12.77c0-3.91,3.1-6.7,7.35-6.7s7.34,2.79,7.34,6.7-3.05,6.74-7.34,6.74S112.82,16.71,112.82,12.77Zm10.08,0c0-2-1.17-3.07-2.73-3.07a2.75,2.75,0,0,0-2.74,3.07c0,2,1.2,3.12,2.74,3.12S122.9,14.76,122.9,12.77Z"/><path class="cls-1" d="M144.67,11.86V19.3h-4.56V12.6c0-1.87-.81-2.66-2.13-2.66s-2.6.91-2.6,3.07V19.3h-4.56V1.49h4.56v6a5.64,5.64,0,0,1,3.92-1.42C142.34,6.07,144.67,7.82,144.67,11.86Z"/><path class="cls-1" d="M162.58,11.86V19.3H158V12.6c0-1.87-.82-2.66-2.14-2.66-1.47,0-2.59.91-2.59,3.07V19.3h-4.56v-13h4.34V7.71a5.56,5.56,0,0,1,4.13-1.64C160.25,6.07,162.58,7.82,162.58,11.86Z"/><path class="cls-1" d="M165.6,18.17,167,15.05a9.15,9.15,0,0,0,4.53,1.2c1.54,0,2-.34,2-.89,0-1.75-7.68.24-7.68-5,0-2.45,2.26-4.32,6.34-4.32a11.45,11.45,0,0,1,5.14,1.11L176,10.27a7.66,7.66,0,0,0-3.75-1c-1.53,0-2.09.44-2.09.92,0,1.8,7.66-.15,7.66,5,0,2.4-2.21,4.27-6.43,4.27A12,12,0,0,1,165.6,18.17Z"/><path class="cls-1" d="M180.14,12.77c0-3.91,3.1-6.7,7.35-6.7s7.34,2.79,7.34,6.7-3.05,6.74-7.34,6.74S180.14,16.71,180.14,12.77Zm10.08,0c0-2-1.17-3.07-2.73-3.07a2.75,2.75,0,0,0-2.74,3.07c0,2,1.2,3.12,2.74,3.12S190.22,14.76,190.22,12.77Z"/><path class="cls-1" d="M212,11.86V19.3h-4.56V12.6c0-1.87-.82-2.66-2.14-2.66s-2.59.91-2.59,3.07V19.3h-4.56v-13h4.35V7.71a5.54,5.54,0,0,1,4.12-1.64C209.66,6.07,212,7.82,212,11.86Z"/></g></g></svg>