<svg xmlns="http://www.w3.org/2000/svg" viewBox="0 0 437.3 198.82"><defs><style>.cls-1{fill:#4a80c1;}.cls-2{fill:#fff9e8;}.cls-3{fill:#df3414;}.cls-4{fill:#2e2822;}.cls-5{fill:#f5c579;}.cls-6{fill:#3e3e42;}.cls-7{fill:#f1b65a;}.cls-8{fill:#fff;}.cls-9{fill:#fcc10c;}.cls-10{fill:#2e2f31;}.cls-11{fill:#f1f0f2;}.cls-12{fill:#ea9277;}.cls-13{fill:#e1e1e2;}.cls-14{fill:#d7ccbd;}.cls-15{fill:#a87fb7;}.cls-16{fill:#8c5ca2;}.cls-17{fill:#cdb3d5;}.cls-18{font-size:10px;fill:#1d1d1b;font-family:RetroGaming, Retro Gaming;letter-spacing:-0.01em;}.cls-19{fill:#bead93;}.cls-20,.cls-23{fill:#ead827;}.cls-20{fill-opacity:0.4;opacity:0.6;}.cls-21{fill:#c3a535;}.cls-22{fill:#aa8b27;}.cls-24{fill:#f6ce24;}.cls-25{fill:#7e694c;}.cls-26{fill:#68583f;}.cls-27{fill:#fffde9;}.cls-28{fill:#8fcfd0;}.cls-29{fill:#1c3350;}.cls-30{fill:#73a8db;}.cls-31{fill:#7f501f;}.cls-32{fill:#fef8d1;}.cls-33{fill:#e5c02c;}.cls-34{fill:#5b9549;}.cls-35{fill:#f8daab;}.cls-36{fill:#e25f3f;}.cls-37{fill:#5d9d47;}.cls-38{fill:#9a2f75;}</style></defs><g id="Calque_2" data-name="Calque 2"><g id="texte_presentation" data-name="texte presentation"><rect class="cls-1" x="23.66" y="87.85" width="391.6" height="110.97"/><path class="cls-2" d="M63.45,98.47v.36H59.6v-.28L62,96.19c.66-.66.79-1,.79-1.47,0-.71-.49-1.15-1.42-1.15a2,2,0,0,0-1.6.65L59.45,94a2.49,2.49,0,0,1,1.93-.76c1.09,0,1.8.56,1.8,1.48a2.31,2.31,0,0,1-.92,1.73L60.2,98.47Z"/><path class="cls-2" d="M68.68,97.28H67.5v1.55h-.4V97.28H63.91V97l3-3.75h.46l-3,3.68h2.69V95.56h.39v1.36h1.18Z"/><path class="cls-2" d="M74.72,96.19v2.64h-.38v-.74a1.62,1.62,0,0,1-1.51.78c-.93,0-1.5-.48-1.5-1.2s.4-1.16,1.56-1.16h1.43v-.34A1.09,1.09,0,0,0,73.08,95a2.16,2.16,0,0,0-1.44.53l-.2-.29a2.53,2.53,0,0,1,1.67-.59A1.42,1.42,0,0,1,74.72,96.19Zm-.4,1.41v-.78H72.9c-.87,0-1.17.36-1.17.84s.42.88,1.16.88A1.44,1.44,0,0,0,74.32,97.6Z"/><path class="cls-2" d="M80.1,96.39v2.44h-.4v-2.4A1.26,1.26,0,0,0,78.35,95a1.49,1.49,0,0,0-1.58,1.62v2.22h-.4V94.66h.38v.9a1.73,1.73,0,0,1,1.66-.93A1.58,1.58,0,0,1,80.1,96.39Z"/><path class="cls-2" d="M81.14,98.33l.18-.32a2.44,2.44,0,0,0,1.5.5c.88,0,1.24-.31,1.24-.78,0-1.22-2.77-.32-2.77-2,0-.63.53-1.14,1.58-1.14A2.52,2.52,0,0,1,84.3,95l-.18.32A2.13,2.13,0,0,0,82.86,95c-.81,0-1.17.34-1.17.78,0,1.26,2.76.37,2.76,2,0,.68-.58,1.15-1.64,1.15A2.62,2.62,0,0,1,81.14,98.33Z"/><path class="cls-2" d="M85.86,98.52a1.18,1.18,0,0,1-.07.37L85.48,100h-.29l.27-1.13a.33.33,0,0,1-.27-.33.34.34,0,0,1,.67,0Z"/><path class="cls-2" d="M88.78,96.75a2,2,0,0,1,2.11-2.12,1.81,1.81,0,0,1,1.58.77l-.29.21A1.54,1.54,0,0,0,90.89,95a1.76,1.76,0,0,0,0,3.52,1.53,1.53,0,0,0,1.29-.63l.29.22a1.86,1.86,0,0,1-1.58.77A2,2,0,0,1,88.78,96.75Z"/><path class="cls-2" d="M97.13,96.84H93.54a1.68,1.68,0,0,0,1.76,1.67,1.7,1.7,0,0,0,1.34-.59l.23.27a2,2,0,0,1-1.57.68,2,2,0,0,1-2.15-2.12,2,2,0,1,1,4,0S97.13,96.8,97.13,96.84Zm-3.58-.31h3.19a1.6,1.6,0,0,0-3.19,0ZM95.12,94h-.43L95.8,93h.58Z"/><path class="cls-2" d="M98.38,92.9h.4v5.93h-.4Z"/><path class="cls-2" d="M100.34,93.32a.32.32,0,0,1,.32-.32.32.32,0,1,1-.32.32Zm.12,1.34h.4v4.17h-.4Z"/><path class="cls-2" d="M106.71,96.75a2,2,0,0,1-2.06,2.12,1.86,1.86,0,0,1-1.71-1v1h-.39V92.9h.4v2.71a1.88,1.88,0,0,1,1.7-1A2,2,0,0,1,106.71,96.75Zm-.4,0a1.69,1.69,0,1,0-1.69,1.76A1.66,1.66,0,0,0,106.31,96.75Z"/><path class="cls-2" d="M111,96.19v2.64h-.38v-.74a1.62,1.62,0,0,1-1.51.78c-.93,0-1.5-.48-1.5-1.2s.4-1.16,1.56-1.16h1.43v-.34A1.09,1.09,0,0,0,109.31,95a2.2,2.2,0,0,0-1.44.53l-.2-.29a2.55,2.55,0,0,1,1.67-.59A1.42,1.42,0,0,1,111,96.19Zm-.4,1.41v-.78h-1.42c-.87,0-1.17.36-1.17.84s.42.88,1.16.88A1.44,1.44,0,0,0,110.55,97.6Z"/><path class="cls-2" d="M114.67,98.57a1.26,1.26,0,0,1-.85.3,1,1,0,0,1-1.14-1.14V95h-.77v-.34h.77v-.91h.4v.91h1.33V95h-1.33v2.69c0,.54.26.83.78.83a1,1,0,0,0,.64-.23Z"/><path class="cls-2" d="M118.8,96.19v2.64h-.38v-.74a1.62,1.62,0,0,1-1.51.78c-.93,0-1.5-.48-1.5-1.2s.4-1.16,1.56-1.16h1.43v-.34A1.09,1.09,0,0,0,117.16,95a2.16,2.16,0,0,0-1.44.53l-.2-.29a2.53,2.53,0,0,1,1.67-.59A1.42,1.42,0,0,1,118.8,96.19Zm-.4,1.41v-.78H117c-.87,0-1.17.36-1.17.84s.42.88,1.16.88A1.44,1.44,0,0,0,118.4,97.6Z"/><path class="cls-2" d="M120.32,93.32a.33.33,0,1,1,.33.32A.32.32,0,0,1,120.32,93.32Zm.13,1.34h.4v4.17h-.4Z"/><path class="cls-2" d="M124.51,94.63V95h-.09a1.44,1.44,0,0,0-1.48,1.65v2.17h-.4V94.66h.38v.91A1.58,1.58,0,0,1,124.51,94.63Z"/><path class="cls-2" d="M129.1,96.84h-3.59a1.69,1.69,0,0,0,1.77,1.67,1.67,1.67,0,0,0,1.33-.59l.24.27a2.16,2.16,0,0,1-3.73-1.44,2,2,0,0,1,2-2.12,2,2,0,0,1,2,2.1S129.1,96.8,129.1,96.84Zm-3.58-.31h3.2a1.6,1.6,0,0,0-3.2,0Z"/><path class="cls-2" d="M130,98.52a.34.34,0,0,1,.67,0,.34.34,0,1,1-.67,0Z"/><path class="cls-2" d="M63.71,110.26H60.46l-.71,1.57h-.44l2.58-5.59h.41l2.57,5.59h-.44Zm-.15-.35-1.47-3.23-1.47,3.23Z"/><path class="cls-2" d="M69.92,109.75a2,2,0,0,1-2.06,2.12,1.87,1.87,0,0,1-1.7-1v2.5h-.4v-5.72h.39v1a1.84,1.84,0,0,1,1.71-1A2,2,0,0,1,69.92,109.75Zm-.4,0a1.69,1.69,0,1,0-1.69,1.76A1.66,1.66,0,0,0,69.52,109.75Z"/><path class="cls-2" d="M73.14,107.63V108H73a1.44,1.44,0,0,0-1.48,1.65v2.17h-.4v-4.17h.39v.91A1.57,1.57,0,0,1,73.14,107.63Z"/><path class="cls-2" d="M77.73,109.84H74.14a1.68,1.68,0,0,0,1.76,1.67,1.7,1.7,0,0,0,1.34-.59l.23.27a2,2,0,0,1-1.57.68,2,2,0,0,1-2.15-2.12,2,2,0,0,1,2-2.12,2,2,0,0,1,2,2.1Zm-3.58-.31h3.19a1.6,1.6,0,0,0-3.19,0ZM75.77,107,74.51,106h.58l1.11.94Z"/><path class="cls-2" d="M78.36,111.33l.19-.32a2.4,2.4,0,0,0,1.5.5c.88,0,1.23-.31,1.23-.78,0-1.22-2.77-.32-2.77-2,0-.63.53-1.14,1.59-1.14a2.57,2.57,0,0,1,1.43.41l-.19.32a2.1,2.1,0,0,0-1.25-.38c-.82,0-1.18.34-1.18.78,0,1.26,2.77.37,2.77,2,0,.68-.58,1.15-1.65,1.15A2.64,2.64,0,0,1,78.36,111.33Z"/><path class="cls-2" d="M87.87,109.19v2.64h-.38v-.74a1.62,1.62,0,0,1-1.51.78c-.93,0-1.5-.48-1.5-1.2s.4-1.16,1.56-1.16h1.43v-.34A1.09,1.09,0,0,0,86.23,108a2.2,2.2,0,0,0-1.44.53l-.2-.29a2.55,2.55,0,0,1,1.67-.59A1.42,1.42,0,0,1,87.87,109.19Zm-.4,1.41v-.78H86.05c-.87,0-1.17.36-1.17.84s.42.88,1.16.88A1.44,1.44,0,0,0,87.47,110.6Z"/><path class="cls-2" d="M92.79,107.66l-1.89,4.17h-.4l-1.88-4.17H89l1.66,3.73,1.68-3.73Z"/><path class="cls-2" d="M93.09,109.75a2.09,2.09,0,1,1,2.09,2.12A2,2,0,0,1,93.09,109.75Zm3.76,0a1.68,1.68,0,1,0-1.67,1.76A1.65,1.65,0,0,0,96.85,109.75Z"/><path class="cls-2" d="M98.38,106.32a.32.32,0,0,1,.32-.32.32.32,0,1,1-.32.32Zm.12,1.34h.4v4.17h-.4Z"/><path class="cls-2" d="M102.57,107.63V108h-.1a1.44,1.44,0,0,0-1.48,1.65v2.17h-.4v-4.17H101v.91A1.57,1.57,0,0,1,102.57,107.63Z"/><path class="cls-2" d="M109.53,109.39v2.44h-.4v-2.4a1.26,1.26,0,0,0-1.35-1.44,1.49,1.49,0,0,0-1.58,1.62v2.22h-.4V105.9h.4v2.63a1.72,1.72,0,0,1,1.64-.9A1.58,1.58,0,0,1,109.53,109.39Z"/><path class="cls-2" d="M114.72,109.84h-3.59a1.78,1.78,0,0,0,3.1,1.08l.23.27a2,2,0,0,1-1.57.68,2,2,0,0,1-2.15-2.12,2,2,0,1,1,4,0S114.72,109.8,114.72,109.84Zm-3.58-.31h3.19a1.6,1.6,0,0,0-3.19,0Zm1.57-2.55h-.43l1.11-.94H114Z"/><path class="cls-2" d="M117.94,107.63V108h-.09a1.44,1.44,0,0,0-1.48,1.65v2.17H116v-4.17h.38v.91A1.58,1.58,0,0,1,117.94,107.63Z"/><path class="cls-2" d="M118.92,106.32a.32.32,0,0,1,.33-.32.32.32,0,1,1-.33.32Zm.13,1.34h.4v4.17h-.4Z"/><path class="cls-2" d="M123.21,111.57a1.29,1.29,0,0,1-.86.3,1,1,0,0,1-1.13-1.14V108h-.77v-.34h.77v-.91h.39v.91h1.33V108h-1.33v2.69c0,.54.27.83.78.83a1,1,0,0,0,.65-.23Z"/><path class="cls-2" d="M127.69,109.84H124.1a1.79,1.79,0,0,0,3.11,1.08l.23.27a2.16,2.16,0,0,1-3.73-1.44,2,2,0,0,1,2-2.12,2,2,0,0,1,2,2.1S127.69,109.8,127.69,109.84Zm-3.58-.31h3.2a1.6,1.6,0,0,0-3.2,0Zm1.58-2.55h-.44l1.12-.94h.57Z"/><path class="cls-2" d="M134.71,105.9v5.93h-.39v-1a1.85,1.85,0,0,1-1.71,1,2.12,2.12,0,0,1,0-4.24,1.88,1.88,0,0,1,1.7,1V105.9Zm-.4,3.85a1.68,1.68,0,1,0-1.68,1.76A1.66,1.66,0,0,0,134.31,109.75Z"/><path class="cls-2" d="M139.92,109.84h-3.58a1.68,1.68,0,0,0,1.76,1.67,1.7,1.7,0,0,0,1.34-.59l.23.27a2,2,0,0,1-1.58.68,2.05,2.05,0,0,1-2.15-2.12,2,2,0,0,1,2-2.12,2,2,0,0,1,2,2.1S139.92,109.8,139.92,109.84Zm-3.58-.31h3.2a1.6,1.6,0,0,0-3.2,0Z"/><path class="cls-2" d="M143.23,105.9h.4v5.93h-.4Z"/><path class="cls-2" d="M148.33,109.19v2.64H148v-.74a1.6,1.6,0,0,1-1.5.78c-.94,0-1.51-.48-1.51-1.2s.4-1.16,1.56-1.16h1.43v-.34a1.09,1.09,0,0,0-1.24-1.19,2.2,2.2,0,0,0-1.44.53l-.2-.29a2.56,2.56,0,0,1,1.68-.59A1.42,1.42,0,0,1,148.33,109.19Zm-.4,1.41v-.78h-1.42c-.86,0-1.17.36-1.17.84s.43.88,1.16.88A1.43,1.43,0,0,0,147.93,110.6Z"/><path class="cls-2" d="M151.58,109.75a2,2,0,0,1,2.11-2.12,1.83,1.83,0,0,1,1.59.77l-.3.21a1.53,1.53,0,0,0-1.29-.62,1.76,1.76,0,0,0,0,3.52,1.51,1.51,0,0,0,1.29-.63l.3.22a1.87,1.87,0,0,1-1.59.77A2,2,0,0,1,151.58,109.75Z"/><path class="cls-2" d="M156,109.75a2.09,2.09,0,1,1,2.09,2.12A2,2,0,0,1,156,109.75Zm3.77,0a1.68,1.68,0,1,0-1.68,1.76A1.66,1.66,0,0,0,159.72,109.75Z"/><path class="cls-2" d="M161.37,105.9h.4v5.93h-.4Z"/><path class="cls-2" d="M163.45,105.9h.4v5.93h-.4Z"/><path class="cls-2" d="M169.07,109.84h-3.59a1.78,1.78,0,0,0,3.1,1.08l.23.27a2,2,0,0,1-1.57.68,2,2,0,0,1-2.15-2.12,2,2,0,1,1,4,0S169.07,109.8,169.07,109.84Zm-3.58-.31h3.19a1.6,1.6,0,0,0-3.19,0Z"/><path class="cls-2" d="M169.86,109.75a2,2,0,0,1,2.11-2.12,1.83,1.83,0,0,1,1.59.77l-.3.21A1.53,1.53,0,0,0,172,108a1.76,1.76,0,0,0,0,3.52,1.51,1.51,0,0,0,1.29-.63l.3.22a1.87,1.87,0,0,1-1.59.77A2,2,0,0,1,169.86,109.75Z"/><path class="cls-2" d="M176.88,111.57a1.29,1.29,0,0,1-.86.3,1,1,0,0,1-1.13-1.14V108h-.77v-.34h.77v-.91h.4v.91h1.32V108h-1.32v2.69c0,.54.26.83.77.83a1,1,0,0,0,.65-.23Z"/><path class="cls-2" d="M177.86,106.32a.33.33,0,0,1,.33-.32.32.32,0,1,1-.33.32Zm.13,1.34h.4v4.17H178Z"/><path class="cls-2" d="M179.62,109.75a2.09,2.09,0,1,1,2.09,2.12A2,2,0,0,1,179.62,109.75Zm3.77,0a1.68,1.68,0,1,0-1.68,1.76A1.66,1.66,0,0,0,183.39,109.75Z"/><path class="cls-2" d="M188.77,109.39v2.44h-.4v-2.4A1.26,1.26,0,0,0,187,108a1.49,1.49,0,0,0-1.58,1.62v2.22H185v-4.17h.38v.9a1.72,1.72,0,0,1,1.66-.93A1.58,1.58,0,0,1,188.77,109.39Z"/><path class="cls-2" d="M196.23,107.66v3.73a1.77,1.77,0,0,1-2,2,2.74,2.74,0,0,1-1.91-.67l.22-.3a2.47,2.47,0,0,0,1.68.61,1.43,1.43,0,0,0,1.64-1.63v-.7a1.94,1.94,0,0,1-1.74,1,2,2,0,1,1,0-4.05,1.91,1.91,0,0,1,1.75,1v-.94Zm-.39,2a1.71,1.71,0,1,0-1.71,1.67A1.62,1.62,0,0,0,195.84,109.65Z"/><path class="cls-2" d="M201,109.19v2.64h-.39v-.74a1.59,1.59,0,0,1-1.5.78c-.93,0-1.5-.48-1.5-1.2s.4-1.16,1.56-1.16h1.43v-.34a1.09,1.09,0,0,0-1.24-1.19,2.16,2.16,0,0,0-1.44.53l-.2-.29a2.53,2.53,0,0,1,1.67-.59A1.42,1.42,0,0,1,201,109.19Zm-.4,1.41v-.78h-1.43c-.86,0-1.16.36-1.16.84s.42.88,1.16.88A1.44,1.44,0,0,0,200.55,110.6Z"/><path class="cls-2" d="M209.46,109.39v2.44h-.4v-2.4c0-1-.49-1.44-1.31-1.44a1.46,1.46,0,0,0-1.52,1.62v2.22h-.4v-2.4c0-1-.49-1.44-1.31-1.44a1.46,1.46,0,0,0-1.52,1.62v2.22h-.4v-4.17H203v.9a1.65,1.65,0,0,1,1.6-.93,1.48,1.48,0,0,1,1.53,1,1.75,1.75,0,0,1,1.68-1A1.57,1.57,0,0,1,209.46,109.39Z"/><path class="cls-2" d="M211,106.32a.33.33,0,1,1,.33.32A.32.32,0,0,1,211,106.32Zm.13,1.34h.4v4.17h-.4Z"/><path class="cls-2" d="M216.93,109.39v2.44h-.4v-2.4a1.26,1.26,0,0,0-1.35-1.44,1.49,1.49,0,0,0-1.58,1.62v2.22h-.4v-4.17h.38v.9a1.72,1.72,0,0,1,1.66-.93A1.58,1.58,0,0,1,216.93,109.39Z"/><path class="cls-2" d="M222.35,107.66v3.73a1.78,1.78,0,0,1-2,2,2.74,2.74,0,0,1-1.91-.67l.22-.3a2.47,2.47,0,0,0,1.69.61,1.42,1.42,0,0,0,1.63-1.63v-.7a1.94,1.94,0,0,1-1.74,1,2,2,0,1,1,0-4.05,1.91,1.91,0,0,1,1.75,1v-.94Zm-.4,2a1.71,1.71,0,1,0-1.71,1.67A1.62,1.62,0,0,0,222,109.65Z"/><path class="cls-2" d="M230.26,109.75a2,2,0,0,1-2.07,2.12,1.87,1.87,0,0,1-1.69-1v2.5h-.4v-5.72h.38v1a1.86,1.86,0,0,1,1.71-1A2,2,0,0,1,230.26,109.75Zm-.4,0a1.69,1.69,0,1,0-1.69,1.76A1.66,1.66,0,0,0,229.86,109.75Z"/><path class="cls-2" d="M234.5,109.19v2.64h-.39v-.74a1.59,1.59,0,0,1-1.5.78c-.93,0-1.5-.48-1.5-1.2s.4-1.16,1.56-1.16h1.43v-.34a1.09,1.09,0,0,0-1.24-1.19,2.16,2.16,0,0,0-1.44.53l-.2-.29a2.53,2.53,0,0,1,1.67-.59A1.42,1.42,0,0,1,234.5,109.19Zm-.4,1.41v-.78h-1.42c-.87,0-1.17.36-1.17.84s.42.88,1.16.88A1.44,1.44,0,0,0,234.1,110.6Z"/><path class="cls-2" d="M238.22,111.57a1.27,1.27,0,0,1-.86.3,1,1,0,0,1-1.13-1.14V108h-.77v-.34h.77v-.91h.4v.91H238V108h-1.32v2.69c0,.54.26.83.77.83a1,1,0,0,0,.65-.23Z"/><path class="cls-2" d="M242.71,109.84h-3.59a1.68,1.68,0,0,0,1.76,1.67,1.7,1.7,0,0,0,1.34-.59l.23.27a2,2,0,0,1-1.57.68,2.05,2.05,0,0,1-2.16-2.12,2,2,0,0,1,2-2.12,2,2,0,0,1,2,2.1Zm-3.59-.31h3.2a1.6,1.6,0,0,0-3.2,0Z"/><path class="cls-2" d="M245.93,107.63V108h-.09a1.44,1.44,0,0,0-1.48,1.65v2.17H244v-4.17h.38v.91A1.58,1.58,0,0,1,245.93,107.63Z"/><path class="cls-2" d="M250.77,109.39v2.44h-.4v-2.4A1.26,1.26,0,0,0,249,108a1.49,1.49,0,0,0-1.58,1.62v2.22H247v-4.17h.38v.9a1.72,1.72,0,0,1,1.65-.93A1.58,1.58,0,0,1,250.77,109.39Z"/><path class="cls-2" d="M256,109.84h-3.59a1.79,1.79,0,0,0,3.11,1.08l.23.27a2.16,2.16,0,0,1-3.73-1.44,2,2,0,0,1,2-2.12,2,2,0,0,1,2,2.1S256,109.8,256,109.84Zm-3.58-.31h3.2a1.6,1.6,0,0,0-3.2,0Z"/><path class="cls-2" d="M257.2,105.9h.4v5.93h-.4Z"/><path class="cls-2" d="M259.29,105.9h.4v5.93h-.4Z"/><path class="cls-2" d="M264.91,109.84h-3.59a1.68,1.68,0,0,0,1.76,1.67,1.7,1.7,0,0,0,1.34-.59l.23.27a2,2,0,0,1-1.58.68,2.05,2.05,0,0,1-2.15-2.12,2,2,0,0,1,2-2.12,2,2,0,0,1,2,2.1Zm-3.59-.31h3.2a1.6,1.6,0,0,0-3.2,0Z"/><path class="cls-2" d="M266.44,111.52a1.18,1.18,0,0,1-.07.37l-.31,1.09h-.29l.27-1.13a.33.33,0,0,1-.27-.33.34.34,0,0,1,.67,0Z"/><path class="cls-2" d="M268.26,113.14l.16-.3a1,1,0,0,0,.68.23c.49,0,.75-.29.75-.84v-4.57h.4v4.59a1.06,1.06,0,0,1-1.13,1.17A1.27,1.27,0,0,1,268.26,113.14Zm1.46-6.82a.33.33,0,0,1,.33-.32.32.32,0,1,1,0,.64A.32.32,0,0,1,269.72,106.32Z"/><path class="cls-2" d="M272.23,106.2a1.56,1.56,0,0,1-.07.37l-.32,1.09h-.28l.26-1.13a.32.32,0,0,1-.26-.33.32.32,0,0,1,.33-.33A.34.34,0,0,1,272.23,106.2Z"/><path class="cls-2" d="M276.47,109.19v2.64h-.38v-.74a1.59,1.59,0,0,1-1.5.78c-.94,0-1.51-.48-1.51-1.2s.4-1.16,1.56-1.16h1.43v-.34a1.09,1.09,0,0,0-1.24-1.19,2.16,2.16,0,0,0-1.43.53l-.2-.29a2.51,2.51,0,0,1,1.67-.59A1.42,1.42,0,0,1,276.47,109.19Zm-.4,1.41v-.78h-1.42c-.86,0-1.17.36-1.17.84s.43.88,1.16.88A1.43,1.43,0,0,0,276.07,110.6Z"/><path class="cls-2" d="M278,106.32a.32.32,0,0,1,.32-.32.32.32,0,1,1-.32.32Zm.12,1.34h.4v4.17h-.4Z"/><path class="cls-2" d="M285.79,109.84H282.2a1.79,1.79,0,0,0,3.11,1.08l.23.27a2,2,0,0,1-1.58.68,2.05,2.05,0,0,1-2.15-2.12,2,2,0,0,1,2-2.12,2,2,0,0,1,2,2.1S285.79,109.8,285.79,109.84Zm-3.58-.31h3.2a1.6,1.6,0,0,0-3.2,0Zm1.58-2.55h-.43l1.11-.94H285Z"/><path class="cls-2" d="M289.11,111.57a1.24,1.24,0,0,1-.85.3,1,1,0,0,1-1.14-1.14V108h-.76v-.34h.76v-.91h.4v.91h1.33V108h-1.33v2.69c0,.54.27.83.78.83a1,1,0,0,0,.65-.23Z"/><path class="cls-2" d="M293.88,107.66v4.17h-.38v-.89a1.65,1.65,0,0,1-1.58.93,1.6,1.6,0,0,1-1.74-1.77v-2.44h.4v2.41a1.27,1.27,0,0,0,1.38,1.44,1.47,1.47,0,0,0,1.52-1.63v-2.22Z"/><path class="cls-2" d="M299.29,105.9v5.93h-.39v-1a1.85,1.85,0,0,1-1.71,1,2.12,2.12,0,0,1,0-4.24,1.88,1.88,0,0,1,1.7,1V105.9Zm-.4,3.85a1.68,1.68,0,1,0-1.68,1.76A1.66,1.66,0,0,0,298.89,109.75Z"/><path class="cls-2" d="M300.85,106.32a.33.33,0,0,1,.33-.32.32.32,0,1,1-.33.32Zm.13,1.34h.4v4.17H301Z"/><path class="cls-2" d="M306.59,109.84H303a1.79,1.79,0,0,0,3.11,1.08l.23.27a2,2,0,0,1-1.58.68,2.05,2.05,0,0,1-2.15-2.12,2,2,0,0,1,2-2.12,2,2,0,0,1,2,2.1S306.59,109.8,306.59,109.84Zm-3.58-.31h3.2a1.6,1.6,0,0,0-3.2,0Zm1.58-2.55h-.43l1.11-.94h.57Z"/><path class="cls-2" d="M309.9,105.9h.4v5.93h-.4Z"/><path class="cls-2" d="M312.28,106.2a1.24,1.24,0,0,1-.08.37l-.31,1.09h-.29l.27-1.13a.33.33,0,0,1-.27-.33.33.33,0,0,1,.34-.33A.34.34,0,0,1,312.28,106.2Z"/><path class="cls-2" d="M317.32,109.39v2.44h-.4v-2.4a1.26,1.26,0,0,0-1.35-1.44,1.49,1.49,0,0,0-1.58,1.62v2.22h-.4V105.9h.4v2.63a1.71,1.71,0,0,1,1.64-.9A1.58,1.58,0,0,1,317.32,109.39Z"/><path class="cls-2" d="M318.84,106.32a.33.33,0,0,1,.33-.32.32.32,0,1,1,0,.64A.32.32,0,0,1,318.84,106.32Zm.13,1.34h.4v4.17H319Z"/><path class="cls-2" d="M320.44,111.33l.19-.32a2.44,2.44,0,0,0,1.5.5c.88,0,1.23-.31,1.23-.78,0-1.22-2.76-.32-2.76-2,0-.63.52-1.14,1.58-1.14a2.54,2.54,0,0,1,1.43.41l-.18.32a2.15,2.15,0,0,0-1.26-.38c-.81,0-1.17.34-1.17.78,0,1.26,2.76.37,2.76,2,0,.68-.58,1.15-1.64,1.15A2.67,2.67,0,0,1,320.44,111.33Z"/><path class="cls-2" d="M327,111.57a1.24,1.24,0,0,1-.85.3,1,1,0,0,1-1.14-1.14V108h-.76v-.34H325v-.91h.4v.91h1.33V108h-1.33v2.69c0,.54.27.83.78.83a1,1,0,0,0,.65-.23Z"/><path class="cls-2" d="M327.46,109.75a2.09,2.09,0,1,1,2.09,2.12A2,2,0,0,1,327.46,109.75Zm3.77,0a1.68,1.68,0,1,0-1.68,1.76A1.66,1.66,0,0,0,331.23,109.75Z"/><path class="cls-2" d="M332.75,106.32a.32.32,0,0,1,.33-.32.32.32,0,1,1-.33.32Zm.13,1.34h.39v4.17h-.39Z"/><path class="cls-2" d="M336.94,107.63V108h-.1a1.44,1.44,0,0,0-1.48,1.65v2.17H335v-4.17h.39v.91A1.57,1.57,0,0,1,336.94,107.63Z"/><path class="cls-2" d="M341.53,109.84h-3.59a1.78,1.78,0,0,0,3.1,1.08l.23.27a2,2,0,0,1-1.57.68,2.05,2.05,0,0,1-2.15-2.12,2,2,0,1,1,4,0S341.53,109.8,341.53,109.84Zm-3.58-.31h3.2a1.6,1.6,0,0,0-3.2,0Z"/><path class="cls-2" d="M348.55,105.9v5.93h-.4v-1a1.84,1.84,0,0,1-1.71,1,2.12,2.12,0,0,1,0-4.24,1.88,1.88,0,0,1,1.71,1V105.9Zm-.4,3.85a1.68,1.68,0,1,0-1.68,1.76A1.66,1.66,0,0,0,348.15,109.75Z"/><path class="cls-2" d="M353.89,107.66v4.17h-.38v-.89a1.66,1.66,0,0,1-1.58.93,1.6,1.6,0,0,1-1.74-1.77v-2.44h.4v2.41a1.27,1.27,0,0,0,1.37,1.44,1.47,1.47,0,0,0,1.53-1.63v-2.22Z"/><path class="cls-2" d="M356.09,113.14l.16-.3a1,1,0,0,0,.68.23c.49,0,.75-.29.75-.84v-4.57h.4v4.59a1.06,1.06,0,0,1-1.13,1.17A1.27,1.27,0,0,1,356.09,113.14Zm1.46-6.82a.33.33,0,0,1,.33-.32.32.32,0,1,1,0,.64A.32.32,0,0,1,357.55,106.32Z"/><path class="cls-2" d="M363.3,109.84h-3.59a1.68,1.68,0,0,0,1.76,1.67,1.7,1.7,0,0,0,1.34-.59l.23.27a2,2,0,0,1-1.57.68,2,2,0,0,1-2.15-2.12,2,2,0,1,1,4,0S363.3,109.8,363.3,109.84Zm-3.58-.31h3.19a1.6,1.6,0,0,0-3.19,0Z"/><path class="cls-2" d="M368.2,107.66v4.17h-.38v-.89a1.66,1.66,0,0,1-1.58.93,1.6,1.6,0,0,1-1.74-1.77v-2.44h.4v2.41a1.27,1.27,0,0,0,1.37,1.44,1.47,1.47,0,0,0,1.53-1.63v-2.22Z"/><path class="cls-2" d="M375.3,107.66l-1.88,4.17H373l-1.88-4.17h.42l1.67,3.73,1.68-3.73Z"/><path class="cls-2" d="M376.05,106.32a.32.32,0,0,1,.33-.32.32.32,0,1,1-.33.32Zm.13,1.34h.4v4.17h-.4Z"/><path class="cls-2" d="M382,105.9v5.93h-.4v-1a1.84,1.84,0,0,1-1.71,1,2.12,2.12,0,0,1,0-4.24,1.88,1.88,0,0,1,1.71,1V105.9Zm-.4,3.85a1.68,1.68,0,1,0-1.68,1.76A1.66,1.66,0,0,0,381.58,109.75Z"/><path class="cls-2" d="M387.19,109.84H383.6a1.78,1.78,0,0,0,3.1,1.08l.24.27a2.16,2.16,0,0,1-3.73-1.44,2,2,0,0,1,2-2.12,2,2,0,0,1,2,2.1S387.19,109.8,387.19,109.84Zm-3.58-.31h3.2a1.6,1.6,0,0,0-3.2,0Zm1.58-2.55h-.44l1.11-.94h.58Z"/><path class="cls-2" d="M388,109.75a2.09,2.09,0,1,1,2.09,2.12A2,2,0,0,1,388,109.75Zm3.77,0a1.68,1.68,0,1,0-1.68,1.76A1.66,1.66,0,0,0,391.75,109.75Z"/><path class="cls-2" d="M64.28,122.75a2,2,0,0,1-2.06,2.12,1.87,1.87,0,0,1-1.7-1v2.5h-.4v-5.72h.38v1a1.87,1.87,0,0,1,1.72-1A2,2,0,0,1,64.28,122.75Zm-.4,0a1.69,1.69,0,1,0-1.69,1.76A1.66,1.66,0,0,0,63.88,122.75Z"/><path class="cls-2" d="M68.52,122.19v2.64h-.38v-.74a1.62,1.62,0,0,1-1.51.78c-.93,0-1.5-.48-1.5-1.2s.4-1.16,1.56-1.16h1.43v-.34A1.09,1.09,0,0,0,66.88,121a2.16,2.16,0,0,0-1.44.53l-.2-.29a2.53,2.53,0,0,1,1.67-.59A1.42,1.42,0,0,1,68.52,122.19Zm-.4,1.41v-.78H66.7c-.87,0-1.17.36-1.17.84s.42.88,1.16.88A1.44,1.44,0,0,0,68.12,123.6Z"/><path class="cls-2" d="M72.14,120.63V121h-.09a1.44,1.44,0,0,0-1.48,1.65v2.17h-.4v-4.17h.38v.91A1.58,1.58,0,0,1,72.14,120.63Z"/><path class="cls-2" d="M75.38,118.9h.4v5.93h-.4Z"/><path class="cls-2" d="M80.48,122.19v2.64H80.1v-.74a1.62,1.62,0,0,1-1.51.78c-.93,0-1.5-.48-1.5-1.2s.4-1.16,1.56-1.16h1.43v-.34A1.09,1.09,0,0,0,78.84,121a2.16,2.16,0,0,0-1.44.53l-.2-.29a2.53,2.53,0,0,1,1.67-.59A1.42,1.42,0,0,1,80.48,122.19Zm-.4,1.41v-.78H78.66c-.87,0-1.17.36-1.17.84s.42.88,1.16.88A1.44,1.44,0,0,0,80.08,123.6Z"/><path class="cls-2" d="M88.34,122.75a2,2,0,0,1-2.06,2.12,1.87,1.87,0,0,1-1.7-1v2.5h-.4v-5.72h.39v1a1.86,1.86,0,0,1,1.71-1A2,2,0,0,1,88.34,122.75Zm-.4,0a1.68,1.68,0,1,0-1.68,1.76A1.66,1.66,0,0,0,87.94,122.75Z"/><path class="cls-2" d="M91.56,120.63V121h-.1A1.45,1.45,0,0,0,90,122.66v2.17h-.4v-4.17H90v.91A1.58,1.58,0,0,1,91.56,120.63Z"/><path class="cls-2" d="M95.68,122.19v2.64H95.3v-.74a1.62,1.62,0,0,1-1.51.78c-.93,0-1.5-.48-1.5-1.2s.4-1.16,1.56-1.16h1.43v-.34A1.09,1.09,0,0,0,94,121a2.16,2.16,0,0,0-1.44.53l-.2-.29a2.53,2.53,0,0,1,1.67-.59A1.42,1.42,0,0,1,95.68,122.19Zm-.4,1.41v-.78H93.86c-.87,0-1.17.36-1.17.84s.42.88,1.16.88A1.44,1.44,0,0,0,95.28,123.6Z"/><path class="cls-2" d="M99.4,124.57a1.27,1.27,0,0,1-.86.3,1,1,0,0,1-1.13-1.14V121h-.77v-.34h.77v-.91h.4v.91h1.33V121H97.81v2.69c0,.54.26.83.77.83a1,1,0,0,0,.65-.23Z"/><path class="cls-2" d="M100.38,119.32a.33.33,0,0,1,.33-.32.32.32,0,1,1,0,.64A.32.32,0,0,1,100.38,119.32Zm.13,1.34h.4v4.17h-.4Z"/><path class="cls-2" d="M106.31,120.66v5.72h-.4v-2.51a1.88,1.88,0,0,1-1.7,1,2.12,2.12,0,0,1,0-4.24,1.86,1.86,0,0,1,1.71,1v-1Zm-.4,2.09a1.68,1.68,0,1,0-1.68,1.76A1.66,1.66,0,0,0,105.91,122.75Z"/><path class="cls-2" d="M111.65,120.66v4.17h-.38v-.89a1.65,1.65,0,0,1-1.57.93A1.6,1.6,0,0,1,108,123.1v-2.44h.4v2.41a1.28,1.28,0,0,0,1.38,1.44,1.47,1.47,0,0,0,1.52-1.63v-2.22Z"/><path class="cls-2" d="M116.88,122.84h-3.59a1.78,1.78,0,0,0,3.1,1.08l.23.27a2,2,0,0,1-1.57.68,2,2,0,0,1-2.15-2.12,2,2,0,1,1,4,0S116.88,122.8,116.88,122.84Zm-3.58-.31h3.19a1.6,1.6,0,0,0-3.19,0Z"/><path class="cls-2" d="M117.74,124.52a.34.34,0,0,1,.68,0,.34.34,0,1,1-.68,0Z"/><path class="cls-2" d="M126.17,121.12c0,1.18-.84,1.88-2.25,1.88h-1.6v1.83h-.41v-5.59h2C125.33,119.24,126.17,119.94,126.17,121.12Zm-.41,0c0-1-.64-1.52-1.84-1.52h-1.6v3h1.6C125.12,122.63,125.76,122.08,125.76,121.12Z"/><path class="cls-2" d="M130.4,122.19v2.64H130v-.74a1.59,1.59,0,0,1-1.5.78c-.93,0-1.5-.48-1.5-1.2s.4-1.16,1.56-1.16H130v-.34a1.09,1.09,0,0,0-1.24-1.19,2.16,2.16,0,0,0-1.44.53l-.2-.29a2.53,2.53,0,0,1,1.67-.59A1.42,1.42,0,0,1,130.4,122.19Zm-.4,1.41v-.78h-1.42c-.87,0-1.17.36-1.17.84s.42.88,1.16.88A1.44,1.44,0,0,0,130,123.6Z"/><path class="cls-2" d="M131.43,124.33l.19-.32a2.42,2.42,0,0,0,1.5.5c.88,0,1.23-.31,1.23-.78,0-1.22-2.77-.32-2.77-2,0-.63.53-1.14,1.59-1.14a2.54,2.54,0,0,1,1.43.41l-.18.32a2.15,2.15,0,0,0-1.26-.38c-.82,0-1.18.34-1.18.78,0,1.26,2.77.37,2.77,2,0,.68-.58,1.15-1.65,1.15A2.66,2.66,0,0,1,131.43,124.33Z"/><path class="cls-2" d="M135.26,124.33l.18-.32a2.44,2.44,0,0,0,1.5.5c.88,0,1.24-.31,1.24-.78,0-1.22-2.77-.32-2.77-2,0-.63.53-1.14,1.58-1.14a2.52,2.52,0,0,1,1.43.41l-.18.32A2.13,2.13,0,0,0,137,121c-.81,0-1.17.34-1.17.78,0,1.26,2.76.37,2.76,2,0,.68-.58,1.15-1.64,1.15A2.62,2.62,0,0,1,135.26,124.33Z"/><path class="cls-2" d="M139.57,119.32a.32.32,0,0,1,.33-.32.32.32,0,1,1-.33.32Zm.13,1.34h.4v4.17h-.4Z"/><path class="cls-2" d="M141.33,122.75a2.09,2.09,0,1,1,2.09,2.12A2,2,0,0,1,141.33,122.75Zm3.76,0a1.68,1.68,0,1,0-1.67,1.76A1.65,1.65,0,0,0,145.09,122.75Z"/><path class="cls-2" d="M150.48,122.39v2.44h-.4v-2.4a1.26,1.26,0,0,0-1.35-1.44,1.49,1.49,0,0,0-1.59,1.62v2.22h-.4v-4.17h.39v.9a1.72,1.72,0,0,1,1.65-.93A1.58,1.58,0,0,1,150.48,122.39Z"/><path class="cls-2" d="M155.86,122.39v2.44h-.4v-2.4a1.26,1.26,0,0,0-1.35-1.44,1.49,1.49,0,0,0-1.58,1.62v2.22h-.4v-4.17h.38v.9a1.73,1.73,0,0,1,1.66-.93A1.58,1.58,0,0,1,155.86,122.39Z"/><path class="cls-2" d="M161.05,122.84h-3.59a1.68,1.68,0,0,0,1.76,1.67,1.7,1.7,0,0,0,1.34-.59l.23.27a2,2,0,0,1-1.57.68,2.05,2.05,0,0,1-2.16-2.12,2,2,0,0,1,2-2.12,2,2,0,0,1,2,2.1Zm-3.59-.31h3.2a1.6,1.6,0,0,0-3.2,0ZM159,120h-.43l1.11-.94h.57Z"/><path class="cls-2" d="M168.51,122.75a2,2,0,0,1-2.06,2.12,1.87,1.87,0,0,1-1.7-1v2.5h-.4v-5.72h.39v1a1.85,1.85,0,0,1,1.71-1A2,2,0,0,1,168.51,122.75Zm-.4,0a1.69,1.69,0,1,0-1.69,1.76A1.66,1.66,0,0,0,168.11,122.75Z"/><path class="cls-2" d="M172.75,122.19v2.64h-.38v-.74a1.62,1.62,0,0,1-1.51.78c-.93,0-1.5-.48-1.5-1.2s.4-1.16,1.56-1.16h1.43v-.34a1.09,1.09,0,0,0-1.24-1.19,2.2,2.2,0,0,0-1.44.53l-.2-.29a2.55,2.55,0,0,1,1.67-.59A1.42,1.42,0,0,1,172.75,122.19Zm-.4,1.41v-.78h-1.42c-.87,0-1.17.36-1.17.84s.42.88,1.16.88A1.44,1.44,0,0,0,172.35,123.6Z"/><path class="cls-2" d="M176.38,120.63V121h-.1a1.44,1.44,0,0,0-1.48,1.65v2.17h-.4v-4.17h.38v.91A1.59,1.59,0,0,1,176.38,120.63Z"/><path class="cls-2" d="M179.61,118.9h.4v5.93h-.4Z"/><path class="cls-2" d="M185.22,122.84h-3.59a1.78,1.78,0,0,0,3.1,1.08l.24.27a2.16,2.16,0,0,1-3.73-1.44,2,2,0,0,1,2-2.12,2,2,0,0,1,2,2.1S185.22,122.8,185.22,122.84Zm-3.58-.31h3.2a1.6,1.6,0,0,0-3.2,0Z"/><path class="cls-2" d="M192.29,120.66v3.73a1.78,1.78,0,0,1-2,2,2.74,2.74,0,0,1-1.91-.67l.22-.3a2.47,2.47,0,0,0,1.69.61,1.42,1.42,0,0,0,1.63-1.63v-.7a1.94,1.94,0,0,1-1.74,1,2,2,0,1,1,0-4.05,1.91,1.91,0,0,1,1.75,1v-.94Zm-.4,2a1.71,1.71,0,1,0-1.71,1.67A1.62,1.62,0,0,0,191.89,122.65Z"/><path class="cls-2" d="M197,122.19v2.64h-.39v-.74a1.59,1.59,0,0,1-1.5.78c-.93,0-1.5-.48-1.5-1.2s.4-1.16,1.56-1.16h1.43v-.34a1.09,1.09,0,0,0-1.24-1.19,2.16,2.16,0,0,0-1.44.53l-.2-.29a2.53,2.53,0,0,1,1.67-.59A1.42,1.42,0,0,1,197,122.19Zm-.4,1.41v-.78h-1.42c-.87,0-1.17.36-1.17.84s.42.88,1.16.88A1.44,1.44,0,0,0,196.6,123.6Z"/><path class="cls-2" d="M205.51,122.39v2.44h-.4v-2.4c0-1-.49-1.44-1.3-1.44a1.46,1.46,0,0,0-1.53,1.62v2.22h-.4v-2.4c0-1-.49-1.44-1.31-1.44a1.46,1.46,0,0,0-1.52,1.62v2.22h-.4v-4.17H199v.9a1.65,1.65,0,0,1,1.6-.93,1.48,1.48,0,0,1,1.53,1,1.76,1.76,0,0,1,1.69-1A1.56,1.56,0,0,1,205.51,122.39Z"/><path class="cls-2" d="M210.69,122.84H207.1a1.79,1.79,0,0,0,3.11,1.08l.23.27a2.16,2.16,0,0,1-3.73-1.44,2,2,0,0,1,2-2.12,2,2,0,0,1,2,2.1S210.69,122.8,210.69,122.84Zm-3.58-.31h3.2a1.6,1.6,0,0,0-3.2,0Z"/><path class="cls-2" d="M216.1,122.75a2,2,0,0,1-2.06,2.12,1.87,1.87,0,0,1-1.7-1v2.5h-.4v-5.72h.39v1a1.85,1.85,0,0,1,1.71-1A2,2,0,0,1,216.1,122.75Zm-.4,0a1.68,1.68,0,1,0-1.69,1.76A1.66,1.66,0,0,0,215.7,122.75Z"/><path class="cls-2" d="M217.34,118.9h.4v5.93h-.4Z"/><path class="cls-2" d="M222.45,122.19v2.64h-.39v-.74a1.59,1.59,0,0,1-1.5.78c-.94,0-1.5-.48-1.5-1.2s.4-1.16,1.55-1.16h1.44v-.34a1.09,1.09,0,0,0-1.24-1.19,2.16,2.16,0,0,0-1.44.53l-.2-.29a2.51,2.51,0,0,1,1.67-.59A1.42,1.42,0,0,1,222.45,122.19Zm-.4,1.41v-.78h-1.43c-.86,0-1.16.36-1.16.84s.42.88,1.15.88A1.44,1.44,0,0,0,222.05,123.6Z"/><path class="cls-2" d="M227.37,120.66l-2.15,4.74c-.33.77-.75,1-1.3,1a1.33,1.33,0,0,1-1-.38l.2-.3a1,1,0,0,0,.78.32c.38,0,.66-.17.92-.74l.22-.5-1.88-4.16h.43l1.67,3.73,1.67-3.73Z"/><path class="cls-2" d="M233.82,122.84h-3.59a1.78,1.78,0,0,0,3.1,1.08l.24.27a2.16,2.16,0,0,1-3.73-1.44,2,2,0,1,1,4,0S233.82,122.8,233.82,122.84Zm-3.58-.31h3.2a1.6,1.6,0,0,0-3.2,0Z"/><path class="cls-2" d="M237.14,124.57a1.26,1.26,0,0,1-.85.3,1,1,0,0,1-1.14-1.14V121h-.77v-.34h.77v-.91h.4v.91h1.33V121h-1.33v2.69c0,.54.27.83.78.83a1,1,0,0,0,.64-.23Z"/><path class="cls-2" d="M240.31,118.9h.4v5.93h-.4Z"/><path class="cls-2" d="M245.41,122.19v2.64H245v-.74a1.6,1.6,0,0,1-1.5.78c-.94,0-1.51-.48-1.51-1.2s.4-1.16,1.56-1.16H245v-.34a1.09,1.09,0,0,0-1.24-1.19,2.16,2.16,0,0,0-1.43.53l-.2-.29a2.51,2.51,0,0,1,1.67-.59A1.42,1.42,0,0,1,245.41,122.19Zm-.4,1.41v-.78h-1.42c-.86,0-1.17.36-1.17.84s.43.88,1.16.88A1.43,1.43,0,0,0,245,123.6Z"/><path class="cls-2" d="M248.66,122.75a2,2,0,0,1,2.11-2.12,1.83,1.83,0,0,1,1.59.77l-.3.21a1.53,1.53,0,0,0-1.29-.62,1.76,1.76,0,0,0,0,3.52,1.51,1.51,0,0,0,1.29-.63l.3.22a1.87,1.87,0,0,1-1.59.77A2,2,0,0,1,248.66,122.75Z"/><path class="cls-2" d="M255.53,120.63V121h-.09a1.44,1.44,0,0,0-1.48,1.65v2.17h-.4v-4.17h.38v.91A1.58,1.58,0,0,1,255.53,120.63Z"/><path class="cls-2" d="M260.12,122.84h-3.59a1.79,1.79,0,0,0,3.11,1.08l.23.27a2,2,0,0,1-1.58.68,2.05,2.05,0,0,1-2.15-2.12,2,2,0,0,1,2-2.12,2,2,0,0,1,2,2.1S260.12,122.8,260.12,122.84Zm-3.58-.31h3.2a1.6,1.6,0,0,0-3.2,0Zm1.58-2.55h-.43l1.11-.94h.57Z"/><path class="cls-2" d="M264.27,122.19v2.64h-.38v-.74a1.62,1.62,0,0,1-1.51.78c-.93,0-1.5-.48-1.5-1.2s.4-1.16,1.56-1.16h1.43v-.34a1.09,1.09,0,0,0-1.24-1.19,2.16,2.16,0,0,0-1.44.53l-.2-.29a2.53,2.53,0,0,1,1.67-.59A1.42,1.42,0,0,1,264.27,122.19Zm-.4,1.41v-.78h-1.42c-.87,0-1.17.36-1.17.84s.42.88,1.16.88A1.44,1.44,0,0,0,263.87,123.6Z"/><path class="cls-2" d="M268,124.57a1.27,1.27,0,0,1-.86.3,1,1,0,0,1-1.13-1.14V121h-.77v-.34H266v-.91h.4v.91h1.33V121H266.4v2.69c0,.54.26.83.77.83a1,1,0,0,0,.65-.23Z"/><path class="cls-2" d="M269,119.32a.32.32,0,0,1,.32-.32.32.32,0,1,1-.32.32Zm.12,1.34h.4v4.17h-.4Z"/><path class="cls-2" d="M270.73,122.75a2.09,2.09,0,1,1,2.09,2.12A2,2,0,0,1,270.73,122.75Zm3.77,0a1.68,1.68,0,1,0-1.68,1.76A1.66,1.66,0,0,0,274.5,122.75Z"/><path class="cls-2" d="M279.88,122.39v2.44h-.4v-2.4a1.26,1.26,0,0,0-1.35-1.44,1.49,1.49,0,0,0-1.58,1.62v2.22h-.4v-4.17h.38v.9a1.73,1.73,0,0,1,1.66-.93A1.58,1.58,0,0,1,279.88,122.39Z"/><path class="cls-2" d="M287.3,118.9v5.93h-.39v-1a1.85,1.85,0,0,1-1.71,1,2.12,2.12,0,0,1,0-4.24,1.88,1.88,0,0,1,1.7,1V118.9Zm-.4,3.85a1.68,1.68,0,1,0-1.68,1.76A1.66,1.66,0,0,0,286.9,122.75Z"/><path class="cls-2" d="M289.28,119.2a1.56,1.56,0,0,1-.07.37l-.32,1.09h-.28l.26-1.13a.32.32,0,0,1-.26-.33.32.32,0,0,1,.33-.33A.34.34,0,0,1,289.28,119.2Z"/><path class="cls-2" d="M294.32,122.39v2.44h-.4v-2.4a1.26,1.26,0,0,0-1.35-1.44,1.49,1.49,0,0,0-1.58,1.62v2.22h-.4V118.9h.4v2.63a1.72,1.72,0,0,1,1.64-.9A1.58,1.58,0,0,1,294.32,122.39Z"/><path class="cls-2" d="M295.85,119.32a.32.32,0,0,1,.32-.32.32.32,0,1,1-.32.32Zm.12,1.34h.4v4.17H296Z"/><path class="cls-2" d="M297.45,124.33l.18-.32a2.44,2.44,0,0,0,1.5.5c.88,0,1.23-.31,1.23-.78,0-1.22-2.76-.32-2.76-2,0-.63.53-1.14,1.58-1.14a2.54,2.54,0,0,1,1.43.41l-.18.32a2.13,2.13,0,0,0-1.26-.38c-.81,0-1.17.34-1.17.78,0,1.26,2.76.37,2.76,2,0,.68-.58,1.15-1.64,1.15A2.62,2.62,0,0,1,297.45,124.33Z"/><path class="cls-2" d="M304,124.57a1.29,1.29,0,0,1-.86.3,1,1,0,0,1-1.13-1.14V121h-.77v-.34H302v-.91h.4v.91h1.32V121h-1.32v2.69c0,.54.26.83.77.83a1,1,0,0,0,.65-.23Z"/><path class="cls-2" d="M304.46,122.75a2.09,2.09,0,1,1,2.09,2.12A2,2,0,0,1,304.46,122.75Zm3.77,0a1.68,1.68,0,1,0-1.68,1.76A1.66,1.66,0,0,0,308.23,122.75Z"/><path class="cls-2" d="M309.75,119.32a.33.33,0,1,1,.33.32A.32.32,0,0,1,309.75,119.32Zm.13,1.34h.4v4.17h-.4Z"/><path class="cls-2" d="M313.94,120.63V121h-.09a1.44,1.44,0,0,0-1.48,1.65v2.17H312v-4.17h.38v.91A1.58,1.58,0,0,1,313.94,120.63Z"/><path class="cls-2" d="M318.53,122.84h-3.59a1.78,1.78,0,0,0,3.1,1.08l.24.27a2.16,2.16,0,0,1-3.73-1.44,2,2,0,0,1,2-2.12,2,2,0,0,1,2,2.1S318.53,122.8,318.53,122.84Zm-3.58-.31h3.2a1.6,1.6,0,0,0-3.2,0Z"/><path class="cls-2" d="M320.07,124.52a1.18,1.18,0,0,1-.07.37l-.31,1.09h-.29l.26-1.13a.32.32,0,0,1-.26-.33.32.32,0,0,1,.33-.33A.34.34,0,0,1,320.07,124.52Z"/><path class="cls-2" d="M321.89,126.14l.16-.3a1,1,0,0,0,.68.23c.48,0,.75-.29.75-.84v-4.57h.4v4.59a1.06,1.06,0,0,1-1.13,1.17A1.25,1.25,0,0,1,321.89,126.14Zm1.46-6.82a.32.32,0,0,1,.33-.32.32.32,0,1,1-.33.32Z"/><path class="cls-2" d="M325.85,119.2a1.18,1.18,0,0,1-.07.37l-.31,1.09h-.29l.26-1.13a.33.33,0,1,1,.41-.33Z"/><path class="cls-2" d="M330.1,122.19v2.64h-.38v-.74a1.62,1.62,0,0,1-1.51.78c-.93,0-1.5-.48-1.5-1.2s.4-1.16,1.56-1.16h1.43v-.34a1.09,1.09,0,0,0-1.24-1.19,2.18,2.18,0,0,0-1.44.53l-.2-.29a2.55,2.55,0,0,1,1.67-.59A1.42,1.42,0,0,1,330.1,122.19Zm-.4,1.41v-.78h-1.42c-.87,0-1.17.36-1.17.84s.42.88,1.16.88A1.44,1.44,0,0,0,329.7,123.6Z"/><path class="cls-2" d="M331.62,119.32A.33.33,0,0,1,332,119a.32.32,0,1,1-.33.32Zm.13,1.34h.4v4.17h-.4Z"/><path class="cls-2" d="M335.44,122.75a2,2,0,0,1,2.11-2.12,1.81,1.81,0,0,1,1.58.77l-.3.21a1.51,1.51,0,0,0-1.28-.62,1.76,1.76,0,0,0,0,3.52,1.5,1.5,0,0,0,1.28-.63l.3.22a1.86,1.86,0,0,1-1.58.77A2,2,0,0,1,335.44,122.75Z"/><path class="cls-2" d="M344,122.39v2.44h-.39v-2.4a1.27,1.27,0,0,0-1.36-1.44,1.49,1.49,0,0,0-1.58,1.62v2.22h-.4V118.9h.4v2.63a1.72,1.72,0,0,1,1.64-.9A1.58,1.58,0,0,1,344,122.39Z"/><path class="cls-2" d="M349.18,122.84h-3.59a1.78,1.78,0,0,0,3.1,1.08l.23.27a2,2,0,0,1-1.57.68,2,2,0,0,1-2.15-2.12,2,2,0,1,1,4,0S349.18,122.8,349.18,122.84Zm-3.58-.31h3.2a1.6,1.6,0,0,0-3.2,0Z"/><path class="cls-2" d="M352.4,120.63V121h-.09a1.44,1.44,0,0,0-1.48,1.65v2.17h-.4v-4.17h.38v.91A1.58,1.58,0,0,1,352.4,120.63Z"/><path class="cls-2" d="M353,122.75a2,2,0,0,1,2.11-2.12,1.83,1.83,0,0,1,1.59.77l-.3.21a1.53,1.53,0,0,0-1.29-.62,1.76,1.76,0,0,0,0,3.52,1.51,1.51,0,0,0,1.29-.63l.3.22a1.87,1.87,0,0,1-1.59.77A2,2,0,0,1,353,122.75Z"/><path class="cls-2" d="M361.57,122.39v2.44h-.4v-2.4a1.26,1.26,0,0,0-1.35-1.44,1.49,1.49,0,0,0-1.58,1.62v2.22h-.4V118.9h.4v2.63a1.71,1.71,0,0,1,1.64-.9A1.58,1.58,0,0,1,361.57,122.39Z"/><path class="cls-2" d="M366.76,122.84h-3.6a1.79,1.79,0,0,0,3.11,1.08l.23.27a2,2,0,0,1-1.58.68,2.05,2.05,0,0,1-2.15-2.12,2,2,0,0,1,2-2.12,2,2,0,0,1,2,2.1Zm-3.59-.31h3.2a1.6,1.6,0,0,0-3.2,0Zm1.58-2.55h-.43l1.11-.94H366Z"/><path class="cls-2" d="M373.08,122.19v2.64h-.39v-.74a1.59,1.59,0,0,1-1.5.78c-.94,0-1.5-.48-1.5-1.2s.39-1.16,1.55-1.16h1.44v-.34a1.09,1.09,0,0,0-1.24-1.19,2.16,2.16,0,0,0-1.44.53l-.2-.29a2.51,2.51,0,0,1,1.67-.59A1.42,1.42,0,0,1,373.08,122.19Zm-.4,1.41v-.78h-1.43c-.86,0-1.17.36-1.17.84s.43.88,1.16.88A1.44,1.44,0,0,0,372.68,123.6Zm-1.2-3.62-1.26-.94h.58l1.11.94Z"/><path class="cls-2" d="M63.14,135.19v2.64h-.39v-.74a1.59,1.59,0,0,1-1.5.78c-.94,0-1.5-.48-1.5-1.2s.4-1.16,1.55-1.16h1.44v-.34A1.09,1.09,0,0,0,61.5,134a2.16,2.16,0,0,0-1.44.53l-.2-.29a2.51,2.51,0,0,1,1.67-.59A1.42,1.42,0,0,1,63.14,135.19Zm-.4,1.41v-.78H61.31c-.86,0-1.16.36-1.16.84s.42.88,1.15.88A1.44,1.44,0,0,0,62.74,136.6Z"/><path class="cls-2" d="M68.94,135.75a2,2,0,0,1-2.06,2.12,1.84,1.84,0,0,1-1.69-1v2.5h-.4v-5.72h.38v1a1.86,1.86,0,0,1,1.71-1A2,2,0,0,1,68.94,135.75Zm-.4,0a1.68,1.68,0,1,0-1.68,1.76A1.66,1.66,0,0,0,68.54,135.75Z"/><path class="cls-2" d="M74.34,135.75a2,2,0,0,1-2.06,2.12,1.87,1.87,0,0,1-1.7-1v2.5h-.39v-5.72h.38v1a1.86,1.86,0,0,1,1.71-1A2,2,0,0,1,74.34,135.75Zm-.4,0a1.68,1.68,0,1,0-1.68,1.76A1.66,1.66,0,0,0,73.94,135.75Z"/><path class="cls-2" d="M77.56,133.63V134h-.1A1.45,1.45,0,0,0,76,135.66v2.17h-.39v-4.17H76v.91A1.58,1.58,0,0,1,77.56,133.63Z"/><path class="cls-2" d="M78.17,135.75a2.09,2.09,0,1,1,2.09,2.12A2,2,0,0,1,78.17,135.75Zm3.77,0a1.68,1.68,0,1,0-1.68,1.76A1.66,1.66,0,0,0,81.94,135.75Z"/><path class="cls-2" d="M84.06,133.05v.61h1.33V134H84.06v3.83h-.4V134H82.9v-.34h.76V133a1.06,1.06,0,0,1,1.16-1.15,1.27,1.27,0,0,1,.83.27l-.16.3a1,1,0,0,0-.65-.23C84.32,132.21,84.06,132.5,84.06,133.05Z"/><path class="cls-2" d="M85.68,135.75a2.09,2.09,0,1,1,2.09,2.12A2,2,0,0,1,85.68,135.75Zm3.77,0a1.68,1.68,0,1,0-1.68,1.76A1.66,1.66,0,0,0,89.45,135.75Z"/><path class="cls-2" d="M94.83,135.39v2.44h-.4v-2.4A1.26,1.26,0,0,0,93.08,134a1.49,1.49,0,0,0-1.58,1.62v2.22h-.4v-4.17h.38v.9a1.72,1.72,0,0,1,1.66-.93A1.58,1.58,0,0,1,94.83,135.39Z"/><path class="cls-2" d="M100.2,131.9v5.93h-.39v-1a1.85,1.85,0,0,1-1.71,1,2.12,2.12,0,0,1,0-4.24,1.88,1.88,0,0,1,1.7,1V131.9Zm-.4,3.85a1.68,1.68,0,1,0-1.68,1.76A1.66,1.66,0,0,0,99.8,135.75Z"/><path class="cls-2" d="M101.76,132.32a.33.33,0,1,1,.33.32A.32.32,0,0,1,101.76,132.32Zm.13,1.34h.4v4.17h-.4Z"/><path class="cls-2" d="M106,133.63V134h-.09a1.44,1.44,0,0,0-1.48,1.65v2.17H104v-4.17h.38v.91A1.58,1.58,0,0,1,106,133.63Z"/><path class="cls-2" d="M116,135.39v2.44h-.4v-2.4c0-1-.48-1.44-1.3-1.44a1.47,1.47,0,0,0-1.53,1.62v2.22h-.4v-2.4c0-1-.48-1.44-1.3-1.44a1.47,1.47,0,0,0-1.53,1.62v2.22h-.4v-4.17h.39v.9a1.65,1.65,0,0,1,1.6-.93,1.46,1.46,0,0,1,1.52,1,1.77,1.77,0,0,1,1.69-1A1.56,1.56,0,0,1,116,135.39Z"/><path class="cls-2" d="M121.23,135.84h-3.59a1.78,1.78,0,0,0,3.1,1.08l.23.27a2,2,0,0,1-1.57.68,2.05,2.05,0,0,1-2.15-2.12,2,2,0,1,1,4,0S121.23,135.8,121.23,135.84Zm-3.58-.31h3.2a1.6,1.6,0,0,0-3.2,0Z"/><path class="cls-2" d="M121.86,137.33l.19-.32a2.44,2.44,0,0,0,1.5.5c.88,0,1.23-.31,1.23-.78,0-1.22-2.76-.32-2.76-2,0-.63.52-1.14,1.58-1.14A2.54,2.54,0,0,1,125,134l-.18.32a2.15,2.15,0,0,0-1.26-.38c-.81,0-1.17.34-1.17.78,0,1.26,2.76.37,2.76,2,0,.68-.58,1.15-1.65,1.15A2.66,2.66,0,0,1,121.86,137.33Z"/><path class="cls-2" d="M127.9,135.75a2,2,0,0,1,2.11-2.12,1.83,1.83,0,0,1,1.59.77l-.3.21A1.53,1.53,0,0,0,130,134a1.76,1.76,0,0,0,0,3.52,1.51,1.51,0,0,0,1.29-.63l.3.22a1.87,1.87,0,0,1-1.59.77A2,2,0,0,1,127.9,135.75Z"/><path class="cls-2" d="M132.27,135.75a2.09,2.09,0,1,1,2.09,2.12A2,2,0,0,1,132.27,135.75Zm3.77,0a1.68,1.68,0,1,0-1.68,1.76A1.66,1.66,0,0,0,136,135.75Z"/><path class="cls-2" d="M141.42,135.39v2.44H141v-2.4a1.26,1.26,0,0,0-1.35-1.44,1.49,1.49,0,0,0-1.58,1.62v2.22h-.4v-4.17h.38v.9a1.72,1.72,0,0,1,1.66-.93A1.58,1.58,0,0,1,141.42,135.39Z"/><path class="cls-2" d="M146.8,135.39v2.44h-.4v-2.4a1.26,1.26,0,0,0-1.35-1.44,1.49,1.49,0,0,0-1.58,1.62v2.22h-.4v-4.17h.38v.9a1.73,1.73,0,0,1,1.66-.93A1.58,1.58,0,0,1,146.8,135.39Z"/><path class="cls-2" d="M151.47,135.19v2.64h-.38v-.74a1.62,1.62,0,0,1-1.51.78c-.93,0-1.5-.48-1.5-1.2s.4-1.16,1.56-1.16h1.43v-.34a1.09,1.09,0,0,0-1.24-1.19,2.16,2.16,0,0,0-1.44.53l-.2-.29a2.53,2.53,0,0,1,1.67-.59A1.42,1.42,0,0,1,151.47,135.19Zm-.4,1.41v-.78h-1.42c-.87,0-1.17.36-1.17.84s.42.88,1.16.88A1.44,1.44,0,0,0,151.07,136.6Z"/><path class="cls-2" d="M153,132.32a.33.33,0,1,1,.33.32A.32.32,0,0,1,153,132.32Zm.13,1.34h.4v4.17h-.4Z"/><path class="cls-2" d="M154.59,137.33l.18-.32a2.45,2.45,0,0,0,1.51.5c.88,0,1.23-.31,1.23-.78,0-1.22-2.77-.32-2.77-2,0-.63.53-1.14,1.59-1.14a2.57,2.57,0,0,1,1.43.41l-.19.32a2.1,2.1,0,0,0-1.25-.38c-.82,0-1.18.34-1.18.78,0,1.26,2.77.37,2.77,2,0,.68-.58,1.15-1.65,1.15A2.64,2.64,0,0,1,154.59,137.33Z"/><path class="cls-2" d="M158.41,137.33l.19-.32a2.44,2.44,0,0,0,1.5.5c.88,0,1.23-.31,1.23-.78,0-1.22-2.76-.32-2.76-2,0-.63.52-1.14,1.58-1.14a2.54,2.54,0,0,1,1.43.41l-.18.32a2.13,2.13,0,0,0-1.26-.38c-.81,0-1.17.34-1.17.78,0,1.26,2.76.37,2.76,2,0,.68-.58,1.15-1.64,1.15A2.67,2.67,0,0,1,158.41,137.33Z"/><path class="cls-2" d="M165.87,135.19v2.64h-.39v-.74a1.59,1.59,0,0,1-1.5.78c-.93,0-1.5-.48-1.5-1.2s.4-1.16,1.56-1.16h1.43v-.34a1.09,1.09,0,0,0-1.24-1.19,2.16,2.16,0,0,0-1.44.53l-.2-.29a2.53,2.53,0,0,1,1.67-.59A1.42,1.42,0,0,1,165.87,135.19Zm-.4,1.41v-.78h-1.42c-.87,0-1.17.36-1.17.84s.42.88,1.16.88A1.44,1.44,0,0,0,165.47,136.6Z"/><path class="cls-2" d="M171.25,135.39v2.44h-.4v-2.4A1.26,1.26,0,0,0,169.5,134a1.49,1.49,0,0,0-1.58,1.62v2.22h-.4v-4.17h.38v.9a1.73,1.73,0,0,1,1.66-.93A1.58,1.58,0,0,1,171.25,135.39Z"/><path class="cls-2" d="M172.45,135.75a2,2,0,0,1,2.12-2.12,1.82,1.82,0,0,1,1.58.77l-.3.21a1.51,1.51,0,0,0-1.28-.62,1.76,1.76,0,0,0,0,3.52,1.5,1.5,0,0,0,1.28-.63l.3.22a1.87,1.87,0,0,1-1.58.77A2,2,0,0,1,172.45,135.75Z"/><path class="cls-2" d="M180.8,135.84h-3.59a1.79,1.79,0,0,0,3.11,1.08l.23.27a2,2,0,0,1-1.58.68,2.05,2.05,0,0,1-2.15-2.12,2,2,0,0,1,2-2.12,2,2,0,0,1,2,2.1S180.8,135.8,180.8,135.84Zm-3.58-.31h3.2a1.6,1.6,0,0,0-3.2,0Z"/><path class="cls-2" d="M181.44,137.33l.18-.32a2.45,2.45,0,0,0,1.51.5c.88,0,1.23-.31,1.23-.78,0-1.22-2.77-.32-2.77-2,0-.63.53-1.14,1.58-1.14a2.58,2.58,0,0,1,1.44.41l-.19.32a2.12,2.12,0,0,0-1.25-.38c-.82,0-1.18.34-1.18.78,0,1.26,2.77.37,2.77,2,0,.68-.59,1.15-1.65,1.15A2.64,2.64,0,0,1,181.44,137.33Z"/><path class="cls-2" d="M192.09,135.75a2,2,0,0,1-2.06,2.12,1.87,1.87,0,0,1-1.7-1v2.5h-.4v-5.72h.39v1a1.86,1.86,0,0,1,1.71-1A2,2,0,0,1,192.09,135.75Zm-.4,0a1.68,1.68,0,1,0-1.68,1.76A1.66,1.66,0,0,0,191.69,135.75Z"/><path class="cls-2" d="M196.33,135.19v2.64H196v-.74a1.6,1.6,0,0,1-1.5.78c-.94,0-1.51-.48-1.51-1.2s.4-1.16,1.56-1.16h1.43v-.34a1.09,1.09,0,0,0-1.24-1.19,2.2,2.2,0,0,0-1.44.53l-.2-.29a2.56,2.56,0,0,1,1.68-.59A1.42,1.42,0,0,1,196.33,135.19Zm-.4,1.41v-.78h-1.42c-.86,0-1.17.36-1.17.84s.43.88,1.16.88A1.44,1.44,0,0,0,195.93,136.6Z"/><path class="cls-2" d="M200,133.63V134h-.1a1.44,1.44,0,0,0-1.48,1.65v2.17H198v-4.17h.39v.91A1.57,1.57,0,0,1,200,133.63Z"/><path class="cls-2" d="M203.19,131.9h.4v5.93h-.4Z"/><path class="cls-2" d="M208.8,135.84h-3.59a1.79,1.79,0,0,0,3.11,1.08l.23.27a2.16,2.16,0,0,1-3.73-1.44,2,2,0,0,1,2-2.12,2,2,0,0,1,2,2.1S208.8,135.8,208.8,135.84Zm-3.58-.31h3.2a1.6,1.6,0,0,0-3.2,0Z"/><path class="cls-2" d="M216.27,135.75a2,2,0,0,1-2.07,2.12,1.87,1.87,0,0,1-1.71-1v1h-.38V131.9h.4v2.71a1.88,1.88,0,0,1,1.69-1A2,2,0,0,1,216.27,135.75Zm-.4,0a1.69,1.69,0,1,0-1.69,1.76A1.66,1.66,0,0,0,215.87,135.75Z"/><path class="cls-2" d="M217.38,132.32a.33.33,0,1,1,.33.32A.32.32,0,0,1,217.38,132.32Zm.13,1.34h.4v4.17h-.4Z"/><path class="cls-2" d="M222.61,135.19v2.64h-.38v-.74a1.61,1.61,0,0,1-1.5.78c-.94,0-1.51-.48-1.51-1.2s.4-1.16,1.56-1.16h1.43v-.34A1.09,1.09,0,0,0,221,134a2.2,2.2,0,0,0-1.44.53l-.2-.29a2.55,2.55,0,0,1,1.67-.59A1.42,1.42,0,0,1,222.61,135.19Zm-.4,1.41v-.78h-1.42c-.86,0-1.17.36-1.17.84s.43.88,1.16.88A1.44,1.44,0,0,0,222.21,136.6Z"/><path class="cls-2" d="M224.13,132.32a.33.33,0,0,1,.33-.32.32.32,0,1,1,0,.64A.32.32,0,0,1,224.13,132.32Zm.13,1.34h.4v4.17h-.4Z"/><path class="cls-2" d="M225.73,137.33l.19-.32a2.44,2.44,0,0,0,1.5.5c.88,0,1.23-.31,1.23-.78,0-1.22-2.76-.32-2.76-2,0-.63.52-1.14,1.58-1.14a2.54,2.54,0,0,1,1.43.41l-.18.32a2.15,2.15,0,0,0-1.26-.38c-.81,0-1.17.34-1.17.78,0,1.26,2.76.37,2.76,2,0,.68-.58,1.15-1.65,1.15A2.66,2.66,0,0,1,225.73,137.33Z"/><path class="cls-2" d="M235.94,131.9v5.93h-.39v-1a1.85,1.85,0,0,1-1.71,1,2.12,2.12,0,0,1,0-4.24,1.88,1.88,0,0,1,1.7,1V131.9Zm-.4,3.85a1.68,1.68,0,1,0-1.68,1.76A1.66,1.66,0,0,0,235.54,135.75Z"/><path class="cls-2" d="M237.92,132.2a1.24,1.24,0,0,1-.08.37l-.31,1.09h-.29l.27-1.13a.33.33,0,0,1-.27-.33.33.33,0,0,1,.34-.33A.34.34,0,0,1,237.92,132.2Z"/><path class="cls-2" d="M242.88,133.66v4.17h-.38v-.89a1.65,1.65,0,0,1-1.58.93,1.6,1.6,0,0,1-1.74-1.77v-2.44h.4v2.41a1.27,1.27,0,0,0,1.38,1.44,1.47,1.47,0,0,0,1.52-1.63v-2.22Z"/><path class="cls-2" d="M248.32,135.39v2.44h-.41v-2.4a1.26,1.26,0,0,0-1.35-1.44,1.49,1.49,0,0,0-1.58,1.62v2.22h-.4v-4.17H245v.9a1.73,1.73,0,0,1,1.66-.93A1.58,1.58,0,0,1,248.32,135.39Z"/><path class="cls-2" d="M253.5,135.84h-3.59a1.78,1.78,0,0,0,3.1,1.08l.23.27a2,2,0,0,1-1.57.68,2,2,0,0,1-2.15-2.12,2,2,0,1,1,4,0S253.5,135.8,253.5,135.84Zm-3.58-.31h3.19a1.6,1.6,0,0,0-3.19,0Z"/><path class="cls-2" d="M257.28,133.05v.61h1.33V134h-1.33v3.83h-.4V134h-.76v-.34h.76V133a1.06,1.06,0,0,1,1.16-1.15,1.27,1.27,0,0,1,.83.27l-.16.3a1,1,0,0,0-.65-.23C257.54,132.21,257.28,132.5,257.28,133.05Z"/><path class="cls-2" d="M258.9,135.75a2.09,2.09,0,1,1,2.09,2.12A2,2,0,0,1,258.9,135.75Zm3.77,0a1.68,1.68,0,1,0-1.68,1.76A1.66,1.66,0,0,0,262.67,135.75Z"/><path class="cls-2" d="M266.29,133.63V134h-.1c-.92,0-1.47.62-1.47,1.65v2.17h-.4v-4.17h.38v.91A1.58,1.58,0,0,1,266.29,133.63Z"/><path class="cls-2" d="M274.26,135.39v2.44h-.4v-2.4c0-1-.49-1.44-1.31-1.44a1.46,1.46,0,0,0-1.52,1.62v2.22h-.4v-2.4c0-1-.49-1.44-1.31-1.44a1.46,1.46,0,0,0-1.52,1.62v2.22h-.4v-4.17h.38v.9a1.65,1.65,0,0,1,1.6-.93,1.48,1.48,0,0,1,1.53,1,1.75,1.75,0,0,1,1.68-1A1.57,1.57,0,0,1,274.26,135.39Z"/><path class="cls-2" d="M278.92,135.19v2.64h-.38v-.74a1.61,1.61,0,0,1-1.5.78c-.94,0-1.51-.48-1.51-1.2s.4-1.16,1.56-1.16h1.43v-.34a1.09,1.09,0,0,0-1.24-1.19,2.2,2.2,0,0,0-1.44.53l-.2-.29a2.56,2.56,0,0,1,1.68-.59A1.42,1.42,0,0,1,278.92,135.19Zm-.4,1.41v-.78H277.1c-.86,0-1.17.36-1.17.84s.43.88,1.16.88A1.43,1.43,0,0,0,278.52,136.6Z"/><path class="cls-2" d="M282.64,137.57a1.24,1.24,0,0,1-.85.3,1,1,0,0,1-1.14-1.14V134h-.77v-.34h.77v-.91h.4v.91h1.33V134h-1.33v2.69c0,.54.27.83.78.83a1,1,0,0,0,.65-.23Z"/><path class="cls-2" d="M283.63,132.32A.32.32,0,0,1,284,132a.32.32,0,1,1-.33.32Zm.13,1.34h.4v4.17h-.4Z"/><path class="cls-2" d="M285.39,135.75a2.09,2.09,0,1,1,2.09,2.12A2,2,0,0,1,285.39,135.75Zm3.76,0a1.68,1.68,0,1,0-1.67,1.76A1.65,1.65,0,0,0,289.15,135.75Z"/><path class="cls-2" d="M294.54,135.39v2.44h-.4v-2.4a1.26,1.26,0,0,0-1.35-1.44,1.49,1.49,0,0,0-1.59,1.62v2.22h-.4v-4.17h.39v.9a1.72,1.72,0,0,1,1.65-.93A1.58,1.58,0,0,1,294.54,135.39Z"/><path class="cls-2" d="M301.26,135.19v2.64h-.39v-.74a1.59,1.59,0,0,1-1.5.78c-.93,0-1.5-.48-1.5-1.2s.4-1.16,1.56-1.16h1.43v-.34a1.09,1.09,0,0,0-1.24-1.19,2.16,2.16,0,0,0-1.44.53l-.2-.29a2.53,2.53,0,0,1,1.67-.59A1.42,1.42,0,0,1,301.26,135.19Zm-.4,1.41v-.78h-1.42c-.87,0-1.17.36-1.17.84s.42.88,1.16.88A1.44,1.44,0,0,0,300.86,136.6Z"/><path class="cls-2" d="M306.56,133.66v4.17h-.38v-.89a1.65,1.65,0,0,1-1.58.93,1.6,1.6,0,0,1-1.74-1.77v-2.44h.4v2.41a1.27,1.27,0,0,0,1.38,1.44,1.47,1.47,0,0,0,1.52-1.63v-2.22Z"/><path class="cls-2" d="M309.91,135a2.79,2.79,0,0,1,2.9-2.84,2.67,2.67,0,0,1,2,.77l-.25.27a2.33,2.33,0,0,0-1.72-.67,2.47,2.47,0,1,0,0,4.93,2.37,2.37,0,0,0,1.72-.67l.25.26a2.67,2.67,0,0,1-2,.78A2.79,2.79,0,0,1,309.91,135Z"/><path class="cls-2" d="M319.78,135.39v2.44h-.4v-2.4A1.26,1.26,0,0,0,318,134a1.49,1.49,0,0,0-1.59,1.62v2.22H316v-4.17h.39v.9a1.72,1.72,0,0,1,1.65-.93A1.58,1.58,0,0,1,319.78,135.39Z"/><path class="cls-2" d="M324.44,135.19v2.64h-.38v-.74a1.61,1.61,0,0,1-1.5.78c-.94,0-1.51-.48-1.51-1.2s.4-1.16,1.56-1.16H324v-.34A1.09,1.09,0,0,0,322.8,134a2.2,2.2,0,0,0-1.44.53l-.2-.29a2.56,2.56,0,0,1,1.68-.59A1.42,1.42,0,0,1,324.44,135.19Zm-.4,1.41v-.78h-1.42c-.86,0-1.17.36-1.17.84s.43.88,1.16.88A1.43,1.43,0,0,0,324,136.6Z"/><path class="cls-2" d="M333,135.39v2.44h-.4v-2.4c0-1-.48-1.44-1.3-1.44a1.47,1.47,0,0,0-1.53,1.62v2.22h-.4v-2.4c0-1-.49-1.44-1.3-1.44a1.47,1.47,0,0,0-1.53,1.62v2.22h-.4v-4.17h.39v.9a1.64,1.64,0,0,1,1.59-.93,1.47,1.47,0,0,1,1.53,1,1.76,1.76,0,0,1,1.69-1A1.56,1.56,0,0,1,333,135.39Z"/><path class="cls-2" d="M334.25,135.51h2.06v.36h-2.06Z"/><path class="cls-2" d="M341.64,137.47v.36h-3.86v-5.59h3.74v.36h-3.33v2.21h3v.36h-3v2.3Z"/><path class="cls-2" d="M346.74,135.39v2.44h-.4v-2.4A1.26,1.26,0,0,0,345,134a1.49,1.49,0,0,0-1.59,1.62v2.22H343v-4.17h.39v.9a1.72,1.72,0,0,1,1.65-.93A1.58,1.58,0,0,1,346.74,135.39Z"/><path class="cls-2" d="M346.84,139.14l.16-.3a1,1,0,0,0,.68.23c.48,0,.75-.29.75-.84v-4.57h.4v4.59a1.06,1.06,0,0,1-1.13,1.17A1.25,1.25,0,0,1,346.84,139.14Zm1.46-6.82a.32.32,0,0,1,.33-.32.32.32,0,1,1-.33.32Z"/><path class="cls-2" d="M357.38,135.39v2.44H357v-2.4c0-1-.49-1.44-1.31-1.44a1.46,1.46,0,0,0-1.52,1.62v2.22h-.4v-2.4c0-1-.49-1.44-1.31-1.44a1.47,1.47,0,0,0-1.53,1.62v2.22h-.39v-4.17h.38v.9a1.65,1.65,0,0,1,1.6-.93,1.46,1.46,0,0,1,1.52,1,1.77,1.77,0,0,1,1.69-1A1.57,1.57,0,0,1,357.38,135.39Z"/><path class="cls-2" d="M358.9,132.32a.32.32,0,0,1,.33-.32.32.32,0,1,1-.33.32Zm.13,1.34h.4v4.17H359Z"/><path class="cls-2" d="M364.85,135.39v2.44h-.4v-2.4A1.26,1.26,0,0,0,363.1,134a1.49,1.49,0,0,0-1.59,1.62v2.22h-.4v-4.17h.39v.9a1.72,1.72,0,0,1,1.65-.93A1.58,1.58,0,0,1,364.85,135.39Z"/><path class="cls-2" d="M366.11,137.52a.34.34,0,0,1,.68,0,.34.34,0,1,1-.68,0Z"/><path class="cls-2" d="M375.57,137.83V133l-2.35,4.05H373l-2.34-4v4.77h-.4v-5.59h.35l2.5,4.32,2.5-4.32H376v5.59Z"/><path class="cls-2" d="M377.35,135.75a2.09,2.09,0,1,1,2.08,2.12A2,2,0,0,1,377.35,135.75Zm3.76,0a1.68,1.68,0,1,0-1.68,1.76A1.66,1.66,0,0,0,381.11,135.75Z"/><path class="cls-2" d="M386.49,135.39v2.44h-.39v-2.4a1.27,1.27,0,0,0-1.36-1.44,1.49,1.49,0,0,0-1.58,1.62v2.22h-.4v-4.17h.39v.9a1.71,1.71,0,0,1,1.65-.93A1.58,1.58,0,0,1,386.49,135.39Z"/><path class="cls-2" d="M59.51,150.33l.18-.32a2.44,2.44,0,0,0,1.5.5c.88,0,1.23-.31,1.23-.78,0-1.22-2.76-.32-2.76-2,0-.63.53-1.14,1.58-1.14a2.54,2.54,0,0,1,1.43.41l-.18.32a2.13,2.13,0,0,0-1.26-.38c-.81,0-1.17.34-1.17.78,0,1.26,2.76.37,2.76,2,0,.68-.58,1.15-1.64,1.15A2.62,2.62,0,0,1,59.51,150.33Z"/><path class="cls-2" d="M66,150.57a1.29,1.29,0,0,1-.86.3A1,1,0,0,1,64,149.73V147h-.76v-.34H64v-.91h.4v.91h1.33V147H64.42v2.69c0,.54.27.83.78.83a1,1,0,0,0,.65-.23Z"/><path class="cls-2" d="M70.14,148.19v2.64h-.38v-.74a1.6,1.6,0,0,1-1.5.78c-.94,0-1.51-.48-1.51-1.2s.4-1.16,1.56-1.16h1.43v-.34A1.09,1.09,0,0,0,68.5,147a2.16,2.16,0,0,0-1.43.53l-.21-.29a2.56,2.56,0,0,1,1.68-.59A1.42,1.42,0,0,1,70.14,148.19Zm-.4,1.41v-.78H68.32c-.86,0-1.17.36-1.17.84s.43.88,1.16.88A1.43,1.43,0,0,0,69.74,149.6Z"/><path class="cls-2" d="M75.56,146.66v3.73a1.77,1.77,0,0,1-2,2,2.76,2.76,0,0,1-1.92-.67l.22-.3a2.51,2.51,0,0,0,1.69.61,1.42,1.42,0,0,0,1.63-1.63v-.7a1.92,1.92,0,0,1-1.74,1,2,2,0,1,1,0-4.05,1.91,1.91,0,0,1,1.75,1v-.94Zm-.39,2a1.71,1.71,0,1,0-1.71,1.67A1.62,1.62,0,0,0,75.17,148.65Z"/><path class="cls-2" d="M80.78,148.84H77.19a1.79,1.79,0,0,0,3.11,1.08l.23.27a2.16,2.16,0,0,1-3.73-1.44,2,2,0,0,1,2-2.12,2,2,0,0,1,2,2.1S80.78,148.8,80.78,148.84Zm-3.58-.31h3.2a1.6,1.6,0,0,0-3.2,0Z"/><path class="cls-2" d="M83.63,148.75a2,2,0,0,1,2.11-2.12,1.83,1.83,0,0,1,1.59.77l-.3.21a1.53,1.53,0,0,0-1.29-.62,1.76,1.76,0,0,0,0,3.52,1.51,1.51,0,0,0,1.29-.63l.3.22a1.87,1.87,0,0,1-1.59.77A2,2,0,0,1,83.63,148.75Z"/><path class="cls-2" d="M92.19,148.39v2.44h-.4v-2.4A1.26,1.26,0,0,0,90.44,147a1.49,1.49,0,0,0-1.58,1.62v2.22h-.4V144.9h.4v2.63a1.71,1.71,0,0,1,1.64-.9A1.58,1.58,0,0,1,92.19,148.39Z"/><path class="cls-2" d="M97.37,148.84H93.78a1.79,1.79,0,0,0,3.11,1.08l.23.27a2.16,2.16,0,0,1-3.73-1.44,2,2,0,0,1,2-2.12,2,2,0,0,1,2,2.1S97.37,148.8,97.37,148.84Zm-3.58-.31H97a1.6,1.6,0,0,0-3.2,0Z"/><path class="cls-2" d="M101.41,150.49v.34H98.09v-.27l2.75-3.56H98.13v-.34h3.23v.27l-2.76,3.56Z"/><path class="cls-2" d="M104.74,148.46v-3.22h.41v3.2c0,1.4.67,2.06,1.84,2.06s1.83-.66,1.83-2.06v-3.2h.41v3.22a2.25,2.25,0,1,1-4.49,0Z"/><path class="cls-2" d="M115.17,148.75a2,2,0,0,1-2.07,2.12,1.87,1.87,0,0,1-1.71-1v1H111V144.9h.4v2.71a1.86,1.86,0,0,1,1.69-1A2,2,0,0,1,115.17,148.75Zm-.4,0a1.69,1.69,0,1,0-1.69,1.76A1.66,1.66,0,0,0,114.77,148.75Z"/><path class="cls-2" d="M116.28,145.32a.33.33,0,1,1,.33.32A.32.32,0,0,1,116.28,145.32Zm.13,1.34h.4v4.17h-.4Z"/><path class="cls-2" d="M117.88,150.33l.18-.32a2.45,2.45,0,0,0,1.51.5c.88,0,1.23-.31,1.23-.78,0-1.22-2.77-.32-2.77-2,0-.63.53-1.14,1.58-1.14a2.58,2.58,0,0,1,1.44.41l-.19.32a2.12,2.12,0,0,0-1.25-.38c-.82,0-1.18.34-1.18.78,0,1.26,2.77.37,2.77,2,0,.68-.59,1.15-1.65,1.15A2.64,2.64,0,0,1,117.88,150.33Z"/><path class="cls-2" d="M121.86,148.75a2.09,2.09,0,1,1,2.09,2.12A2,2,0,0,1,121.86,148.75Zm3.77,0a1.68,1.68,0,1,0-1.68,1.76A1.66,1.66,0,0,0,125.63,148.75Z"/><path class="cls-2" d="M127.75,146.05v.61h1.34V147h-1.33v3.83h-.4V147h-.77v-.34h.77V146a1.06,1.06,0,0,1,1.16-1.15,1.26,1.26,0,0,1,.82.27l-.16.3a1,1,0,0,0-.64-.23C128,145.21,127.75,145.5,127.75,146.05Z"/><path class="cls-2" d="M132,150.57a1.24,1.24,0,0,1-.85.3,1,1,0,0,1-1.14-1.14V147h-.76v-.34H130v-.91h.4v.91h1.33V147h-1.33v2.69c0,.54.27.83.78.83a1,1,0,0,0,.65-.23Z"/><path class="cls-2" d="M142,148.39v2.44h-.4v-2.4c0-1-.48-1.44-1.3-1.44a1.47,1.47,0,0,0-1.53,1.62v2.22h-.4v-2.4c0-1-.48-1.44-1.3-1.44a1.47,1.47,0,0,0-1.53,1.62v2.22h-.4v-4.17h.39v.9a1.65,1.65,0,0,1,1.6-.93,1.46,1.46,0,0,1,1.52,1,1.77,1.77,0,0,1,1.69-1A1.56,1.56,0,0,1,142,148.39Z"/><path class="cls-2" d="M143.87,145.2a1.18,1.18,0,0,1-.07.37l-.31,1.09h-.29l.26-1.13a.33.33,0,1,1,.41-.33Z"/><path class="cls-2" d="M148.12,148.19v2.64h-.39v-.74a1.59,1.59,0,0,1-1.5.78c-.93,0-1.5-.48-1.5-1.2s.4-1.16,1.56-1.16h1.43v-.34a1.09,1.09,0,0,0-1.24-1.19,2.16,2.16,0,0,0-1.44.53l-.2-.29a2.53,2.53,0,0,1,1.67-.59A1.42,1.42,0,0,1,148.12,148.19Zm-.4,1.41v-.78H146.3c-.87,0-1.17.36-1.17.84s.42.88,1.16.88A1.44,1.44,0,0,0,147.72,149.6Z"/><path class="cls-2" d="M156,148.75a2,2,0,0,1-2.06,2.12,1.87,1.87,0,0,1-1.7-1v2.5h-.4v-5.72h.39v1a1.86,1.86,0,0,1,1.71-1A2,2,0,0,1,156,148.75Zm-.4,0a1.68,1.68,0,1,0-1.69,1.76A1.66,1.66,0,0,0,155.58,148.75Z"/><path class="cls-2" d="M160.75,148.84h-3.59a1.78,1.78,0,0,0,3.1,1.08l.23.27a2,2,0,0,1-1.57.68,2.05,2.05,0,0,1-2.15-2.12,2,2,0,1,1,4,0S160.75,148.8,160.75,148.84Zm-3.58-.31h3.2a1.6,1.6,0,0,0-3.2,0Z"/><path class="cls-2" d="M164,146.63V147h-.09a1.44,1.44,0,0,0-1.48,1.65v2.17H162v-4.17h.38v.91A1.58,1.58,0,0,1,164,146.63Z"/><path class="cls-2" d="M171.94,148.39v2.44h-.4v-2.4c0-1-.49-1.44-1.3-1.44a1.46,1.46,0,0,0-1.53,1.62v2.22h-.4v-2.4c0-1-.49-1.44-1.3-1.44a1.46,1.46,0,0,0-1.53,1.62v2.22h-.4v-4.17h.38v.9a1.65,1.65,0,0,1,1.6-.93,1.47,1.47,0,0,1,1.53,1,1.76,1.76,0,0,1,1.69-1A1.56,1.56,0,0,1,171.94,148.39Z"/><path class="cls-2" d="M173.46,145.32a.33.33,0,0,1,.33-.32.32.32,0,1,1,0,.64A.32.32,0,0,1,173.46,145.32Zm.13,1.34h.4v4.17h-.4Z"/><path class="cls-2" d="M175.06,150.33l.19-.32a2.44,2.44,0,0,0,1.5.5c.88,0,1.23-.31,1.23-.78,0-1.22-2.76-.32-2.76-2,0-.63.52-1.14,1.58-1.14a2.54,2.54,0,0,1,1.43.41l-.18.32a2.15,2.15,0,0,0-1.26-.38c-.81,0-1.17.34-1.17.78,0,1.26,2.76.37,2.76,2,0,.68-.58,1.15-1.65,1.15A2.66,2.66,0,0,1,175.06,150.33Z"/><path class="cls-2" d="M185.27,144.9v5.93h-.39v-1a1.85,1.85,0,0,1-1.71,1,2.12,2.12,0,0,1,0-4.24,1.88,1.88,0,0,1,1.7,1V144.9Zm-.4,3.85a1.68,1.68,0,1,0-1.68,1.76A1.66,1.66,0,0,0,184.87,148.75Z"/><path class="cls-2" d="M190.49,148.84H186.9a1.68,1.68,0,0,0,1.76,1.67,1.7,1.7,0,0,0,1.34-.59l.23.27a2,2,0,0,1-1.58.68,2.05,2.05,0,0,1-2.15-2.12,2,2,0,0,1,2-2.12,2,2,0,0,1,2,2.1Zm-3.59-.31h3.2a1.6,1.6,0,0,0-3.2,0Z"/><path class="cls-2" d="M195.86,150.57a1.26,1.26,0,0,1-.85.3,1,1,0,0,1-1.14-1.14V147h-.77v-.34h.77v-.91h.4v.91h1.33V147h-1.33v2.69c0,.54.26.83.78.83a1,1,0,0,0,.64-.23Z"/><path class="cls-2" d="M196.37,148.75a2.09,2.09,0,1,1,2.08,2.12A2,2,0,0,1,196.37,148.75Zm3.76,0a1.68,1.68,0,1,0-1.68,1.76A1.66,1.66,0,0,0,200.13,148.75Z"/><path class="cls-2" d="M205.44,146.66v4.17h-.39v-.89a1.65,1.65,0,0,1-1.57.93,1.6,1.6,0,0,1-1.75-1.77v-2.44h.41v2.41a1.27,1.27,0,0,0,1.37,1.44,1.48,1.48,0,0,0,1.53-1.63v-2.22Z"/><path class="cls-2" d="M206.68,148.75a2,2,0,0,1,2.11-2.12,1.81,1.81,0,0,1,1.58.77l-.29.21a1.54,1.54,0,0,0-1.29-.62,1.76,1.76,0,0,0,0,3.52,1.53,1.53,0,0,0,1.29-.63l.29.22a1.86,1.86,0,0,1-1.58.77A2,2,0,0,1,206.68,148.75Z"/><path class="cls-2" d="M215.24,148.39v2.44h-.4v-2.4a1.26,1.26,0,0,0-1.35-1.44,1.49,1.49,0,0,0-1.59,1.62v2.22h-.4V144.9h.4v2.63a1.73,1.73,0,0,1,1.64-.9A1.58,1.58,0,0,1,215.24,148.39Z"/><path class="cls-2" d="M220.42,148.84h-3.59a1.78,1.78,0,0,0,3.1,1.08l.24.27a2.16,2.16,0,0,1-3.73-1.44,2,2,0,1,1,4,0S220.42,148.8,220.42,148.84Zm-3.58-.31H220a1.6,1.6,0,0,0-3.2,0Z"/><path class="cls-2" d="M223.65,146.63V147h-.1a1.44,1.44,0,0,0-1.48,1.65v2.17h-.4v-4.17h.39v.91A1.57,1.57,0,0,1,223.65,146.63Z"/><path class="cls-2" d="M230.59,144.9v5.93h-.39v-1a1.85,1.85,0,0,1-1.71,1,2.12,2.12,0,0,1,0-4.24,1.88,1.88,0,0,1,1.7,1V144.9Zm-.4,3.85a1.68,1.68,0,1,0-1.68,1.76A1.66,1.66,0,0,0,230.19,148.75Z"/><path class="cls-2" d="M235.93,146.66v4.17h-.38v-.89a1.65,1.65,0,0,1-1.58.93,1.6,1.6,0,0,1-1.74-1.77v-2.44h.4v2.41a1.27,1.27,0,0,0,1.38,1.44,1.47,1.47,0,0,0,1.52-1.63v-2.22Z"/><path class="cls-2" d="M243.4,144.9v5.93H243v-1a1.83,1.83,0,0,1-1.71,1,2.12,2.12,0,0,1,0-4.24,1.88,1.88,0,0,1,1.71,1V144.9Zm-.4,3.85a1.68,1.68,0,1,0-1.68,1.76A1.66,1.66,0,0,0,243,148.75Z"/><path class="cls-2" d="M244.63,148.75a2.09,2.09,0,1,1,2.09,2.12A2,2,0,0,1,244.63,148.75Zm3.77,0a1.68,1.68,0,1,0-1.68,1.76A1.66,1.66,0,0,0,248.4,148.75Z"/><path class="cls-2" d="M249.92,145.32a.32.32,0,0,1,.33-.32.32.32,0,1,1-.33.32Zm.13,1.34h.4v4.17h-.4Z"/><path class="cls-2" d="M255.89,146.66v3.73a1.77,1.77,0,0,1-2,2,2.72,2.72,0,0,1-1.91-.67l.21-.3a2.51,2.51,0,0,0,1.69.61,1.42,1.42,0,0,0,1.63-1.63v-.7a1.91,1.91,0,0,1-1.73,1,2,2,0,1,1,0-4.05,1.93,1.93,0,0,1,1.75,1v-.94Zm-.39,2a1.71,1.71,0,1,0-1.71,1.67A1.62,1.62,0,0,0,255.5,148.65Z"/><path class="cls-2" d="M259.66,150.57a1.26,1.26,0,0,1-.85.3,1,1,0,0,1-1.14-1.14V147h-.77v-.34h.77v-.91h.4v.91h1.33V147h-1.33v2.69c0,.54.26.83.78.83a1,1,0,0,0,.64-.23Z"/><path class="cls-2" d="M269.69,148.39v2.44h-.4v-2.4c0-1-.49-1.44-1.3-1.44a1.46,1.46,0,0,0-1.53,1.62v2.22h-.4v-2.4c0-1-.49-1.44-1.3-1.44a1.46,1.46,0,0,0-1.53,1.62v2.22h-.4v-4.17h.38v.9a1.66,1.66,0,0,1,1.6-.93,1.47,1.47,0,0,1,1.53,1,1.76,1.76,0,0,1,1.69-1A1.56,1.56,0,0,1,269.69,148.39Z"/><path class="cls-2" d="M270.89,148.75a2.09,2.09,0,1,1,2.09,2.12A2,2,0,0,1,270.89,148.75Zm3.77,0a1.68,1.68,0,1,0-1.68,1.76A1.66,1.66,0,0,0,274.66,148.75Z"/><path class="cls-2" d="M280,148.39v2.44h-.4v-2.4a1.26,1.26,0,0,0-1.35-1.44,1.49,1.49,0,0,0-1.58,1.62v2.22h-.4v-4.17h.38v.9a1.73,1.73,0,0,1,1.66-.93A1.58,1.58,0,0,1,280,148.39Z"/><path class="cls-2" d="M285.72,146.63V147h-.09a1.44,1.44,0,0,0-1.48,1.65v2.17h-.4v-4.17h.38v.91A1.58,1.58,0,0,1,285.72,146.63Z"/><path class="cls-2" d="M290.32,148.84h-3.59a1.68,1.68,0,0,0,1.76,1.67,1.7,1.7,0,0,0,1.34-.59l.23.27a2,2,0,0,1-1.58.68,2.05,2.05,0,0,1-2.15-2.12,2,2,0,0,1,2-2.12,2,2,0,0,1,2,2.1Zm-3.59-.31h3.2a1.6,1.6,0,0,0-3.2,0Zm.77-2.55h-.4l1-.94h.45l1,.94h-.4l-.83-.7Z"/><path class="cls-2" d="M294.84,146.66,293,150.83h-.41l-1.88-4.17h.43l1.66,3.73,1.68-3.73Z"/><path class="cls-2" d="M299.12,148.84h-3.59a1.68,1.68,0,0,0,1.76,1.67,1.7,1.7,0,0,0,1.34-.59l.23.27a2,2,0,0,1-1.58.68,2.05,2.05,0,0,1-2.15-2.12,2,2,0,0,1,2-2.12,2,2,0,0,1,2,2.1Zm-3.59-.31h3.2a1.6,1.6,0,0,0-3.2,0Z"/><path class="cls-2" d="M306,148.84h-3.59a1.68,1.68,0,0,0,1.76,1.67,1.7,1.7,0,0,0,1.34-.59l.23.27a2,2,0,0,1-1.57.68,2.05,2.05,0,0,1-2.16-2.12,2,2,0,0,1,2-2.12,2,2,0,0,1,2,2.1Zm-3.59-.31h3.2a1.6,1.6,0,0,0-3.2,0Z"/><path class="cls-2" d="M309.27,150.57a1.29,1.29,0,0,1-.86.3,1,1,0,0,1-1.13-1.14V147h-.77v-.34h.77v-.91h.4v.91H309V147h-1.32v2.69c0,.54.26.83.77.83a1,1,0,0,0,.65-.23Z"/><path class="cls-2" d="M319.3,148.39v2.44h-.4v-2.4c0-1-.49-1.44-1.31-1.44a1.46,1.46,0,0,0-1.52,1.62v2.22h-.4v-2.4c0-1-.49-1.44-1.31-1.44a1.46,1.46,0,0,0-1.52,1.62v2.22h-.4v-4.17h.38v.9a1.65,1.65,0,0,1,1.6-.93,1.48,1.48,0,0,1,1.53,1,1.75,1.75,0,0,1,1.68-1A1.57,1.57,0,0,1,319.3,148.39Z"/><path class="cls-2" d="M324.48,148.84h-3.59a1.78,1.78,0,0,0,3.1,1.08l.24.27a2.16,2.16,0,0,1-3.73-1.44,2,2,0,0,1,2-2.12,2,2,0,0,1,2,2.1S324.48,148.8,324.48,148.84Zm-3.58-.31h3.2a1.6,1.6,0,0,0-3.2,0Z"/><path class="cls-2" d="M327.8,150.57a1.24,1.24,0,0,1-.85.3,1,1,0,0,1-1.14-1.14V147H325v-.34h.77v-.91h.4v.91h1.33V147h-1.33v2.69c0,.54.27.83.78.83a1,1,0,0,0,.64-.23Z"/><path class="cls-2" d="M330.87,150.57a1.24,1.24,0,0,1-.85.3,1,1,0,0,1-1.14-1.14V147h-.76v-.34h.76v-.91h.4v.91h1.33V147h-1.33v2.69c0,.54.27.83.78.83a1,1,0,0,0,.65-.23Z"/><path class="cls-2" d="M334,146.63V147h-.09a1.44,1.44,0,0,0-1.48,1.65v2.17H332v-4.17h.38v.91A1.58,1.58,0,0,1,334,146.63Z"/><path class="cls-2" d="M338.55,148.84H335a1.79,1.79,0,0,0,3.11,1.08l.23.27a2.16,2.16,0,0,1-3.73-1.44,2,2,0,0,1,2-2.12,2,2,0,0,1,2,2.1S338.55,148.8,338.55,148.84Zm-3.58-.31h3.2a1.6,1.6,0,0,0-3.2,0Z"/><path class="cls-2" d="M345.39,148.84h-3.6a1.79,1.79,0,0,0,3.11,1.08l.23.27a2,2,0,0,1-1.58.68,2.05,2.05,0,0,1-2.15-2.12,2,2,0,0,1,2-2.12,2,2,0,0,1,2,2.1Zm-3.59-.31H345a1.6,1.6,0,0,0-3.2,0Z"/><path class="cls-2" d="M350.37,148.39v2.44H350v-2.4a1.26,1.26,0,0,0-1.35-1.44,1.49,1.49,0,0,0-1.59,1.62v2.22h-.39v-4.17H347v.9a1.72,1.72,0,0,1,1.65-.93A1.58,1.58,0,0,1,350.37,148.39Z"/><path class="cls-2" d="M358.23,148.75a2,2,0,0,1-2.06,2.12,1.87,1.87,0,0,1-1.7-1v2.5h-.4v-5.72h.39v1a1.86,1.86,0,0,1,1.71-1A2,2,0,0,1,358.23,148.75Zm-.4,0a1.68,1.68,0,1,0-1.68,1.76A1.66,1.66,0,0,0,357.83,148.75Z"/><path class="cls-2" d="M361.45,146.63V147h-.1a1.45,1.45,0,0,0-1.48,1.65v2.17h-.39v-4.17h.38v.91A1.58,1.58,0,0,1,361.45,146.63Z"/><path class="cls-2" d="M365.57,148.19v2.64h-.38v-.74a1.62,1.62,0,0,1-1.51.78c-.93,0-1.5-.48-1.5-1.2s.4-1.16,1.56-1.16h1.43v-.34a1.09,1.09,0,0,0-1.24-1.19,2.2,2.2,0,0,0-1.44.53l-.2-.29a2.55,2.55,0,0,1,1.67-.59A1.42,1.42,0,0,1,365.57,148.19Zm-.4,1.41v-.78h-1.42c-.87,0-1.17.36-1.17.84s.42.88,1.16.88A1.44,1.44,0,0,0,365.17,149.6Z"/><path class="cls-2" d="M369.29,150.57a1.26,1.26,0,0,1-.85.3,1,1,0,0,1-1.14-1.14V147h-.77v-.34h.77v-.91h.4v.91H369V147H367.7v2.69c0,.54.26.83.78.83a1,1,0,0,0,.64-.23Z"/><path class="cls-2" d="M370.28,145.32a.32.32,0,0,1,.32-.32.32.32,0,1,1-.32.32Zm.12,1.34h.4v4.17h-.4Z"/><path class="cls-2" d="M376.2,146.66v5.72h-.4v-2.51a1.87,1.87,0,0,1-1.7,1,2.12,2.12,0,0,1,0-4.24,1.86,1.86,0,0,1,1.71,1v-1Zm-.4,2.09a1.68,1.68,0,1,0-1.68,1.76A1.66,1.66,0,0,0,375.8,148.75Z"/><path class="cls-2" d="M381.55,146.66v4.17h-.39v-.89a1.65,1.65,0,0,1-1.57.93,1.6,1.6,0,0,1-1.75-1.77v-2.44h.4v2.41a1.28,1.28,0,0,0,1.38,1.44,1.48,1.48,0,0,0,1.53-1.63v-2.22Z"/><path class="cls-2" d="M386.77,148.84h-3.59a1.78,1.78,0,0,0,3.1,1.08l.23.27a2,2,0,0,1-1.57.68,2.05,2.05,0,0,1-2.15-2.12,2,2,0,1,1,4,0S386.77,148.8,386.77,148.84Zm-3.58-.31h3.2a1.6,1.6,0,0,0-3.2,0Z"/><path class="cls-2" d="M67,161.39v2.44h-.4v-2.4c0-1-.49-1.44-1.3-1.44a1.46,1.46,0,0,0-1.53,1.62v2.22h-.4v-2.4c0-1-.49-1.44-1.3-1.44a1.46,1.46,0,0,0-1.53,1.62v2.22h-.4v-4.17h.38v.9a1.66,1.66,0,0,1,1.6-.93,1.47,1.47,0,0,1,1.53,1,1.76,1.76,0,0,1,1.69-1A1.56,1.56,0,0,1,67,161.39Z"/><path class="cls-2" d="M72.17,161.84H68.58a1.68,1.68,0,0,0,1.76,1.67,1.7,1.7,0,0,0,1.34-.59l.23.27a2,2,0,0,1-1.57.68,2,2,0,0,1-2.15-2.12,2,2,0,1,1,4,0S72.17,161.8,72.17,161.84Zm-3.58-.31h3.19a1.6,1.6,0,0,0-3.19,0Z"/><path class="cls-2" d="M72.8,163.33,73,163a2.47,2.47,0,0,0,1.51.5c.88,0,1.23-.31,1.23-.78,0-1.22-2.77-.32-2.77-2,0-.63.53-1.14,1.59-1.14A2.57,2.57,0,0,1,76,160l-.19.32a2.1,2.1,0,0,0-1.25-.38c-.82,0-1.18.34-1.18.78,0,1.26,2.77.37,2.77,2,0,.68-.58,1.15-1.65,1.15A2.64,2.64,0,0,1,72.8,163.33Z"/><path class="cls-2" d="M78.84,161.75A2,2,0,0,1,81,159.63a1.81,1.81,0,0,1,1.58.77l-.29.21A1.53,1.53,0,0,0,81,160a1.76,1.76,0,0,0,0,3.52,1.51,1.51,0,0,0,1.29-.63l.29.22a1.86,1.86,0,0,1-1.58.77A2,2,0,0,1,78.84,161.75Z"/><path class="cls-2" d="M83.21,161.75a2.09,2.09,0,1,1,2.09,2.12A2,2,0,0,1,83.21,161.75Zm3.76,0a1.68,1.68,0,1,0-1.67,1.76A1.65,1.65,0,0,0,87,161.75Z"/><path class="cls-2" d="M92.36,161.39v2.44H92v-2.4A1.26,1.26,0,0,0,90.61,160,1.49,1.49,0,0,0,89,161.61v2.22h-.4v-4.17H89v.9a1.72,1.72,0,0,1,1.65-.93A1.58,1.58,0,0,1,92.36,161.39Z"/><path class="cls-2" d="M97.74,161.39v2.44h-.4v-2.4A1.26,1.26,0,0,0,96,160a1.49,1.49,0,0,0-1.58,1.62v2.22H94v-4.17h.38v.9a1.73,1.73,0,0,1,1.66-.93A1.58,1.58,0,0,1,97.74,161.39Z"/><path class="cls-2" d="M102.41,161.19v2.64H102v-.74a1.59,1.59,0,0,1-1.5.78c-.94,0-1.5-.48-1.5-1.2s.4-1.16,1.56-1.16H102v-.34a1.09,1.09,0,0,0-1.24-1.19,2.16,2.16,0,0,0-1.44.53l-.2-.29a2.51,2.51,0,0,1,1.67-.59A1.42,1.42,0,0,1,102.41,161.19Zm-.4,1.41v-.78h-1.43c-.86,0-1.16.36-1.16.84s.42.88,1.16.88A1.44,1.44,0,0,0,102,162.6Z"/><path class="cls-2" d="M103.93,158.32a.32.32,0,0,1,.33-.32.32.32,0,1,1-.33.32Zm.13,1.34h.4v4.17h-.4Z"/><path class="cls-2" d="M105.53,163.33l.18-.32a2.45,2.45,0,0,0,1.51.5c.87,0,1.23-.31,1.23-.78,0-1.22-2.77-.32-2.77-2,0-.63.53-1.14,1.58-1.14a2.52,2.52,0,0,1,1.43.41l-.18.32a2.12,2.12,0,0,0-1.25-.38c-.82,0-1.18.34-1.18.78,0,1.26,2.77.37,2.77,2,0,.68-.59,1.15-1.65,1.15A2.64,2.64,0,0,1,105.53,163.33Z"/><path class="cls-2" d="M109.35,163.33l.19-.32a2.42,2.42,0,0,0,1.5.5c.88,0,1.23-.31,1.23-.78,0-1.22-2.77-.32-2.77-2,0-.63.53-1.14,1.59-1.14a2.57,2.57,0,0,1,1.43.41l-.19.32a2.1,2.1,0,0,0-1.25-.38c-.82,0-1.18.34-1.18.78,0,1.26,2.77.37,2.77,2,0,.68-.58,1.15-1.65,1.15A2.66,2.66,0,0,1,109.35,163.33Z"/><path class="cls-2" d="M116.81,161.19v2.64h-.39v-.74a1.59,1.59,0,0,1-1.5.78c-.94,0-1.5-.48-1.5-1.2s.4-1.16,1.56-1.16h1.43v-.34a1.09,1.09,0,0,0-1.24-1.19,2.16,2.16,0,0,0-1.44.53l-.2-.29a2.51,2.51,0,0,1,1.67-.59A1.42,1.42,0,0,1,116.81,161.19Zm-.4,1.41v-.78H115c-.86,0-1.16.36-1.16.84s.42.88,1.16.88A1.44,1.44,0,0,0,116.41,162.6Z"/><path class="cls-2" d="M122.19,161.39v2.44h-.4v-2.4a1.26,1.26,0,0,0-1.35-1.44,1.49,1.49,0,0,0-1.58,1.62v2.22h-.4v-4.17h.38v.9a1.72,1.72,0,0,1,1.65-.93A1.58,1.58,0,0,1,122.19,161.39Z"/><path class="cls-2" d="M123.39,161.75a2,2,0,0,1,2.11-2.12,1.83,1.83,0,0,1,1.59.77l-.3.21a1.53,1.53,0,0,0-1.29-.62,1.76,1.76,0,0,0,0,3.52,1.51,1.51,0,0,0,1.29-.63l.3.22a1.87,1.87,0,0,1-1.59.77A2,2,0,0,1,123.39,161.75Z"/><path class="cls-2" d="M131.74,161.84h-3.59a1.78,1.78,0,0,0,3.1,1.08l.24.27a2.16,2.16,0,0,1-3.73-1.44,2,2,0,0,1,2-2.12,2,2,0,0,1,2,2.1S131.74,161.8,131.74,161.84Zm-3.58-.31h3.2a1.6,1.6,0,0,0-3.2,0Z"/><path class="cls-2" d="M132.38,163.33l.18-.32a2.44,2.44,0,0,0,1.5.5c.88,0,1.23-.31,1.23-.78,0-1.22-2.76-.32-2.76-2,0-.63.53-1.14,1.58-1.14a2.54,2.54,0,0,1,1.43.41l-.18.32a2.13,2.13,0,0,0-1.26-.38c-.81,0-1.17.34-1.17.78,0,1.26,2.76.37,2.76,2,0,.68-.58,1.15-1.64,1.15A2.62,2.62,0,0,1,132.38,163.33Z"/><path class="cls-2" d="M136.43,163.52a.34.34,0,0,1,.67,0,.34.34,0,1,1-.67,0Z"/><path class="cls-2" d="M144.06,162.26h-3.24l-.72,1.57h-.44l2.58-5.59h.41l2.57,5.59h-.44Zm-.15-.35-1.47-3.23L141,161.91Z"/><path class="cls-2" d="M149.69,159.66v4.17h-.39v-.89a1.65,1.65,0,0,1-1.57.93A1.6,1.6,0,0,1,146,162.1v-2.44h.4v2.41a1.28,1.28,0,0,0,1.38,1.44,1.48,1.48,0,0,0,1.53-1.63v-2.22Z"/><path class="cls-2" d="M149.83,165.14l.16-.3a1,1,0,0,0,.68.23c.49,0,.75-.29.75-.84v-4.57h.4v4.59a1.06,1.06,0,0,1-1.12,1.17A1.28,1.28,0,0,1,149.83,165.14Zm1.47-6.82a.32.32,0,0,1,.32-.32.32.32,0,1,1-.32.32Z"/><path class="cls-2" d="M153.06,161.75a2.09,2.09,0,1,1,2.08,2.12A2,2,0,0,1,153.06,161.75Zm3.76,0a1.68,1.68,0,1,0-1.68,1.76A1.66,1.66,0,0,0,156.82,161.75Z"/><path class="cls-2" d="M162.13,159.66v4.17h-.39v-.89a1.65,1.65,0,0,1-1.57.93,1.6,1.6,0,0,1-1.75-1.77v-2.44h.4v2.41a1.28,1.28,0,0,0,1.38,1.44,1.48,1.48,0,0,0,1.53-1.63v-2.22Z"/><path class="cls-2" d="M165.8,159.63V160h-.1a1.44,1.44,0,0,0-1.48,1.65v2.17h-.4v-4.17h.39v.91A1.58,1.58,0,0,1,165.8,159.63Z"/><path class="cls-2" d="M170.57,157.9v5.93h-.39v-1a1.85,1.85,0,0,1-1.71,1,2.12,2.12,0,0,1,0-4.24,1.87,1.87,0,0,1,1.7,1V157.9Zm-.4,3.85a1.68,1.68,0,1,0-1.68,1.76A1.66,1.66,0,0,0,170.17,161.75Z"/><path class="cls-2" d="M172.55,158.2a1.18,1.18,0,0,1-.07.37l-.31,1.09h-.29l.26-1.13a.33.33,0,1,1,.41-.33Z"/><path class="cls-2" d="M177.6,161.39v2.44h-.4v-2.4a1.26,1.26,0,0,0-1.35-1.44,1.49,1.49,0,0,0-1.59,1.62v2.22h-.4V157.9h.4v2.63a1.73,1.73,0,0,1,1.64-.9A1.58,1.58,0,0,1,177.6,161.39Z"/><path class="cls-2" d="M182.9,159.66v4.17h-.38v-.89a1.65,1.65,0,0,1-1.58.93,1.6,1.6,0,0,1-1.74-1.77v-2.44h.4v2.41a1.27,1.27,0,0,0,1.38,1.44,1.47,1.47,0,0,0,1.52-1.63v-2.22Z"/><path class="cls-2" d="M184.47,158.32a.33.33,0,0,1,.33-.32.32.32,0,1,1-.33.32Zm.13,1.34h.4v4.17h-.4Z"/><path class="cls-2" d="M187,163.52a1.24,1.24,0,0,1-.08.37l-.31,1.09h-.29l.27-1.13a.33.33,0,0,1-.27-.33.33.33,0,0,1,.34-.33A.34.34,0,0,1,187,163.52Z"/><path class="cls-2" d="M188.79,165.14l.16-.3a1,1,0,0,0,.68.23c.49,0,.75-.29.75-.84v-4.57h.4v4.59a1.06,1.06,0,0,1-1.12,1.17A1.28,1.28,0,0,1,188.79,165.14Zm1.47-6.82a.32.32,0,0,1,.32-.32.32.32,0,1,1-.32.32Z"/><path class="cls-2" d="M196,161.84h-3.59a1.78,1.78,0,0,0,3.1,1.08l.23.27a2,2,0,0,1-1.57.68,2,2,0,0,1-2.15-2.12,2,2,0,1,1,4,0S196,161.8,196,161.84Zm-3.58-.31h3.19a1.6,1.6,0,0,0-3.19,0Z"/><path class="cls-2" d="M198.69,163.33l.18-.32a2.45,2.45,0,0,0,1.51.5c.87,0,1.23-.31,1.23-.78,0-1.22-2.77-.32-2.77-2,0-.63.53-1.14,1.58-1.14a2.52,2.52,0,0,1,1.43.41l-.18.32a2.12,2.12,0,0,0-1.25-.38c-.82,0-1.18.34-1.18.78,0,1.26,2.77.37,2.77,2,0,.68-.59,1.15-1.65,1.15A2.64,2.64,0,0,1,198.69,163.33Z"/><path class="cls-2" d="M202.67,161.75a2.09,2.09,0,1,1,2.09,2.12A2,2,0,0,1,202.67,161.75Zm3.77,0a1.68,1.68,0,1,0-1.68,1.76A1.66,1.66,0,0,0,206.44,161.75Z"/><path class="cls-2" d="M211.74,159.66v4.17h-.38v-.89a1.65,1.65,0,0,1-1.58.93A1.6,1.6,0,0,1,208,162.1v-2.44h.4v2.41a1.27,1.27,0,0,0,1.38,1.44,1.47,1.47,0,0,0,1.52-1.63v-2.22Z"/><path class="cls-2" d="M217.17,161.39v2.44h-.4v-2.4a1.26,1.26,0,0,0-1.35-1.44,1.49,1.49,0,0,0-1.58,1.62v2.22h-.4V157.9h.4v2.63a1.72,1.72,0,0,1,1.64-.9A1.58,1.58,0,0,1,217.17,161.39Z"/><path class="cls-2" d="M221.84,161.19v2.64h-.39v-.74a1.59,1.59,0,0,1-1.5.78c-.93,0-1.5-.48-1.5-1.2s.4-1.16,1.56-1.16h1.43v-.34A1.09,1.09,0,0,0,220.2,160a2.16,2.16,0,0,0-1.44.53l-.2-.29a2.53,2.53,0,0,1,1.67-.59A1.42,1.42,0,0,1,221.84,161.19Zm-.4,1.41v-.78H220c-.87,0-1.17.36-1.17.84s.42.88,1.16.88A1.44,1.44,0,0,0,221.44,162.6Z"/><path class="cls-2" d="M223.36,158.32a.33.33,0,1,1,.33.32A.32.32,0,0,1,223.36,158.32Zm.13,1.34h.4v4.17h-.4Z"/><path class="cls-2" d="M227.65,163.57a1.29,1.29,0,0,1-.86.3,1,1,0,0,1-1.13-1.14V160h-.77v-.34h.77v-.91h.4v.91h1.32V160h-1.32v2.69c0,.54.26.83.77.83a1,1,0,0,0,.65-.23Z"/><path class="cls-2" d="M232.13,161.84h-3.59a1.79,1.79,0,0,0,3.11,1.08l.23.27a2,2,0,0,1-1.58.68,2.05,2.05,0,0,1-2.15-2.12,2,2,0,0,1,2-2.12,2,2,0,0,1,2,2.1S232.13,161.8,232.13,161.84Zm-3.58-.31h3.2a1.6,1.6,0,0,0-3.2,0Z"/><path class="cls-2" d="M237.41,159.63V160h-.09a1.44,1.44,0,0,0-1.48,1.65v2.17h-.4v-4.17h.38v.91A1.58,1.58,0,0,1,237.41,159.63Z"/><path class="cls-2" d="M242,161.84h-3.59a1.68,1.68,0,0,0,1.76,1.67,1.7,1.7,0,0,0,1.34-.59l.23.27a2,2,0,0,1-1.57.68,2.05,2.05,0,0,1-2.16-2.12,2,2,0,0,1,2-2.12,2,2,0,0,1,2,2.1Zm-3.59-.31h3.2a1.6,1.6,0,0,0-3.2,0Z"/><path class="cls-2" d="M241.7,165.14l.16-.3a1,1,0,0,0,.68.23c.49,0,.76-.29.76-.84v-4.57h.39v4.59a1.05,1.05,0,0,1-1.12,1.17A1.28,1.28,0,0,1,241.7,165.14Zm1.47-6.82a.32.32,0,0,1,.33-.32.32.32,0,1,1-.33.32Z"/><path class="cls-2" d="M244.93,161.75a2.09,2.09,0,1,1,2.08,2.12A2,2,0,0,1,244.93,161.75Zm3.76,0a1.68,1.68,0,1,0-1.68,1.76A1.66,1.66,0,0,0,248.69,161.75Z"/><path class="cls-2" d="M250.22,158.32a.32.32,0,0,1,.32-.32.32.32,0,1,1-.32.32Zm.12,1.34h.4v4.17h-.4Z"/><path class="cls-2" d="M256.17,161.39v2.44h-.4v-2.4a1.27,1.27,0,0,0-1.36-1.44,1.49,1.49,0,0,0-1.58,1.62v2.22h-.4v-4.17h.39v.9a1.72,1.72,0,0,1,1.65-.93A1.58,1.58,0,0,1,256.17,161.39Z"/><path class="cls-2" d="M261.53,157.9v5.93h-.39v-1a1.85,1.85,0,0,1-1.71,1,2.12,2.12,0,0,1,0-4.24,1.87,1.87,0,0,1,1.7,1V157.9Zm-.4,3.85a1.68,1.68,0,1,0-1.68,1.76A1.66,1.66,0,0,0,261.13,161.75Z"/><path class="cls-2" d="M265.2,159.63V160h-.1a1.44,1.44,0,0,0-1.48,1.65v2.17h-.4v-4.17h.39v.91A1.57,1.57,0,0,1,265.2,159.63Z"/><path class="cls-2" d="M269.79,161.84H266.2a1.78,1.78,0,0,0,3.1,1.08l.23.27a2,2,0,0,1-1.57.68,2,2,0,0,1-2.15-2.12,2,2,0,1,1,4,0S269.79,161.8,269.79,161.84Zm-3.58-.31h3.2a1.6,1.6,0,0,0-3.2,0Z"/><path class="cls-2" d="M276.75,159.66v4.17h-.38v-.89a1.66,1.66,0,0,1-1.58.93,1.6,1.6,0,0,1-1.74-1.77v-2.44h.4v2.41a1.27,1.27,0,0,0,1.37,1.44,1.47,1.47,0,0,0,1.53-1.63v-2.22Z"/><path class="cls-2" d="M282.18,161.39v2.44h-.4v-2.4a1.26,1.26,0,0,0-1.35-1.44,1.49,1.49,0,0,0-1.58,1.62v2.22h-.4v-4.17h.38v.9a1.72,1.72,0,0,1,1.66-.93A1.58,1.58,0,0,1,282.18,161.39Z"/><path class="cls-2" d="M285.27,163.33l.19-.32a2.4,2.4,0,0,0,1.5.5c.88,0,1.23-.31,1.23-.78,0-1.22-2.77-.32-2.77-2,0-.63.53-1.14,1.59-1.14a2.57,2.57,0,0,1,1.43.41l-.19.32A2.1,2.1,0,0,0,287,160c-.82,0-1.18.34-1.18.78,0,1.26,2.77.37,2.77,2,0,.68-.58,1.15-1.65,1.15A2.66,2.66,0,0,1,285.27,163.33Z"/><path class="cls-2" d="M291.78,163.57a1.26,1.26,0,0,1-.85.3,1,1,0,0,1-1.14-1.14V160H289v-.34h.77v-.91h.4v.91h1.33V160h-1.33v2.69c0,.54.27.83.78.83a1,1,0,0,0,.64-.23Z"/><path class="cls-2" d="M296.55,159.66v4.17h-.38v-.89a1.66,1.66,0,0,1-1.58.93,1.6,1.6,0,0,1-1.74-1.77v-2.44h.4v2.41a1.27,1.27,0,0,0,1.37,1.44,1.47,1.47,0,0,0,1.53-1.63v-2.22Z"/><path class="cls-2" d="M302,157.9v5.93h-.39v-1a1.85,1.85,0,0,1-1.71,1,2.12,2.12,0,0,1,0-4.24,1.88,1.88,0,0,1,1.7,1V157.9Zm-.4,3.85a1.68,1.68,0,1,0-1.68,1.76A1.66,1.66,0,0,0,301.56,161.75Z"/><path class="cls-2" d="M303.52,158.32a.32.32,0,0,1,.33-.32.32.32,0,1,1-.33.32Zm.13,1.34h.4v4.17h-.4Z"/><path class="cls-2" d="M305.28,161.75a2.09,2.09,0,1,1,2.09,2.12A2,2,0,0,1,305.28,161.75Zm3.77,0a1.68,1.68,0,1,0-1.68,1.76A1.66,1.66,0,0,0,309.05,161.75Z"/><path class="cls-2" d="M312.3,161.75a2.09,2.09,0,1,1,2.08,2.12A2,2,0,0,1,312.3,161.75Zm3.76,0a1.68,1.68,0,1,0-1.68,1.76A1.66,1.66,0,0,0,316.06,161.75Z"/><path class="cls-2" d="M321.37,159.66v4.17H321v-.89a1.65,1.65,0,0,1-1.57.93,1.6,1.6,0,0,1-1.75-1.77v-2.44h.4v2.41a1.28,1.28,0,0,0,1.38,1.44,1.48,1.48,0,0,0,1.53-1.63v-2.22Z"/><path class="cls-2" d="M328.77,159.66v4.17h-.38v-.89a1.65,1.65,0,0,1-1.58.93,1.6,1.6,0,0,1-1.74-1.77v-2.44h.4v2.41a1.27,1.27,0,0,0,1.38,1.44,1.47,1.47,0,0,0,1.52-1.63v-2.22Z"/><path class="cls-2" d="M334.2,161.39v2.44h-.4v-2.4a1.26,1.26,0,0,0-1.35-1.44,1.49,1.49,0,0,0-1.58,1.62v2.22h-.4v-4.17h.38v.9a1.73,1.73,0,0,1,1.66-.93A1.58,1.58,0,0,1,334.2,161.39Z"/><path class="cls-2" d="M339.39,161.84H335.8a1.78,1.78,0,0,0,3.1,1.08l.23.27a2,2,0,0,1-1.57.68,2,2,0,0,1-2.15-2.12,2,2,0,1,1,4,0S339.39,161.8,339.39,161.84Zm-3.58-.31H339a1.6,1.6,0,0,0-3.19,0Z"/><path class="cls-2" d="M346.22,161.84h-3.59a1.78,1.78,0,0,0,3.1,1.08l.23.27a2,2,0,0,1-1.57.68,2.05,2.05,0,0,1-2.15-2.12,2,2,0,1,1,4,0S346.22,161.8,346.22,161.84Zm-3.58-.31h3.2a1.6,1.6,0,0,0-3.2,0Z"/><path class="cls-2" d="M351.2,161.39v2.44h-.4v-2.4a1.26,1.26,0,0,0-1.35-1.44,1.49,1.49,0,0,0-1.58,1.62v2.22h-.4v-4.17h.38v.9a1.73,1.73,0,0,1,1.66-.93A1.58,1.58,0,0,1,351.2,161.39Z"/><path class="cls-2" d="M354.92,163.57a1.24,1.24,0,0,1-.85.3,1,1,0,0,1-1.14-1.14V160h-.76v-.34h.76v-.91h.4v.91h1.33V160h-1.33v2.69c0,.54.27.83.78.83a1,1,0,0,0,.65-.23Z"/><path class="cls-2" d="M358,159.63V160h-.09a1.44,1.44,0,0,0-1.48,1.65v2.17H356v-4.17h.38v.91A1.58,1.58,0,0,1,358,159.63Z"/><path class="cls-2" d="M362.6,161.84H359a1.79,1.79,0,0,0,3.11,1.08l.23.27a2.16,2.16,0,0,1-3.73-1.44,2,2,0,0,1,2-2.12,2,2,0,0,1,2,2.1S362.6,161.8,362.6,161.84Zm-3.58-.31h3.2a1.6,1.6,0,0,0-3.2,0Z"/><path class="cls-2" d="M368,161.75a2,2,0,0,1-2.06,2.12,1.87,1.87,0,0,1-1.7-1v2.5h-.4v-5.72h.39v1a1.86,1.86,0,0,1,1.71-1A2,2,0,0,1,368,161.75Zm-.4,0a1.68,1.68,0,1,0-1.69,1.76A1.66,1.66,0,0,0,367.61,161.75Z"/><path class="cls-2" d="M371.23,159.63V160h-.1a1.45,1.45,0,0,0-1.48,1.65v2.17h-.4v-4.17h.39v.91A1.58,1.58,0,0,1,371.23,159.63Z"/><path class="cls-2" d="M372.21,158.32a.32.32,0,0,1,.33-.32.32.32,0,1,1-.33.32Zm.13,1.34h.39v4.17h-.39Z"/><path class="cls-2" d="M373.81,163.33,374,163a2.44,2.44,0,0,0,1.5.5c.88,0,1.24-.31,1.24-.78,0-1.22-2.77-.32-2.77-2,0-.63.53-1.14,1.58-1.14A2.52,2.52,0,0,1,377,160l-.18.32a2.13,2.13,0,0,0-1.26-.38c-.81,0-1.17.34-1.17.78,0,1.26,2.77.37,2.77,2,0,.68-.59,1.15-1.65,1.15A2.64,2.64,0,0,1,373.81,163.33Z"/><path class="cls-2" d="M381.77,161.84h-3.59a1.79,1.79,0,0,0,3.11,1.08l.23.27a2.16,2.16,0,0,1-3.73-1.44,2,2,0,0,1,2-2.12,2,2,0,0,1,2,2.1S381.77,161.8,381.77,161.84Zm-3.58-.31h3.2a1.6,1.6,0,0,0-3.2,0Z"/><path class="cls-2" d="M388.79,157.9v5.93h-.39v-1a1.85,1.85,0,0,1-1.71,1,2.12,2.12,0,0,1,0-4.24,1.88,1.88,0,0,1,1.7,1V157.9Zm-.4,3.85a1.68,1.68,0,1,0-1.68,1.76A1.66,1.66,0,0,0,388.39,161.75Z"/><path class="cls-2" d="M394.13,159.66v4.17h-.38v-.89a1.65,1.65,0,0,1-1.58.93,1.6,1.6,0,0,1-1.74-1.77v-2.44h.4v2.41a1.27,1.27,0,0,0,1.37,1.44,1.47,1.47,0,0,0,1.53-1.63v-2.22Z"/><path class="cls-2" d="M58.57,178.14l.16-.3a1,1,0,0,0,.68.23c.49,0,.75-.29.75-.84v-4.57h.4v4.59a1.06,1.06,0,0,1-1.13,1.17A1.27,1.27,0,0,1,58.57,178.14ZM60,171.32a.33.33,0,0,1,.33-.32.32.32,0,1,1,0,.64A.32.32,0,0,1,60,171.32Z"/><path class="cls-2" d="M65.77,174.84H62.19A1.68,1.68,0,0,0,64,176.51a1.7,1.7,0,0,0,1.34-.59l.23.27a2,2,0,0,1-1.58.68,2.05,2.05,0,0,1-2.15-2.12,2,2,0,0,1,2-2.12,2,2,0,0,1,2,2.1S65.77,174.8,65.77,174.84Zm-3.58-.31h3.2a1.6,1.6,0,0,0-3.2,0Z"/><path class="cls-2" d="M70.68,172.66v4.17H70.3v-.89a1.66,1.66,0,0,1-1.58.93A1.6,1.6,0,0,1,67,175.1v-2.44h.4v2.41a1.27,1.27,0,0,0,1.37,1.44,1.47,1.47,0,0,0,1.53-1.63v-2.22Z"/><path class="cls-2" d="M72,174.51h2.06v.36H72Z"/><path class="cls-2" d="M78.69,172.66l-1.89,4.17h-.41l-1.88-4.17h.43l1.66,3.73,1.68-3.73Z"/><path class="cls-2" d="M79.43,171.32a.33.33,0,0,1,.33-.32.32.32,0,1,1-.33.32Zm.13,1.34H80v4.17h-.4Z"/><path class="cls-2" d="M85.36,170.9v5.93H85v-1a1.85,1.85,0,0,1-1.71,1,2.12,2.12,0,0,1,0-4.24,1.88,1.88,0,0,1,1.7,1V170.9Zm-.4,3.85a1.68,1.68,0,1,0-1.68,1.76A1.66,1.66,0,0,0,85,174.75Z"/><path class="cls-2" d="M90.57,174.84H87a1.79,1.79,0,0,0,3.11,1.08l.23.27a2,2,0,0,1-1.58.68,2.05,2.05,0,0,1-2.15-2.12,2,2,0,0,1,2-2.12,2,2,0,0,1,2,2.1S90.57,174.8,90.57,174.84ZM87,174.53h3.2a1.6,1.6,0,0,0-3.2,0ZM88.57,172h-.43l1.11-.94h.57Z"/><path class="cls-2" d="M91.37,174.75a2.09,2.09,0,1,1,2.09,2.12A2,2,0,0,1,91.37,174.75Zm3.76,0a1.68,1.68,0,1,0-1.67,1.76A1.65,1.65,0,0,0,95.13,174.75Z"/><path class="cls-2" d="M101.85,174.19v2.64h-.38v-.74a1.59,1.59,0,0,1-1.5.78c-.94,0-1.51-.48-1.51-1.2s.4-1.16,1.56-1.16h1.43v-.34a1.08,1.08,0,0,0-1.23-1.19,2.16,2.16,0,0,0-1.44.53l-.2-.29a2.51,2.51,0,0,1,1.67-.59A1.42,1.42,0,0,1,101.85,174.19Zm-.4,1.41v-.78H100c-.86,0-1.17.36-1.17.84s.43.88,1.16.88A1.43,1.43,0,0,0,101.45,175.6Z"/><path class="cls-2" d="M104.74,170.87a1.27,1.27,0,0,1,.83.27l-.16.3a1,1,0,0,0-.65-.23c-.52,0-.78.29-.78.84v.61h1.33V173H104v3.83h-.4V173h-.76v-.34h.76V172A1.06,1.06,0,0,1,104.74,170.87Zm2.55.45a.33.33,0,0,1-.65,0A.32.32,0,0,1,107,171,.32.32,0,0,1,107.29,171.32Zm-.52,1.34h.4v4.17h-.4Z"/><path class="cls-2" d="M112.59,174.39v2.44h-.4v-2.4a1.26,1.26,0,0,0-1.35-1.44,1.49,1.49,0,0,0-1.58,1.62v2.22h-.4v-4.17h.38v.9a1.72,1.72,0,0,1,1.66-.93A1.58,1.58,0,0,1,112.59,174.39Z"/><path class="cls-2" d="M120,170.9v5.93h-.4v-1a1.84,1.84,0,0,1-1.71,1,2.12,2.12,0,0,1,0-4.24,1.88,1.88,0,0,1,1.71,1V170.9Zm-.4,3.85a1.68,1.68,0,1,0-1.68,1.76A1.66,1.66,0,0,0,119.61,174.75Z"/><path class="cls-2" d="M125.22,174.84h-3.59a1.78,1.78,0,0,0,3.1,1.08l.24.27a2.16,2.16,0,0,1-3.73-1.44,2,2,0,0,1,2-2.12,2,2,0,0,1,2,2.1S125.22,174.8,125.22,174.84Zm-3.58-.31h3.2a1.6,1.6,0,0,0-3.2,0Z"/><path class="cls-2" d="M132.24,170.9v5.93h-.39v-1a1.86,1.86,0,0,1-1.72,1,2.12,2.12,0,0,1,0-4.24,1.88,1.88,0,0,1,1.71,1V170.9Zm-.4,3.85a1.68,1.68,0,1,0-1.68,1.76A1.66,1.66,0,0,0,131.84,174.75Z"/><path class="cls-2" d="M137.45,174.84h-3.59a1.79,1.79,0,0,0,3.11,1.08l.23.27a2.16,2.16,0,0,1-3.73-1.44,2,2,0,0,1,2-2.12,2,2,0,0,1,2,2.1S137.45,174.8,137.45,174.84Zm-3.58-.31h3.2a1.6,1.6,0,0,0-3.2,0Zm1.58-2.55H135l1.11-.94h.57Z"/><path class="cls-2" d="M142,172.66l-1.88,4.17h-.41l-1.88-4.17h.42l1.67,3.73,1.68-3.73Z"/><path class="cls-2" d="M146.25,174.84h-3.59a1.79,1.79,0,0,0,3.11,1.08l.23.27a2.16,2.16,0,0,1-3.73-1.44,2,2,0,0,1,2-2.12,2,2,0,0,1,2,2.1S146.25,174.8,146.25,174.84Zm-3.58-.31h3.2a1.6,1.6,0,0,0-3.2,0Z"/><path class="cls-2" d="M147.5,170.9h.4v5.93h-.4Z"/><path class="cls-2" d="M149.14,174.75a2.09,2.09,0,1,1,2.08,2.12A2,2,0,0,1,149.14,174.75Zm3.76,0a1.68,1.68,0,1,0-1.68,1.76A1.66,1.66,0,0,0,152.9,174.75Z"/><path class="cls-2" d="M158.71,174.75a2,2,0,0,1-2.06,2.12,1.87,1.87,0,0,1-1.7-1v2.5h-.4v-5.72h.39v1a1.85,1.85,0,0,1,1.71-1A2,2,0,0,1,158.71,174.75Zm-.4,0a1.69,1.69,0,1,0-1.69,1.76A1.66,1.66,0,0,0,158.31,174.75Z"/><path class="cls-2" d="M164.11,174.75a2,2,0,0,1-2.06,2.12,1.87,1.87,0,0,1-1.7-1v2.5H160v-5.72h.39v1a1.85,1.85,0,0,1,1.71-1A2,2,0,0,1,164.11,174.75Zm-.4,0a1.69,1.69,0,1,0-1.69,1.76A1.66,1.66,0,0,0,163.71,174.75Z"/><path class="cls-2" d="M168.88,174.84h-3.59a1.78,1.78,0,0,0,3.1,1.08l.23.27a2,2,0,0,1-1.57.68,2,2,0,0,1-2.15-2.12,2,2,0,1,1,4,0S168.88,174.8,168.88,174.84Zm-3.58-.31h3.19a1.6,1.6,0,0,0-3.19,0Z"/><path class="cls-2" d="M172.1,172.63V173H172a1.44,1.44,0,0,0-1.48,1.65v2.17h-.4v-4.17h.38v.91A1.58,1.58,0,0,1,172.1,172.63Z"/><path class="cls-2" d="M179,170.9v5.93h-.39v-1a1.85,1.85,0,0,1-1.71,1,2.12,2.12,0,0,1,0-4.24,1.88,1.88,0,0,1,1.71,1V170.9Zm-.39,3.85a1.68,1.68,0,1,0-1.68,1.76A1.66,1.66,0,0,0,178.65,174.75Z"/><path class="cls-2" d="M184.26,174.84h-3.59a1.78,1.78,0,0,0,3.1,1.08l.24.27a2.16,2.16,0,0,1-3.73-1.44,2,2,0,1,1,4,0S184.26,174.8,184.26,174.84Zm-3.58-.31h3.2a1.6,1.6,0,0,0-3.2,0Z"/><path class="cls-2" d="M184.9,176.33l.18-.32a2.44,2.44,0,0,0,1.5.5c.88,0,1.23-.31,1.23-.78,0-1.22-2.76-.32-2.76-2,0-.63.52-1.14,1.58-1.14a2.54,2.54,0,0,1,1.43.41l-.18.32a2.15,2.15,0,0,0-1.26-.38c-.81,0-1.17.34-1.17.78,0,1.26,2.76.37,2.76,2,0,.68-.58,1.15-1.64,1.15A2.62,2.62,0,0,1,184.9,176.33Z"/><path class="cls-2" d="M191.26,171.32a.33.33,0,0,1,.33-.32.32.32,0,1,1-.33.32Zm.13,1.34h.4v4.17h-.4Z"/><path class="cls-2" d="M197.19,170.9v5.93h-.39v-1a1.85,1.85,0,0,1-1.71,1,2.12,2.12,0,0,1,0-4.24,1.88,1.88,0,0,1,1.7,1V170.9Zm-.4,3.85a1.68,1.68,0,1,0-1.68,1.76A1.66,1.66,0,0,0,196.79,174.75Z"/><path class="cls-2" d="M202.4,174.84h-3.58a1.68,1.68,0,0,0,1.76,1.67,1.7,1.7,0,0,0,1.34-.59l.23.27a2,2,0,0,1-1.58.68,2.05,2.05,0,0,1-2.15-2.12,2,2,0,0,1,2-2.12,2,2,0,0,1,2,2.1S202.4,174.8,202.4,174.84Zm-3.58-.31H202a1.6,1.6,0,0,0-3.2,0ZM200.4,172H200l1.11-.94h.57Z"/><path class="cls-2" d="M207.18,174.84h-3.59a1.78,1.78,0,0,0,3.1,1.08l.23.27a2,2,0,0,1-1.57.68,2.05,2.05,0,0,1-2.15-2.12,2,2,0,1,1,4,0S207.18,174.8,207.18,174.84Zm-3.58-.31h3.2a1.6,1.6,0,0,0-3.2,0Z"/><path class="cls-2" d="M207.82,176.33,208,176a2.44,2.44,0,0,0,1.5.5c.88,0,1.23-.31,1.23-.78,0-1.22-2.76-.32-2.76-2,0-.63.52-1.14,1.58-1.14A2.54,2.54,0,0,1,211,173l-.18.32a2.15,2.15,0,0,0-1.26-.38c-.81,0-1.17.34-1.17.78,0,1.26,2.76.37,2.76,2,0,.68-.58,1.15-1.64,1.15A2.62,2.62,0,0,1,207.82,176.33Z"/><path class="cls-2" d="M218,170.9v5.93h-.39v-1a1.85,1.85,0,0,1-1.71,1,2.12,2.12,0,0,1,0-4.24,1.88,1.88,0,0,1,1.7,1V170.9Zm-.4,3.85a1.68,1.68,0,1,0-1.68,1.76A1.66,1.66,0,0,0,217.62,174.75Z"/><path class="cls-2" d="M223.24,174.84h-3.59a1.68,1.68,0,0,0,1.76,1.67,1.7,1.7,0,0,0,1.34-.59l.23.27a2,2,0,0,1-1.58.68,2.05,2.05,0,0,1-2.15-2.12,2,2,0,0,1,2-2.12,2,2,0,0,1,2,2.1Zm-3.59-.31h3.2a1.6,1.6,0,0,0-3.2,0Z"/><path class="cls-2" d="M225,178.14l.16-.3a1,1,0,0,0,.68.23c.49,0,.75-.29.75-.84v-4.57h.4v4.59a1.06,1.06,0,0,1-1.13,1.17A1.27,1.27,0,0,1,225,178.14Zm1.46-6.82a.33.33,0,0,1,.33-.32.32.32,0,1,1-.33.32Z"/><path class="cls-2" d="M232.19,174.84h-3.58a1.68,1.68,0,0,0,1.76,1.67,1.7,1.7,0,0,0,1.34-.59l.23.27a2,2,0,0,1-1.58.68,2.05,2.05,0,0,1-2.15-2.12,2,2,0,0,1,2-2.12,2,2,0,0,1,2,2.1S232.19,174.8,232.19,174.84Zm-3.58-.31h3.2a1.6,1.6,0,0,0-3.2,0Z"/><path class="cls-2" d="M237.1,172.66v4.17h-.38v-.89a1.66,1.66,0,0,1-1.58.93,1.6,1.6,0,0,1-1.74-1.77v-2.44h.4v2.41a1.27,1.27,0,0,0,1.37,1.44,1.47,1.47,0,0,0,1.53-1.63v-2.22Z"/><path class="cls-2" d="M241.45,176.83,240,175l-1.43,1.86h-.46l1.66-2.15-1.57-2h.46l1.34,1.73,1.34-1.73h.45l-1.57,2,1.68,2.15Z"/><path class="cls-2" d="M244.88,171.32a.32.32,0,0,1,.32-.32.32.32,0,1,1-.32.32Zm.12,1.34h.4v4.17H245Z"/><path class="cls-2" d="M250.83,174.39v2.44h-.4v-2.4a1.26,1.26,0,0,0-1.35-1.44,1.49,1.49,0,0,0-1.59,1.62v2.22h-.4v-4.17h.39v.9a1.72,1.72,0,0,1,1.65-.93A1.58,1.58,0,0,1,250.83,174.39Z"/><path class="cls-2" d="M256.21,174.39v2.44h-.4v-2.4a1.26,1.26,0,0,0-1.35-1.44,1.49,1.49,0,0,0-1.58,1.62v2.22h-.4v-4.17h.38v.9a1.72,1.72,0,0,1,1.66-.93A1.58,1.58,0,0,1,256.21,174.39Z"/><path class="cls-2" d="M257.41,174.75a2.09,2.09,0,1,1,2.09,2.12A2,2,0,0,1,257.41,174.75Zm3.77,0a1.68,1.68,0,1,0-1.68,1.76A1.66,1.66,0,0,0,261.18,174.75Z"/><path class="cls-2" d="M266.06,172.66l-1.89,4.17h-.41l-1.88-4.17h.43l1.66,3.73,1.68-3.73Z"/><path class="cls-2" d="M269.82,174.19v2.64h-.38v-.74a1.62,1.62,0,0,1-1.51.78c-.93,0-1.5-.48-1.5-1.2s.4-1.16,1.56-1.16h1.43v-.34a1.09,1.09,0,0,0-1.24-1.19,2.16,2.16,0,0,0-1.44.53l-.2-.29a2.53,2.53,0,0,1,1.67-.59A1.42,1.42,0,0,1,269.82,174.19Zm-.4,1.41v-.78H268c-.87,0-1.17.36-1.17.84s.42.88,1.16.88A1.44,1.44,0,0,0,269.42,175.6Z"/><path class="cls-2" d="M275.2,174.39v2.44h-.4v-2.4a1.26,1.26,0,0,0-1.35-1.44,1.49,1.49,0,0,0-1.58,1.62v2.22h-.4v-4.17h.38v.9a1.73,1.73,0,0,1,1.66-.93A1.58,1.58,0,0,1,275.2,174.39Z"/><path class="cls-2" d="M278.92,176.57a1.24,1.24,0,0,1-.85.3,1,1,0,0,1-1.14-1.14V173h-.77v-.34h.77v-.91h.4v.91h1.33V173h-1.33v2.69c0,.54.27.83.78.83a1,1,0,0,0,.65-.23Z"/><path class="cls-2" d="M283.41,174.84h-3.59a1.78,1.78,0,0,0,3.1,1.08l.23.27a2,2,0,0,1-1.57.68,2.05,2.05,0,0,1-2.15-2.12,2,2,0,1,1,4,0S283.41,174.8,283.41,174.84Zm-3.58-.31H283a1.6,1.6,0,0,0-3.2,0Z"/><path class="cls-2" d="M284,176.33l.19-.32a2.44,2.44,0,0,0,1.5.5c.88,0,1.23-.31,1.23-.78,0-1.22-2.76-.32-2.76-2,0-.63.52-1.14,1.58-1.14a2.54,2.54,0,0,1,1.43.41l-.18.32a2.13,2.13,0,0,0-1.26-.38c-.81,0-1.17.34-1.17.78,0,1.26,2.76.37,2.76,2,0,.68-.58,1.15-1.64,1.15A2.67,2.67,0,0,1,284,176.33Z"/><path class="cls-2" d="M294.07,174.84h-3.59a1.68,1.68,0,0,0,1.76,1.67,1.7,1.7,0,0,0,1.34-.59l.23.27a2,2,0,0,1-1.58.68,2.05,2.05,0,0,1-2.15-2.12,2,2,0,0,1,2-2.12,2,2,0,0,1,2,2.1Zm-3.59-.31h3.2a1.6,1.6,0,0,0-3.2,0Z"/><path class="cls-2" d="M297.39,176.57a1.29,1.29,0,0,1-.86.3,1,1,0,0,1-1.13-1.14V173h-.77v-.34h.77v-.91h.4v.91h1.32V173H295.8v2.69c0,.54.26.83.77.83a1,1,0,0,0,.65-.23Z"/><path class="cls-2" d="M300.1,174.75a2.09,2.09,0,1,1,2.09,2.12A2,2,0,0,1,300.1,174.75Zm3.77,0a1.68,1.68,0,1,0-1.68,1.76A1.66,1.66,0,0,0,303.87,174.75Z"/><path class="cls-2" d="M307.49,172.63V173h-.1a1.45,1.45,0,0,0-1.48,1.65v2.17h-.39v-4.17h.38v.91A1.58,1.58,0,0,1,307.49,172.63Z"/><path class="cls-2" d="M308.47,171.32a.32.32,0,0,1,.33-.32.32.32,0,1,1-.33.32Zm.13,1.34H309v4.17h-.39Z"/><path class="cls-2" d="M314.44,172.66v3.73a1.77,1.77,0,0,1-2,2,2.72,2.72,0,0,1-1.91-.67l.21-.3a2.51,2.51,0,0,0,1.69.61,1.42,1.42,0,0,0,1.63-1.63v-.7a1.91,1.91,0,0,1-1.73,1,2,2,0,1,1,0-4.05,1.93,1.93,0,0,1,1.75,1v-.94Zm-.39,2a1.71,1.71,0,1,0-1.71,1.67A1.62,1.62,0,0,0,314.05,174.65Z"/><path class="cls-2" d="M316,171.32a.33.33,0,1,1,.33.32A.32.32,0,0,1,316,171.32Zm.13,1.34h.4v4.17h-.4Z"/><path class="cls-2" d="M322,174.39v2.44h-.4v-2.4a1.26,1.26,0,0,0-1.35-1.44,1.49,1.49,0,0,0-1.58,1.62v2.22h-.4v-4.17h.38v.9a1.72,1.72,0,0,1,1.66-.93A1.58,1.58,0,0,1,322,174.39Z"/><path class="cls-2" d="M326.63,174.19v2.64h-.39v-.74a1.59,1.59,0,0,1-1.5.78c-.94,0-1.51-.48-1.51-1.2s.4-1.16,1.56-1.16h1.44v-.34A1.09,1.09,0,0,0,325,173a2.16,2.16,0,0,0-1.44.53l-.2-.29a2.51,2.51,0,0,1,1.67-.59A1.42,1.42,0,0,1,326.63,174.19Zm-.4,1.41v-.78H324.8c-.86,0-1.17.36-1.17.84s.43.88,1.16.88A1.44,1.44,0,0,0,326.23,175.6Z"/><path class="cls-2" d="M328.27,170.9h.4v5.93h-.4Z"/><path class="cls-2" d="M333.89,174.84H330.3a1.78,1.78,0,0,0,3.1,1.08l.23.27a2,2,0,0,1-1.57.68,2,2,0,0,1-2.15-2.12,2,2,0,1,1,4,0S333.89,174.8,333.89,174.84Zm-3.58-.31h3.2a1.6,1.6,0,0,0-3.2,0Z"/><path class="cls-2" d="M334.52,176.33l.19-.32a2.42,2.42,0,0,0,1.5.5c.88,0,1.23-.31,1.23-.78,0-1.22-2.77-.32-2.77-2,0-.63.53-1.14,1.59-1.14a2.57,2.57,0,0,1,1.43.41l-.19.32a2.1,2.1,0,0,0-1.25-.38c-.82,0-1.18.34-1.18.78,0,1.26,2.77.37,2.77,2,0,.68-.58,1.15-1.65,1.15A2.66,2.66,0,0,1,334.52,176.33Z"/><path class="cls-2" d="M338.58,176.52a.34.34,0,0,1,.67,0,.34.34,0,1,1-.67,0Z"/><rect class="cls-3" x="39.75" y="89.88" width="1.67" height="55"/><rect class="cls-3" x="7.01" y="86.98" width="32.73" height="59.66"/><rect class="cls-4" x="12.55" y="66.73" width="21.65" height="14.35"/><rect class="cls-5" x="14.2" y="66.73" width="18.35" height="16.22"/><rect class="cls-6" x="17.19" y="73.83" width="2.53" height="2.02"/><rect class="cls-6" x="26.71" y="73.83" width="2.53" height="2.02"/><rect class="cls-7" x="12.55" y="72.3" width="1.65" height="4.75" transform="translate(26.76 149.36) rotate(180)"/><rect class="cls-7" x="32.56" y="72.3" width="1.65" height="4.75" transform="translate(66.76 149.36) rotate(180)"/><rect class="cls-4" x="12.55" y="63.41" width="21.65" height="4.39"/><rect class="cls-4" x="16.37" y="67.65" width="14.01" height="2.35"/><rect class="cls-8" x="11.75" y="86.98" width="23.26" height="32.43"/><rect class="cls-9" x="15.83" y="86.98" width="15.1" height="2.9"/><rect class="cls-7" x="19.03" y="86.98" width="8.69" height="2.9"/><rect class="cls-9" x="19.03" y="89.88" width="8.69" height="2.9"/><rect class="cls-9" x="21.53" y="92.77" width="3.46" height="2.9"/><rect class="cls-10" x="11.75" y="119.41" width="23.26" height="8.7"/><rect class="cls-6" x="11.75" y="119.41" width="9.87" height="32.5"/><rect class="cls-10" x="10.25" y="151.91" width="12.87" height="4.17"/><rect class="cls-10" x="23.64" y="151.91" width="12.87" height="4.17"/><rect class="cls-6" x="25.14" y="119.41" width="9.87" height="32.5"/><rect class="cls-11" x="7.03" y="89.88" width="4.72" height="29.53" transform="translate(18.77 209.29) rotate(180)"/><rect class="cls-5" x="7.75" y="119.41" width="3.99" height="5.69" transform="translate(19.5 244.51) rotate(180)"/><rect class="cls-5" x="35.01" y="119.41" width="3.99" height="5.69" transform="translate(74.01 244.51) rotate(180)"/><rect class="cls-12" x="6.2" y="119.41" width="5.55" height="2.14" transform="translate(17.95 240.95) rotate(180)"/><rect class="cls-11" x="35.01" y="89.88" width="4.72" height="29.53"/><rect class="cls-12" x="35.01" y="119.41" width="5.55" height="2.14"/><rect class="cls-5" x="15.83" y="82.94" width="15.1" height="2.02"/><rect class="cls-7" x="17.75" y="84.96" width="11.26" height="2.02"/><rect class="cls-8" x="17.75" y="77.82" width="11.26" height="2.02"/><rect class="cls-8" x="19.73" y="79.83" width="7.3" height="2.02"/><rect class="cls-10" x="11.75" y="119.41" width="23.26" height="2.02"/><rect class="cls-13" x="8.97" y="156.07" width="29.31" height="1.17"/><rect class="cls-3" x="5.35" y="89.88" width="1.67" height="55"/><polygon class="cls-14" points="427.95 86.45 411.61 84.76 404.54 84.03 401.61 88.36 401.48 89.69 401.14 92.94 404.94 93.33 404.46 97.91 408.35 98.31 407.9 102.73 411.78 103.13 411.31 107.71 415.42 108.13 414.95 112.71 419.27 113.16 419.75 108.58 423.86 109 424.33 104.42 428.22 104.82 428.67 100.41 432.56 100.81 433.04 96.23 436.83 96.62 437.17 93.37 437.3 92.04 435.02 87.18 427.95 86.45"/><polygon class="cls-15" points="433.98 91.72 398.29 88.04 401.21 83.71 431.69 86.86 433.98 91.72"/><rect class="cls-16" x="401.3" y="94.45" width="28.25" height="4.6" transform="translate(12.12 -42.13) rotate(5.89)"/><rect class="cls-16" x="404.75" y="98.86" width="20.43" height="4.6" transform="translate(12.57 -42.06) rotate(5.89)"/><rect class="cls-16" x="408.19" y="103.44" width="12.61" height="4.6" transform="translate(13.04 -41.98) rotate(5.89)"/><rect class="cls-15" x="412.32" y="103.44" width="4.35" height="4.6" transform="translate(13.04 -41.98) rotate(5.89)"/><rect class="cls-15" x="411.08" y="98.94" width="7.75" height="4.6" transform="matrix(0.99, 0.1, -0.1, 0.99, 12.58, -42.06)"/><rect class="cls-15" x="408.82" y="94.36" width="13.23" height="4.6" transform="translate(12.12 -42.13) rotate(5.89)"/><rect class="cls-16" x="411.85" y="108.02" width="4.35" height="4.6" transform="translate(13.51 -41.91) rotate(5.89)"/><rect class="cls-16" x="397.96" y="89.87" width="35.88" height="4.6" transform="translate(11.66 -42.2) rotate(5.89)"/><rect class="cls-15" x="405.68" y="89.87" width="20.43" height="4.6" transform="matrix(0.99, 0.1, -0.1, 0.99, 11.66, -42.2)"/><polygon class="cls-17" points="426.29 90.93 405.97 88.83 408.28 84.44 424.62 86.13 426.29 90.93"/><rect class="cls-17" x="398.12" y="89.88" width="35.88" height="1.34" transform="translate(11.49 -42.23) rotate(5.89)"/></g><g id="icones"><text class="cls-18" transform="translate(100.9 75.05)">Crativit</text><rect class="cls-19" x="126.06" y="44.73" width="17.06" height="17.02"/><rect class="cls-19" x="132.04" y="44.73" width="5.11" height="2.51"/><rect class="cls-19" x="125.83" y="25.44" width="17.53" height="19.29"/><path class="cls-19" d="M143.18,26.42V37.66H126V26.42h17.17m4.93-7.07h-27V44.73h27V19.35Z"/><rect class="cls-19" x="128.13" y="44.73" width="12.94" height="10.47"/><circle class="cls-20" cx="131.09" cy="24.27" r="24.27"/><path class="cls-19" d="M141.47,32.77v7.84h-6V32.77ZM124.3,40.61V32.77h6v7.84Z"/><rect class="cls-21" x="121.11" y="41.61" width="17.45" height="17.02"/><rect class="cls-22" x="127.28" y="41.61" width="5.11" height="6.24"/><rect class="cls-23" x="121.07" y="22.32" width="17.53" height="19.29"/><path class="cls-24" d="M138.42,23.3V34.54H121.25V23.3h17.17m4.93-7.07h-27V41.61h27V16.23Z"/><rect class="cls-24" x="121.14" y="41.61" width="17.39" height="10.47"/><text class="cls-18" transform="translate(301.61 74.27)">criture</text><polygon class="cls-19" points="342.75 32.03 344.03 30.75 346.5 28.28 341.05 22.84 338.59 25.3 337.31 26.58 336.48 25.76 336.48 25.76 333.63 28.61 333.63 28.61 332.4 29.84 310.77 51.47 312.4 53.1 309.93 55.56 313.78 59.4 316.24 56.94 317.87 58.56 339.5 36.93 340.72 35.71 340.76 35.74 343.61 32.89 343.58 32.85 342.75 32.03"/><rect class="cls-25" x="337.83" y="21.59" width="7.7" height="6.98" transform="translate(117.81 -234.26) rotate(45)"/><rect class="cls-26" x="336.6" y="24.57" width="7.7" height="3.49" transform="translate(118.32 -233.03) rotate(45)"/><rect class="cls-27" x="322.53" y="21.03" width="10.03" height="36.36" transform="translate(123.67 -220.13) rotate(45)"/><rect class="cls-28" x="323.4" y="24.48" width="5.44" height="32.33" transform="translate(124.26 -218.7) rotate(45)"/><rect class="cls-29" x="316.97" y="40" width="5.44" height="14.14" transform="translate(126.92 -212.27) rotate(45)"/><rect class="cls-30" x="321.41" y="41.83" width="5.44" height="1.61" transform="translate(125.08 -216.7) rotate(45)"/><rect class="cls-27" x="310.74" y="51.56" width="5.44" height="3.48" transform="translate(129.5 -206.04) rotate(45)"/><rect class="cls-28" x="333.35" y="25.52" width="10.03" height="5.77" transform="translate(119.19 -230.94) rotate(45)"/><rect class="cls-19" x="309.85" y="56.24" width="2.64" height="2.64" transform="translate(131.85 -203.17) rotate(45)"/><rect class="cls-31" x="309.72" y="53.89" width="2.64" height="2.64" transform="translate(130.14 -203.77) rotate(45)"/><rect class="cls-27" x="328.24" y="19.9" width="2.15" height="12.73" transform="translate(115.03 -225.17) rotate(45)"/><rect class="cls-28" x="329.14" y="20.8" width="2.15" height="12.73" transform="translate(115.93 -225.54) rotate(45)"/><polygon class="cls-19" points="10.19 22.86 9.47 26.56 9.43 26.76 8.7 30.46 7.6 36.12 7.18 38.26 4.65 37.77 4.42 38.94 4 41.09 3.54 43.45 3.12 45.6 2.89 46.78 1.82 46.57 1.51 48.15 42.72 56.22 43.03 54.63 41.96 54.42 42.19 53.25 42.61 51.1 43.07 48.74 43.49 46.59 43.72 45.41 41.2 44.92 41.62 42.78 42.72 37.12 43.45 33.42 43.49 33.22 44.21 29.52 41.78 29.04 41.06 32.74 36.75 31.9 35.99 35.8 31.8 34.98 32.57 31.08 29.39 30.46 30.11 26.76 24.29 25.62 23.57 29.32 20.39 28.7 19.62 32.6 15.44 31.78 16.2 27.88 11.89 27.03 12.62 23.33 10.19 22.86"/><rect class="cls-32" x="1.89" y="38.51" width="39.81" height="9.18" transform="translate(8.68 -3.38) rotate(11.07)"/><rect class="cls-21" x="-0.24" y="47.59" width="42" height="1.61" transform="matrix(0.98, 0.19, -0.19, 0.98, 9.68, -3.09)"/><rect class="cls-24" x="6.11" y="30.72" width="34.67" height="7.95" transform="translate(7.1 -3.86) rotate(11.07)"/><rect class="cls-33" x="21.99" y="30.72" width="2.91" height="7.95" transform="translate(7.1 -3.86) rotate(11.07)"/><rect class="cls-33" x="6.41" y="27.67" width="2.91" height="7.95" transform="translate(6.22 -0.92) rotate(11.07)"/><rect class="cls-33" x="37.57" y="33.77" width="2.91" height="7.95" transform="translate(7.98 -6.79) rotate(11.07)"/><rect class="cls-33" x="5.56" y="36.43" width="34.67" height="2.18" transform="translate(7.63 -3.7) rotate(11.07)"/><rect class="cls-24" x="7.51" y="24.18" width="6.86" height="3.97" transform="translate(5.23 -1.61) rotate(11.07)"/><rect class="cls-24" x="8.28" y="20.06" width="2.47" height="3.97" transform="translate(4.41 -1.42) rotate(11.07)"/><rect class="cls-24" x="34.8" y="29.53" width="6.86" height="3.97" transform="translate(69.7 69.78) rotate(-168.93)"/><rect class="cls-24" x="18.38" y="26.86" width="12.41" height="3.97" transform="translate(43.18 61.87) rotate(-168.93)"/><rect class="cls-24" x="22.35" y="23.16" width="5.93" height="3.97" transform="translate(45.32 54.68) rotate(-168.93)"/><rect class="cls-24" x="39.87" y="26.25" width="2.47" height="3.97" transform="translate(76.03 63.84) rotate(-168.93)"/><rect class="cls-24" x="19.4" y="40.7" width="4.8" height="4.8" transform="translate(45.39 0.96) rotate(56.07)"/><rect class="cls-34" x="20.95" y="42.25" width="1.7" height="1.7" transform="matrix(0.56, 0.83, -0.83, 0.56, 45.39, 0.96)"/><polygon class="cls-24" points="1.61 42.6 2.91 35.95 5.59 39.93 1.61 42.6"/><polygon class="cls-24" points="41.98 43.59 40.68 50.25 38.01 46.27 41.98 43.59"/><polygon class="cls-34" points="2.03 40.46 2.49 38.1 3.44 39.51 2.03 40.46"/><polygon class="cls-34" points="41.1 48.1 40.15 46.69 41.56 45.74 41.1 48.1"/><text class="cls-18" transform="translate(215.95 74.23)">Design</text><path class="cls-19" d="M254.43,41V19.84H212V54.28h29.36v8.44h21.68V41Zm2.7,15.61H248V47.51h9.14Z"/><path class="cls-35" d="M252.46,38.93V17.74H210.05V52.18h29.37v8.44H261.1V38.93Zm2.71,15.62H246V45.4h9.14Z"/><rect class="cls-24" x="226.83" y="23.16" width="6.06" height="6.06"/><rect class="cls-36" x="238.99" y="23.16" width="6.06" height="6.06"/><rect class="cls-28" x="226.71" y="33.69" width="6.06" height="6.06"/><rect class="cls-37" x="215.36" y="23.16" width="6.06" height="6.06"/><rect class="cls-38" x="215.23" y="33.69" width="6.06" height="6.06"/><rect class="cls-29" x="238.99" y="33.69" width="6.06" height="6.06"/></g></g></svg>